<svg width="12" height="7" viewBox="0 0 12 7" fill="none" xmlns="http://www.w3.org/2000/svg">
<path d="M6.00005 2.7999L2.10005 6.6999C1.91672 6.88324 1.68338 6.9749 1.40005 6.9749C1.11672 6.9749 0.883382 6.88324 0.700048 6.6999C0.516715 6.51657 0.425049 6.28324 0.425049 5.9999C0.425049 5.71657 0.516715 5.48324 0.700048 5.2999L5.30005 0.699903C5.50005 0.499903 5.73338 0.399902 6.00005 0.399902C6.26672 0.399902 6.50005 0.499903 6.70005 0.699903L11.3 5.2999C11.4834 5.48324 11.575 5.71657 11.575 5.9999C11.575 6.28324 11.4834 6.51657 11.3 6.6999C11.1167 6.88324 10.8834 6.9749 10.6 6.9749C10.3167 6.9749 10.0834 6.88324 9.90005 6.6999L6.00005 2.7999Z" fill="black" style="fill:black;fill-opacity:1;"/>
</svg>
