<svg width="385" height="217" viewBox="0 0 385 217" fill="none" xmlns="http://www.w3.org/2000/svg">
<rect width="385" height="216.703" fill="#DEF7D1"/>
<path d="M38.5002 60.5C28.1002 60.5 21.2002 53.7 21.2002 43.25C21.2002 32.8 28.1002 26 38.5002 26C47.9502 26 54.5502 31 54.5502 39V39.7H48.6002V39C48.6002 33.9 45.3502 31.15 38.5502 31.15C30.7002 31.15 26.9002 34.9 26.9002 43.25C26.9002 51.6 30.7002 55.3 38.5502 55.3C45.3502 55.3 48.6002 52.6 48.6002 47.45V46.8H54.5502V47.45C54.5502 55.5 48.0002 60.5 38.5002 60.5ZM62.9283 60H57.5283V26.5H84.1783V31.35H62.9283V41.75H83.4283V46.55H62.9283V60ZM92.5924 60H87.1924V26.5H103.592C111.042 26.5 116.142 30.75 116.142 38.2C116.142 45.6 111.042 49.9 103.592 49.9H92.5924V60ZM103.092 31.35H92.5924V45.05H103.092C108.142 45.05 110.742 43.15 110.742 38.2C110.742 33.25 108.142 31.35 103.092 31.35ZM37.2002 110H29.2502L20.4002 76.5H26.4002L31.8502 97.7L33.3502 104.8H33.7502L35.5502 97.7L42.3002 76.5H50.1502L57.3502 97.7L59.2502 104.8H59.6502L61.0502 97.7L66.0502 76.5H71.9502L63.5502 110H55.6002L48.8502 90.5L46.4002 81.9H45.9502L43.5502 90.5L37.2002 110ZM81.4299 110.5C76.2799 110.5 73.0299 108.1 73.0299 104C73.0299 100.15 76.1299 98.15 81.0299 97.6L92.3299 96.4V94.95C92.3299 90.85 90.5299 89.4 85.7799 89.4C81.1799 89.4 78.9299 90.9 78.9299 94.55V94.75H73.5799V94.55C73.5799 88.9 78.2799 84.65 86.1799 84.65C94.0799 84.65 97.6299 88.95 97.6299 94.9V110H92.6799V103.8H92.3299C91.0299 108 87.0799 110.5 81.4299 110.5ZM78.4299 103.65C78.4299 105.65 79.7799 106.6 82.8799 106.6C88.5299 106.6 92.3299 104.5 92.3299 99.6L82.5799 100.7C79.7799 101.05 78.4299 101.7 78.4299 103.65ZM106.85 110H101.45V85.15H106.4V92.85H106.75C107.5 88.65 110.8 84.65 117.1 84.65C124 84.65 127.4 89.3 127.4 95.05V110H122V96.5C122 91.85 119.9 89.5 114.75 89.5C109.3 89.5 106.85 92.3 106.85 97.7V110ZM147.512 110H141.812C136.462 110 133.162 107.65 133.162 101.6V89.65H128.962V85.15H133.162V79.7H138.512V85.15H147.512V89.65H138.512V101.3C138.512 104.35 139.912 105.15 143.012 105.15H147.512V110ZM162.39 110.5C154.24 110.5 148.89 105.9 148.89 97.6C148.89 89.85 154.19 84.65 162.29 84.65C169.99 84.65 175.24 88.9 175.24 96.45C175.24 97.35 175.19 98.05 175.04 98.8H153.94C154.14 103.6 156.49 106.15 162.24 106.15C167.44 106.15 169.59 104.45 169.59 101.5V101.1H174.99V101.55C174.99 106.85 169.79 110.5 162.39 110.5ZM162.19 88.9C156.69 88.9 154.29 91.35 153.99 95.8H170.14V95.7C170.14 91.1 167.49 88.9 162.19 88.9ZM189.234 110.5C181.384 110.5 177.034 105.25 177.034 97.6C177.034 89.85 181.334 84.65 188.884 84.65C194.784 84.65 198.134 87.7 199.134 91.9H199.434V76.5H204.834V110H199.884V102.85H199.534C198.484 107.8 194.834 110.5 189.234 110.5ZM182.484 97.6C182.484 103.55 185.534 105.55 190.884 105.55C196.184 105.55 199.434 103.05 199.434 97.85V97.45C199.434 92.15 196.334 89.55 190.784 89.55C185.584 89.55 182.484 91.6 182.484 97.6Z" fill="#F66C21"/>
<path d="M278.919 197.689C276.519 197.689 274.631 196.921 273.255 195.385C271.895 193.849 271.215 191.625 271.215 188.713C271.215 186.761 271.527 185.097 272.151 183.721C272.775 182.329 273.663 181.273 274.815 180.553C275.983 179.833 277.351 179.473 278.919 179.473C280.503 179.473 281.823 179.809 282.879 180.481C283.935 181.153 284.783 182.193 285.423 183.601L282.279 185.209C281.735 183.545 280.615 182.713 278.919 182.713C277.751 182.713 276.815 183.105 276.111 183.889C275.423 184.673 275.079 185.777 275.079 187.201V189.985C275.079 191.393 275.423 192.489 276.111 193.273C276.815 194.057 277.751 194.449 278.919 194.449C279.815 194.449 280.559 194.209 281.151 193.729C281.743 193.233 282.191 192.585 282.495 191.785L285.471 193.489C284.127 196.289 281.943 197.689 278.919 197.689ZM291.871 190.081V197.377H288.223V179.785H299.743V183.025H291.871V186.865H298.639V190.081H291.871ZM306.471 197.377H302.823V179.785H311.031C312.103 179.785 313.039 180.017 313.839 180.481C314.639 180.945 315.247 181.601 315.663 182.449C316.095 183.281 316.311 184.241 316.311 185.329C316.311 186.433 316.095 187.401 315.663 188.233C315.247 189.065 314.639 189.713 313.839 190.177C313.039 190.641 312.103 190.873 311.031 190.873H306.471V197.377ZM306.471 182.953V187.705H310.623C311.215 187.705 311.679 187.553 312.015 187.249C312.367 186.929 312.543 186.473 312.543 185.881V184.777C312.543 184.185 312.367 183.737 312.015 183.433C311.679 183.113 311.215 182.953 310.623 182.953H306.471ZM326.502 181.249H323.862V180.337H318.366V178.105H323.862V177.169H326.502V178.105H331.662V177.169H334.35V178.105H340.206V180.337H334.35V181.249H331.662V180.337H326.502V181.249ZM339.894 195.217C338.886 195.041 337.902 194.809 336.942 194.521C336.942 195.273 336.934 195.841 336.918 196.225C336.902 196.609 336.878 196.945 336.846 197.233C336.766 197.713 336.614 198.089 336.39 198.361C336.182 198.633 335.846 198.825 335.382 198.937C334.934 199.065 334.31 199.129 333.51 199.129H330.126L329.55 196.993H333.51C333.782 196.993 333.966 196.961 334.062 196.897C334.174 196.833 334.254 196.713 334.302 196.537C334.35 196.345 334.374 195.961 334.374 195.385H329.574C329.206 196.569 328.294 197.473 326.838 198.097C325.398 198.737 323.358 199.193 320.718 199.465L320.022 197.305C322.054 197.065 323.582 196.817 324.606 196.561C325.646 196.289 326.374 195.897 326.79 195.385H322.086V194.425C321.078 194.761 319.958 195.025 318.726 195.217L317.79 193.081C319.262 192.841 320.462 192.609 321.39 192.385C322.334 192.145 323.11 191.881 323.718 191.593H318.27V189.457H326.022C326.134 189.281 326.262 189.041 326.406 188.737H320.862V181.729H337.71V188.737H329.214C329.086 188.977 328.942 189.217 328.782 189.457H340.302V191.593H335.19C335.766 191.881 336.494 192.145 337.374 192.385C338.254 192.625 339.374 192.865 340.734 193.105L339.894 195.217ZM335.046 183.649H323.478V184.369H335.046V183.649ZM335.046 186.049H323.478V186.817H335.046V186.049ZM329.766 193.369H334.014C332.99 192.825 332.15 192.233 331.494 191.593H327.006C326.35 192.233 325.534 192.825 324.558 193.369H327.294V192.073H329.766V193.369ZM355.974 193.609C356.742 194.201 357.814 194.729 359.19 195.193C360.582 195.657 362.382 196.121 364.59 196.585L363.63 199.057L362.358 198.697C360.566 198.201 359.222 197.785 358.326 197.449C357.43 197.129 356.67 196.721 356.046 196.225C355.438 195.729 354.998 195.081 354.726 194.281H354.486V199.417H351.702V194.281H351.462C351.19 195.113 350.758 195.777 350.166 196.273C349.574 196.769 348.838 197.177 347.958 197.497C347.094 197.833 345.766 198.257 343.974 198.769L342.942 199.057L341.958 196.561C344.054 196.081 345.766 195.617 347.094 195.169C348.438 194.705 349.478 194.185 350.214 193.609H342.462V191.257H351.702V190.249H344.622V184.729C344.206 185.097 343.814 185.417 343.446 185.689L341.814 183.433C342.998 182.553 344.022 181.561 344.886 180.457C345.766 179.353 346.462 178.169 346.974 176.905L349.686 177.697C349.526 178.129 349.334 178.569 349.11 179.017H353.334C353.686 178.409 353.99 177.753 354.246 177.049L357.054 177.457C356.862 177.953 356.622 178.473 356.334 179.017H363.174V181.177H355.854V182.233H362.55V184.129H355.854V185.185H362.55V187.081H355.854V188.137H363.342V190.249H354.486V191.257H364.11V193.609H355.974ZM353.094 181.177H347.814C347.766 181.241 347.71 181.313 347.646 181.393C347.582 181.473 347.51 181.577 347.43 181.705V182.233H353.094V181.177ZM347.43 185.185H353.094V184.129H347.43V185.185ZM353.094 187.081H347.43V188.137H353.094V187.081Z" fill="#F66C21"/>
<path d="M341.204 38.2965L346.793 28.6094H365.407L341.204 70.5273L317 28.6094H335.615L341.204 38.2965Z" fill="#F66C21"/>
<path d="M341.749 113.409C353.329 113.409 362.717 104.022 362.717 92.441C362.717 80.8605 353.329 71.4727 341.749 71.4727C330.168 71.4727 320.78 80.8605 320.78 92.441C320.78 104.022 330.168 113.409 341.749 113.409Z" fill="#F66C21"/>
</svg>
