<svg width="684" height="385" viewBox="0 0 684 385" fill="none" xmlns="http://www.w3.org/2000/svg">
<rect width="684" height="385" fill="#DEF7D1"/>
<path d="M66.08 98.8C49.44 98.8 38.4 87.92 38.4 71.2C38.4 54.48 49.44 43.6 66.08 43.6C81.2 43.6 91.76 51.6 91.76 64.4V65.52H82.24V64.4C82.24 56.24 77.04 51.84 66.16 51.84C53.6 51.84 47.52 57.84 47.52 71.2C47.52 84.56 53.6 90.48 66.16 90.48C77.04 90.48 82.24 86.16 82.24 77.92V76.88H91.76V77.92C91.76 90.8 81.28 98.8 66.08 98.8ZM105.165 98H96.525V44.4H139.165V52.16H105.165V68.8H137.965V76.48H105.165V98ZM152.628 98H143.988V44.4H170.228C182.148 44.4 190.308 51.2 190.308 63.12C190.308 74.96 182.148 81.84 170.228 81.84H152.628V98ZM169.428 52.16H152.628V74.08H169.428C177.508 74.08 181.668 71.04 181.668 63.12C181.668 55.2 177.508 52.16 169.428 52.16ZM229.944 98H217.224L203.064 44.4H212.664L221.384 78.32L223.784 89.68H224.424L227.304 78.32L238.104 44.4H250.664L262.184 78.32L265.224 89.68H265.864L268.104 78.32L276.104 44.4H285.544L272.104 98H259.384L248.584 66.8L244.664 53.04H243.944L240.104 66.8L229.944 98ZM300.711 98.8C292.471 98.8 287.271 94.96 287.271 88.4C287.271 82.24 292.231 79.04 300.071 78.16L318.151 76.24V73.92C318.151 67.36 315.271 65.04 307.671 65.04C300.311 65.04 296.711 67.44 296.711 73.28V73.6H288.151V73.28C288.151 64.24 295.671 57.44 308.311 57.44C320.951 57.44 326.631 64.32 326.631 73.84V98H318.711V88.08H318.151C316.071 94.8 309.751 98.8 300.711 98.8ZM295.911 87.84C295.911 91.04 298.071 92.56 303.031 92.56C312.071 92.56 318.151 89.2 318.151 81.36L302.551 83.12C298.071 83.68 295.911 84.72 295.911 87.84ZM341.384 98H332.744V58.24H340.664V70.56H341.224C342.424 63.84 347.704 57.44 357.784 57.44C368.824 57.44 374.264 64.88 374.264 74.08V98H365.624V76.4C365.624 68.96 362.264 65.2 354.024 65.2C345.304 65.2 341.384 69.68 341.384 78.32V98ZM406.442 98H397.322C388.762 98 383.482 94.24 383.482 84.56V65.44H376.762V58.24H383.482V49.52H392.042V58.24H406.442V65.44H392.042V84.08C392.042 88.96 394.282 90.24 399.242 90.24H406.442V98ZM430.247 98.8C417.207 98.8 408.647 91.44 408.647 78.16C408.647 65.76 417.127 57.44 430.087 57.44C442.407 57.44 450.807 64.24 450.807 76.32C450.807 77.76 450.727 78.88 450.487 80.08H416.727C417.047 87.76 420.807 91.84 430.007 91.84C438.327 91.84 441.767 89.12 441.767 84.4V83.76H450.407V84.48C450.407 92.96 442.087 98.8 430.247 98.8ZM429.927 64.24C421.127 64.24 417.287 68.16 416.807 75.28H442.647V75.12C442.647 67.76 438.407 64.24 429.927 64.24ZM473.198 98.8C460.638 98.8 453.678 90.4 453.678 78.16C453.678 65.76 460.558 57.44 472.638 57.44C482.078 57.44 487.438 62.32 489.038 69.04H489.518V44.4H498.158V98H490.238V86.56H489.678C487.998 94.48 482.158 98.8 473.198 98.8ZM462.398 78.16C462.398 87.68 467.278 90.88 475.838 90.88C484.318 90.88 489.518 86.88 489.518 78.56V77.92C489.518 69.44 484.558 65.28 475.678 65.28C467.358 65.28 462.398 68.56 462.398 78.16Z" fill="#F66C21"/>
<path d="M533.844 349.416C530.644 349.416 528.126 348.392 526.292 346.344C524.478 344.296 523.572 341.331 523.572 337.448C523.572 334.845 523.988 332.627 524.82 330.792C525.652 328.936 526.836 327.528 528.372 326.568C529.929 325.608 531.753 325.128 533.844 325.128C535.956 325.128 537.716 325.576 539.124 326.472C540.532 327.368 541.662 328.755 542.516 330.632L538.324 332.776C537.598 330.557 536.105 329.448 533.844 329.448C532.286 329.448 531.038 329.971 530.1 331.016C529.182 332.061 528.724 333.533 528.724 335.432V339.144C528.724 341.021 529.182 342.483 530.1 343.528C531.038 344.573 532.286 345.096 533.844 345.096C535.038 345.096 536.03 344.776 536.82 344.136C537.609 343.475 538.206 342.611 538.612 341.544L542.58 343.816C540.788 347.549 537.876 349.416 533.844 349.416ZM551.114 339.272V349H546.25V325.544H561.61V329.864H551.114V334.984H560.138V339.272H551.114ZM570.58 349H565.716V325.544H576.66C578.09 325.544 579.338 325.853 580.404 326.472C581.471 327.091 582.282 327.965 582.836 329.096C583.412 330.205 583.7 331.485 583.7 332.936C583.7 334.408 583.412 335.699 582.836 336.808C582.282 337.917 581.471 338.781 580.404 339.4C579.338 340.019 578.09 340.328 576.66 340.328H570.58V349ZM570.58 329.768V336.104H576.116C576.906 336.104 577.524 335.901 577.972 335.496C578.442 335.069 578.676 334.461 578.676 333.672V332.2C578.676 331.411 578.442 330.813 577.972 330.408C577.524 329.981 576.906 329.768 576.116 329.768H570.58ZM597.288 327.496H593.768V326.28H586.44V323.304H593.768V322.056H597.288V323.304H604.168V322.056H607.752V323.304H615.56V326.28H607.752V327.496H604.168V326.28H597.288V327.496ZM615.144 346.12C613.8 345.885 612.488 345.576 611.208 345.192C611.208 346.195 611.197 346.952 611.176 347.464C611.155 347.976 611.123 348.424 611.08 348.808C610.973 349.448 610.771 349.949 610.472 350.312C610.195 350.675 609.747 350.931 609.128 351.08C608.531 351.251 607.699 351.336 606.632 351.336H602.12L601.352 348.488H606.632C606.995 348.488 607.24 348.445 607.368 348.36C607.517 348.275 607.624 348.115 607.688 347.88C607.752 347.624 607.784 347.112 607.784 346.344H601.384C600.893 347.923 599.677 349.128 597.736 349.96C595.816 350.813 593.096 351.421 589.576 351.784L588.648 348.904C591.357 348.584 593.395 348.253 594.76 347.912C596.147 347.549 597.117 347.027 597.672 346.344H591.4V345.064C590.056 345.512 588.563 345.864 586.92 346.12L585.672 343.272C587.635 342.952 589.235 342.643 590.472 342.344C591.731 342.024 592.765 341.672 593.576 341.288H586.312V338.44H596.648C596.797 338.205 596.968 337.885 597.16 337.48H589.768V328.136H612.232V337.48H600.904C600.733 337.8 600.541 338.12 600.328 338.44H615.688V341.288H608.872C609.64 341.672 610.611 342.024 611.784 342.344C612.957 342.664 614.451 342.984 616.264 343.304L615.144 346.12ZM608.68 330.696H593.256V331.656H608.68V330.696ZM608.68 333.896H593.256V334.92H608.68V333.896ZM601.64 343.656H607.304C605.939 342.931 604.819 342.141 603.944 341.288H597.96C597.085 342.141 595.997 342.931 594.696 343.656H598.344V341.928H601.64V343.656ZM636.584 343.976C637.608 344.765 639.037 345.469 640.872 346.088C642.728 346.707 645.128 347.325 648.072 347.944L646.792 351.24L645.096 350.76C642.707 350.099 640.915 349.544 639.72 349.096C638.525 348.669 637.512 348.125 636.68 347.464C635.869 346.803 635.283 345.939 634.92 344.872H634.6V351.72H630.888V344.872H630.568C630.205 345.981 629.629 346.867 628.84 347.528C628.051 348.189 627.069 348.733 625.896 349.16C624.744 349.608 622.973 350.173 620.584 350.856L619.208 351.24L617.896 347.912C620.691 347.272 622.973 346.653 624.744 346.056C626.536 345.437 627.923 344.744 628.904 343.976H618.568V340.84H630.888V339.496H621.448V332.136C620.893 332.627 620.371 333.053 619.88 333.416L617.704 330.408C619.283 329.235 620.648 327.912 621.8 326.44C622.973 324.968 623.901 323.389 624.584 321.704L628.2 322.76C627.987 323.336 627.731 323.923 627.432 324.52H633.064C633.533 323.709 633.939 322.835 634.28 321.896L638.024 322.44C637.768 323.101 637.448 323.795 637.064 324.52H646.184V327.4H636.424V328.808H645.352V331.336H636.424V332.744H645.352V335.272H636.424V336.68H646.408V339.496H634.6V340.84H647.432V343.976H636.584ZM632.744 327.4H625.704C625.64 327.485 625.565 327.581 625.48 327.688C625.395 327.795 625.299 327.933 625.192 328.104V328.808H632.744V327.4ZM625.192 332.744H632.744V331.336H625.192V332.744ZM632.744 335.272H625.192V336.68H632.744V335.272Z" fill="#F66C21"/>
<path d="M69.0095 305.043L76.632 291.832H102.019L69.0095 349L36 291.832H61.387L69.0095 305.043Z" fill="#F66C21"/>
<path d="M123.761 348.194C139.555 348.194 152.358 335.391 152.358 319.597C152.358 303.803 139.555 291 123.761 291C107.967 291 95.1638 303.803 95.1638 319.597C95.1638 335.391 107.967 348.194 123.761 348.194Z" fill="#F66C21"/>
</svg>
