<svg width="684" height="385" viewBox="0 0 684 385" fill="none" xmlns="http://www.w3.org/2000/svg">
<rect width="684" height="385" fill="#FFDAFF"/>
<path d="M61.992 91H40.032V42.76H61.992C76.968 42.76 86.4 51.976 86.4 66.88C86.4 81.784 76.968 91 61.992 91ZM61.992 49.744H47.736V84.016H61.992C73.152 84.016 78.192 79.264 78.192 66.88C78.192 54.496 73.152 49.744 61.992 49.744ZM98.5298 51.04H90.7538V42.76H98.5298V51.04ZM98.5298 91H90.7538V55.216H98.5298V91ZM121.21 91.72C109.69 91.72 103.138 87.184 103.138 78.904V78.688H110.914V79.264C110.914 83.944 113.722 85.456 121.21 85.456C128.194 85.456 130.282 84.016 130.282 80.848C130.282 77.896 128.554 76.96 123.442 76.24L113.65 74.944C106.882 74.08 102.778 71.2 102.778 65.224C102.778 58.96 108.466 54.496 119.482 54.496C130.426 54.496 137.05 58.888 137.05 67.384V67.6H129.346V67.168C129.346 62.92 127.186 60.688 119.266 60.688C112.714 60.688 110.41 62.128 110.41 65.512C110.41 68.32 111.85 69.328 117.25 70.048L125.53 71.2C134.026 72.28 137.914 75.16 137.914 81.064C137.914 87.76 131.29 91.72 121.21 91.72ZM160.157 91.72C148.349 91.72 140.645 84.16 140.645 73.144C140.645 61.984 148.349 54.496 160.157 54.496C170.885 54.496 178.733 60.544 178.733 69.472V70.192H171.029V69.76C171.029 64.216 166.997 61.48 160.013 61.48C151.949 61.48 148.349 65.296 148.349 73.144C148.349 80.848 151.949 84.736 160.013 84.736C166.997 84.736 171.029 82 171.029 76.456V75.952H178.733V76.744C178.733 85.672 170.885 91.72 160.157 91.72ZM201.331 91.72C189.451 91.72 181.459 84.16 181.459 73.144C181.459 61.984 189.451 54.496 201.331 54.496C213.283 54.496 221.275 61.984 221.275 73.144C221.275 84.16 213.283 91.72 201.331 91.72ZM201.331 84.808C210.043 84.808 213.643 80.704 213.643 73.144C213.643 65.512 210.043 61.336 201.331 61.336C192.691 61.336 189.091 65.512 189.091 73.144C189.091 80.704 192.691 84.808 201.331 84.808ZM248.446 91H238.942L222.238 55.216H230.806L243.55 83.44H244.126L256.87 55.216H265.294L248.446 91ZM285.843 91.72C274.107 91.72 266.403 85.096 266.403 73.144C266.403 61.984 274.035 54.496 285.699 54.496C296.787 54.496 304.347 60.616 304.347 71.488C304.347 72.784 304.275 73.792 304.059 74.872H273.675C273.963 81.784 277.347 85.456 285.627 85.456C293.115 85.456 296.211 83.008 296.211 78.76V78.184H303.987V78.832C303.987 86.464 296.499 91.72 285.843 91.72ZM285.555 60.616C277.635 60.616 274.179 64.144 273.747 70.552H297.003V70.408C297.003 63.784 293.187 60.616 285.555 60.616ZM316.507 91H308.731V55.216H315.859V64.864H316.363C317.443 59.104 321.331 54.496 328.675 54.496C336.811 54.496 340.339 60.328 340.339 67.096V71.776H332.635V68.608C332.635 63.496 330.475 61.12 325.147 61.12C319.027 61.12 316.507 64.504 316.507 70.912V91ZM63.072 163H54.864C47.16 163 42.408 159.616 42.408 150.904V133.696H36.36V127.216H42.408V119.368H50.112V127.216H63.072V133.696H50.112V150.472C50.112 154.864 52.128 156.016 56.592 156.016H63.072V163ZM74.2719 163H66.4959V114.76H74.2719V138.16H74.7039C75.9279 132.112 80.3199 126.496 89.4639 126.496C99.3279 126.496 104.152 132.976 104.152 141.688V163H96.4479V143.56C96.4479 136.36 93.2079 133.48 85.7919 133.48C77.2959 133.48 74.2719 138.088 74.2719 145.648V163ZM127.704 163.72C115.968 163.72 108.264 157.096 108.264 145.144C108.264 133.984 115.896 126.496 127.56 126.496C138.648 126.496 146.208 132.616 146.208 143.488C146.208 144.784 146.136 145.792 145.92 146.872H115.536C115.824 153.784 119.208 157.456 127.488 157.456C134.976 157.456 138.072 155.008 138.072 150.76V150.184H145.848V150.832C145.848 158.464 138.36 163.72 127.704 163.72ZM127.416 132.616C119.496 132.616 116.04 136.144 115.608 142.552H138.864V142.408C138.864 135.784 135.048 132.616 127.416 132.616ZM181.689 163.72C167.289 163.72 159.945 157.384 159.945 147.232V146.8H167.721V147.952C167.721 153.712 171.105 156.592 181.689 156.592C190.905 156.592 194.145 154.576 194.145 150.04C194.145 145.864 191.697 144.28 185.577 143.128L173.769 141.184C165.633 139.744 159.873 136 159.873 128.08C159.873 121.096 165.633 114.04 180.609 114.04C194.721 114.04 201.129 121.096 201.129 130.528V130.96H193.425V130.024C193.425 124.12 189.897 121.168 179.889 121.168C171.105 121.168 167.649 123.328 167.649 127.648C167.649 131.824 170.097 133.192 175.785 134.416L187.521 136.432C197.169 138.16 201.921 142.552 201.921 149.608C201.921 156.952 195.945 163.72 181.689 163.72ZM224.002 163.72C212.266 163.72 204.562 157.096 204.562 145.144C204.562 133.984 212.194 126.496 223.858 126.496C234.946 126.496 242.506 132.616 242.506 143.488C242.506 144.784 242.434 145.792 242.218 146.872H211.834C212.122 153.784 215.506 157.456 223.786 157.456C231.274 157.456 234.37 155.008 234.37 150.76V150.184H242.146V150.832C242.146 158.464 234.658 163.72 224.002 163.72ZM223.714 132.616C215.794 132.616 212.338 136.144 211.906 142.552H235.162V142.408C235.162 135.784 231.346 132.616 223.714 132.616ZM263.81 163.72C252.29 163.72 245.738 159.184 245.738 150.904V150.688H253.514V151.264C253.514 155.944 256.322 157.456 263.81 157.456C270.794 157.456 272.882 156.016 272.882 152.848C272.882 149.896 271.154 148.96 266.042 148.24L256.25 146.944C249.482 146.08 245.378 143.2 245.378 137.224C245.378 130.96 251.066 126.496 262.082 126.496C273.026 126.496 279.65 130.888 279.65 139.384V139.6H271.946V139.168C271.946 134.92 269.786 132.688 261.866 132.688C255.314 132.688 253.01 134.128 253.01 137.512C253.01 140.32 254.45 141.328 259.85 142.048L268.13 143.2C276.626 144.28 280.514 147.16 280.514 153.064C280.514 159.76 273.89 163.72 263.81 163.72ZM301.604 163.72C290.084 163.72 283.532 159.184 283.532 150.904V150.688H291.308V151.264C291.308 155.944 294.116 157.456 301.604 157.456C308.588 157.456 310.676 156.016 310.676 152.848C310.676 149.896 308.948 148.96 303.836 148.24L294.044 146.944C287.276 146.08 283.172 143.2 283.172 137.224C283.172 130.96 288.86 126.496 299.876 126.496C310.82 126.496 317.444 130.888 317.444 139.384V139.6H309.74V139.168C309.74 134.92 307.58 132.688 299.66 132.688C293.108 132.688 290.804 134.128 290.804 137.512C290.804 140.32 292.244 141.328 297.644 142.048L305.924 143.2C314.42 144.28 318.308 147.16 318.308 153.064C318.308 159.76 311.684 163.72 301.604 163.72ZM330.254 123.04H322.478V114.76H330.254V123.04ZM330.254 163H322.478V127.216H330.254V163ZM354.303 163.72C342.423 163.72 334.431 156.16 334.431 145.144C334.431 133.984 342.423 126.496 354.303 126.496C366.255 126.496 374.247 133.984 374.247 145.144C374.247 156.16 366.255 163.72 354.303 163.72ZM354.303 156.808C363.015 156.808 366.615 152.704 366.615 145.144C366.615 137.512 363.015 133.336 354.303 133.336C345.663 133.336 342.063 137.512 342.063 145.144C342.063 152.704 345.663 156.808 354.303 156.808ZM386.226 163H378.45V127.216H385.578V138.304H386.082C387.162 132.256 391.914 126.496 400.986 126.496C410.922 126.496 415.818 133.192 415.818 141.472V163H408.042V143.56C408.042 136.864 405.018 133.48 397.602 133.48C389.754 133.48 386.226 137.512 386.226 145.288V163ZM438.227 163.72C426.707 163.72 420.155 159.184 420.155 150.904V150.688H427.931V151.264C427.931 155.944 430.739 157.456 438.227 157.456C445.211 157.456 447.299 156.016 447.299 152.848C447.299 149.896 445.571 148.96 440.459 148.24L430.667 146.944C423.899 146.08 419.795 143.2 419.795 137.224C419.795 130.96 425.483 126.496 436.499 126.496C447.443 126.496 454.067 130.888 454.067 139.384V139.6H446.363V139.168C446.363 134.92 444.203 132.688 436.283 132.688C429.731 132.688 427.427 134.128 427.427 137.512C427.427 140.32 428.867 141.328 434.267 142.048L442.547 143.2C451.043 144.28 454.931 147.16 454.931 153.064C454.931 159.76 448.307 163.72 438.227 163.72ZM467.597 147.16H460.037C460.037 140.176 458.885 125.344 458.885 119.8V114.76H468.749V119.8C468.749 125.344 467.597 140.248 467.597 147.16ZM468.173 163H459.389V152.344H468.173V163Z" fill="#385FCC"/>
<path d="M458.758 326.984C458.608 331.016 457.744 334.621 456.166 337.8C454.608 340.979 452.4 343.656 449.542 345.832C446.704 347.987 443.302 349.576 439.334 350.6L437.35 346.568C441.787 345.459 445.318 343.784 447.942 341.544C446.064 339.987 443.942 338.376 441.574 336.712L444.198 333.736C446.523 335.315 448.731 336.904 450.822 338.504C452.422 336.328 453.531 333.789 454.15 330.888H443.622C442.683 332.317 441.638 333.629 440.486 334.824C439.355 335.997 437.926 337.203 436.198 338.44L433.478 334.984C435.76 333.405 437.67 331.613 439.206 329.608C440.742 327.603 441.979 325.363 442.918 322.888L447.078 324.04C446.566 325.32 446.118 326.301 445.734 326.984H458.758ZM491.046 326.6C488.4 329.181 485.446 331.517 482.182 333.608V350.28H477.798V336.232C474.278 338.152 470.608 339.741 466.79 341L464.966 336.936C469.296 335.613 473.488 333.747 477.542 331.336C481.616 328.925 485.147 326.259 488.134 323.336L491.046 326.6ZM519.108 349.864C518.724 348.776 518.308 347.688 517.86 346.6C511.396 347.368 504.111 348.019 496.004 348.552L495.684 344.36C496.367 344.339 497.412 344.285 498.82 344.2C501.743 337.437 504.196 330.579 506.18 323.624L510.436 324.808C508.303 331.955 506.127 338.301 503.908 343.848C507.77 343.592 511.855 343.208 516.164 342.696C514.778 339.773 513.455 337.299 512.196 335.272L516.068 333.416C517.348 335.528 518.586 337.832 519.78 340.328C520.996 342.824 522.095 345.363 523.076 347.944L519.108 349.864ZM530.291 324.104H551.411V328.2H530.291V324.104ZM554.291 332.2V336.296H543.187V337.64C543.187 340.584 542.419 343.165 540.883 345.384C539.369 347.581 537.139 349.309 534.195 350.568L531.859 346.728C534.377 345.661 536.19 344.403 537.299 342.952C538.409 341.501 538.963 339.731 538.963 337.64V336.296H527.411V332.2H554.291ZM585.331 339.08H559.731V334.6H585.331V339.08ZM615.273 321.16C616.361 322.888 617.311 324.659 618.121 326.472L615.785 327.528C614.74 325.395 613.78 323.624 612.905 322.216L615.273 321.16ZM611.497 322.792C612.713 324.733 613.684 326.504 614.409 328.104L612.745 328.808C612.511 332.733 611.753 336.115 610.473 338.952C609.215 341.768 607.359 344.136 604.905 346.056C602.473 347.955 599.38 349.459 595.625 350.568L593.769 346.248C597.012 345.309 599.647 344.136 601.673 342.728C603.721 341.299 605.268 339.56 606.313 337.512C607.359 335.443 607.999 332.957 608.233 330.056H589.481V325.928H610.313C609.993 325.309 609.588 324.605 609.097 323.816L611.497 322.792ZM647.72 336.808C646.739 339.837 645.363 342.525 643.592 344.872C641.821 347.197 639.709 348.872 637.256 349.896H633.352L633.384 324.04H637.608V344.936C638.888 343.976 640.051 342.707 641.096 341.128C642.163 339.549 643.144 337.416 644.04 334.728L647.72 336.808ZM625.064 324.2H629.288V333.576C629.288 337.8 628.659 341.224 627.4 343.848C626.163 346.472 624.307 348.723 621.832 350.6L618.92 346.984C621.032 345.491 622.579 343.741 623.56 341.736C624.563 339.731 625.064 337.064 625.064 333.736V324.2Z" fill="#385FCC"/>
<path d="M69.0095 305.044L76.632 291.832H102.019L69.0095 349.001L36 291.832H61.387L69.0095 305.044Z" fill="#385FCC"/>
<path d="M123.761 348.194C139.555 348.194 152.358 335.391 152.358 319.597C152.358 303.803 139.555 291 123.761 291C107.967 291 95.1638 303.803 95.1638 319.597C95.1638 335.391 107.967 348.194 123.761 348.194Z" fill="#385FCC"/>
</svg>
