<svg width="385" height="217" viewBox="0 0 385 217" fill="none" xmlns="http://www.w3.org/2000/svg">
<g clip-path="url(#clip0_5956_26394)">
<rect width="385" height="216.703" fill="#FFDAFF"/>
<path d="M37.328 58H22.688V25.84H37.328C47.312 25.84 53.6 31.984 53.6 41.92C53.6 51.856 47.312 58 37.328 58ZM37.328 30.496H27.824V53.344H37.328C44.768 53.344 48.128 50.176 48.128 41.92C48.128 33.664 44.768 30.496 37.328 30.496ZM61.6865 31.36H56.5025V25.84H61.6865V31.36ZM61.6865 58H56.5025V34.144H61.6865V58ZM76.8069 58.48C69.1269 58.48 64.7589 55.456 64.7589 49.936V49.792H69.9429V50.176C69.9429 53.296 71.8149 54.304 76.8069 54.304C81.4629 54.304 82.8549 53.344 82.8549 51.232C82.8549 49.264 81.7029 48.64 78.2949 48.16L71.7669 47.296C67.2549 46.72 64.5189 44.8 64.5189 40.816C64.5189 36.64 68.3109 33.664 75.6549 33.664C82.9509 33.664 87.3669 36.592 87.3669 42.256V42.4H82.2309V42.112C82.2309 39.28 80.7909 37.792 75.5109 37.792C71.1429 37.792 69.6069 38.752 69.6069 41.008C69.6069 42.88 70.5669 43.552 74.1669 44.032L79.6869 44.8C85.3509 45.52 87.9429 47.44 87.9429 51.376C87.9429 55.84 83.5269 58.48 76.8069 58.48ZM102.771 58.48C94.8991 58.48 89.7631 53.44 89.7631 46.096C89.7631 38.656 94.8991 33.664 102.771 33.664C109.923 33.664 115.155 37.696 115.155 43.648V44.128H110.019V43.84C110.019 40.144 107.331 38.32 102.675 38.32C97.2991 38.32 94.8991 40.864 94.8991 46.096C94.8991 51.232 97.2991 53.824 102.675 53.824C107.331 53.824 110.019 52 110.019 48.304V47.968H115.155V48.496C115.155 54.448 109.923 58.48 102.771 58.48ZM130.221 58.48C122.301 58.48 116.973 53.44 116.973 46.096C116.973 38.656 122.301 33.664 130.221 33.664C138.189 33.664 143.517 38.656 143.517 46.096C143.517 53.44 138.189 58.48 130.221 58.48ZM130.221 53.872C136.029 53.872 138.429 51.136 138.429 46.096C138.429 41.008 136.029 38.224 130.221 38.224C124.461 38.224 122.061 41.008 122.061 46.096C122.061 51.136 124.461 53.872 130.221 53.872ZM161.631 58H155.295L144.159 34.144H149.871L158.367 52.96H158.751L167.247 34.144H172.863L161.631 58ZM186.562 58.48C178.738 58.48 173.602 54.064 173.602 46.096C173.602 38.656 178.69 33.664 186.466 33.664C193.858 33.664 198.898 37.744 198.898 44.992C198.898 45.856 198.85 46.528 198.706 47.248H178.45C178.642 51.856 180.898 54.304 186.418 54.304C191.41 54.304 193.474 52.672 193.474 49.84V49.456H198.658V49.888C198.658 54.976 193.666 58.48 186.562 58.48ZM186.37 37.744C181.09 37.744 178.786 40.096 178.498 44.368H194.002V44.272C194.002 39.856 191.458 37.744 186.37 37.744ZM207.005 58H201.821V34.144H206.573V40.576H206.909C207.629 36.736 210.221 33.664 215.117 33.664C220.541 33.664 222.893 37.552 222.893 42.064V45.184H217.757V43.072C217.757 39.664 216.317 38.08 212.765 38.08C208.685 38.08 207.005 40.336 207.005 44.608V58ZM38.048 106H32.576C27.44 106 24.272 103.744 24.272 97.936V86.464H20.24V82.144H24.272V76.912H29.408V82.144H38.048V86.464H29.408V97.648C29.408 100.576 30.752 101.344 33.728 101.344H38.048V106ZM45.5146 106H40.3306V73.84H45.5146V89.44H45.8026C46.6186 85.408 49.5466 81.664 55.6426 81.664C62.2186 81.664 65.4346 85.984 65.4346 91.792V106H60.2986V93.04C60.2986 88.24 58.1386 86.32 53.1946 86.32C47.5306 86.32 45.5146 89.392 45.5146 94.432V106ZM81.1363 106.48C73.3123 106.48 68.1763 102.064 68.1763 94.096C68.1763 86.656 73.2643 81.664 81.0403 81.664C88.4323 81.664 93.4723 85.744 93.4723 92.992C93.4723 93.856 93.4243 94.528 93.2803 95.248H73.0243C73.2163 99.856 75.4723 102.304 80.9923 102.304C85.9843 102.304 88.0483 100.672 88.0483 97.84V97.456H93.2323V97.888C93.2323 102.976 88.2403 106.48 81.1363 106.48ZM80.9443 85.744C75.6643 85.744 73.3603 88.096 73.0723 92.368H88.5763V92.272C88.5763 87.856 86.0323 85.744 80.9443 85.744ZM117.126 106.48C107.526 106.48 102.63 102.256 102.63 95.488V95.2H107.814V95.968C107.814 99.808 110.07 101.728 117.126 101.728C123.27 101.728 125.43 100.384 125.43 97.36C125.43 94.576 123.798 93.52 119.718 92.752L111.846 91.456C106.422 90.496 102.582 88 102.582 82.72C102.582 78.064 106.422 73.36 116.406 73.36C125.814 73.36 130.086 78.064 130.086 84.352V84.64H124.95V84.016C124.95 80.08 122.598 78.112 115.926 78.112C110.07 78.112 107.766 79.552 107.766 82.432C107.766 85.216 109.398 86.128 113.19 86.944L121.014 88.288C127.446 89.44 130.614 92.368 130.614 97.072C130.614 101.968 126.63 106.48 117.126 106.48ZM145.334 106.48C137.51 106.48 132.374 102.064 132.374 94.096C132.374 86.656 137.462 81.664 145.238 81.664C152.63 81.664 157.67 85.744 157.67 92.992C157.67 93.856 157.622 94.528 157.478 95.248H137.222C137.414 99.856 139.67 102.304 145.19 102.304C150.182 102.304 152.246 100.672 152.246 97.84V97.456H157.43V97.888C157.43 102.976 152.438 106.48 145.334 106.48ZM145.142 85.744C139.862 85.744 137.558 88.096 137.27 92.368H152.774V92.272C152.774 87.856 150.23 85.744 145.142 85.744ZM171.873 106.48C164.193 106.48 159.825 103.456 159.825 97.936V97.792H165.009V98.176C165.009 101.296 166.881 102.304 171.873 102.304C176.529 102.304 177.921 101.344 177.921 99.232C177.921 97.264 176.769 96.64 173.361 96.16L166.833 95.296C162.321 94.72 159.585 92.8 159.585 88.816C159.585 84.64 163.377 81.664 170.721 81.664C178.017 81.664 182.433 84.592 182.433 90.256V90.4H177.297V90.112C177.297 87.28 175.857 85.792 170.577 85.792C166.209 85.792 164.673 86.752 164.673 89.008C164.673 90.88 165.633 91.552 169.233 92.032L174.753 92.8C180.417 93.52 183.009 95.44 183.009 99.376C183.009 103.84 178.593 106.48 171.873 106.48ZM197.069 106.48C189.389 106.48 185.021 103.456 185.021 97.936V97.792H190.205V98.176C190.205 101.296 192.077 102.304 197.069 102.304C201.725 102.304 203.117 101.344 203.117 99.232C203.117 97.264 201.965 96.64 198.557 96.16L192.029 95.296C187.517 94.72 184.781 92.8 184.781 88.816C184.781 84.64 188.573 81.664 195.917 81.664C203.213 81.664 207.629 84.592 207.629 90.256V90.4H202.493V90.112C202.493 87.28 201.053 85.792 195.773 85.792C191.405 85.792 189.869 86.752 189.869 89.008C189.869 90.88 190.829 91.552 194.429 92.032L199.949 92.8C205.613 93.52 208.205 95.44 208.205 99.376C208.205 103.84 203.789 106.48 197.069 106.48ZM216.17 79.36H210.986V73.84H216.17V79.36ZM216.17 106H210.986V82.144H216.17V106ZM232.202 106.48C224.282 106.48 218.954 101.44 218.954 94.096C218.954 86.656 224.282 81.664 232.202 81.664C240.17 81.664 245.498 86.656 245.498 94.096C245.498 101.44 240.17 106.48 232.202 106.48ZM232.202 101.872C238.01 101.872 240.41 99.136 240.41 94.096C240.41 89.008 238.01 86.224 232.202 86.224C226.442 86.224 224.042 89.008 224.042 94.096C224.042 99.136 226.442 101.872 232.202 101.872ZM253.484 106H248.3V82.144H253.052V89.536H253.388C254.108 85.504 257.276 81.664 263.324 81.664C269.948 81.664 273.212 86.128 273.212 91.648V106H268.028V93.04C268.028 88.576 266.012 86.32 261.068 86.32C255.836 86.32 253.484 89.008 253.484 94.192V106ZM288.151 106.48C280.471 106.48 276.103 103.456 276.103 97.936V97.792H281.287V98.176C281.287 101.296 283.159 102.304 288.151 102.304C292.807 102.304 294.199 101.344 294.199 99.232C294.199 97.264 293.047 96.64 289.639 96.16L283.111 95.296C278.599 94.72 275.863 92.8 275.863 88.816C275.863 84.64 279.655 81.664 286.999 81.664C294.295 81.664 298.711 84.592 298.711 90.256V90.4H293.575V90.112C293.575 87.28 292.135 85.792 286.855 85.792C282.487 85.792 280.951 86.752 280.951 89.008C280.951 90.88 281.911 91.552 285.511 92.032L291.031 92.8C296.695 93.52 299.287 95.44 299.287 99.376C299.287 103.84 294.871 106.48 288.151 106.48ZM307.732 95.44H302.692C302.692 90.784 301.924 80.896 301.924 77.2V73.84H308.5V77.2C308.5 80.896 307.732 90.832 307.732 95.44ZM308.116 106H302.26V98.896H308.116V106Z" fill="#385FCC"/>
<path d="M222.604 180.865C222.492 183.889 221.844 186.593 220.66 188.977C219.492 191.361 217.836 193.369 215.692 195.001C213.564 196.617 211.012 197.809 208.036 198.577L206.548 195.553C209.876 194.721 212.524 193.465 214.492 191.785C213.084 190.617 211.492 189.409 209.716 188.161L211.684 185.929C213.428 187.113 215.084 188.305 216.652 189.505C217.852 187.873 218.684 185.969 219.148 183.793H211.252C210.548 184.865 209.764 185.849 208.9 186.745C208.052 187.625 206.98 188.529 205.684 189.457L203.644 186.865C205.356 185.681 206.788 184.337 207.94 182.833C209.092 181.329 210.02 179.649 210.724 177.793L213.844 178.657C213.46 179.617 213.124 180.353 212.836 180.865H222.604ZM246.82 180.577C244.836 182.513 242.62 184.265 240.172 185.833V198.337H236.884V187.801C234.244 189.241 231.492 190.433 228.628 191.377L227.26 188.329C230.508 187.337 233.652 185.937 236.692 184.129C239.748 182.321 242.396 180.321 244.636 178.129L246.82 180.577ZM267.867 198.025C267.579 197.209 267.267 196.393 266.931 195.577C262.083 196.153 256.619 196.641 250.539 197.041L250.299 193.897C250.811 193.881 251.595 193.841 252.651 193.777C254.843 188.705 256.683 183.561 258.171 178.345L261.363 179.233C259.763 184.593 258.131 189.353 256.467 193.513C259.363 193.321 262.427 193.033 265.659 192.649C264.619 190.457 263.627 188.601 262.683 187.081L265.587 185.689C266.547 187.273 267.475 189.001 268.371 190.873C269.283 192.745 270.107 194.649 270.843 196.585L267.867 198.025ZM276.255 178.705H292.095V181.777H276.255V178.705ZM294.255 184.777V187.849H285.927V188.857C285.927 191.065 285.351 193.001 284.199 194.665C283.063 196.313 281.391 197.609 279.183 198.553L277.431 195.673C279.319 194.873 280.679 193.929 281.511 192.841C282.343 191.753 282.759 190.425 282.759 188.857V187.849H274.095V184.777H294.255ZM317.535 189.937H298.335V186.577H317.535V189.937ZM339.991 176.497C340.807 177.793 341.519 179.121 342.127 180.481L340.375 181.273C339.591 179.673 338.871 178.345 338.215 177.289L339.991 176.497ZM337.159 177.721C338.071 179.177 338.799 180.505 339.343 181.705L338.095 182.233C337.919 185.177 337.351 187.713 336.391 189.841C335.447 191.953 334.055 193.729 332.215 195.169C330.391 196.593 328.071 197.721 325.255 198.553L323.863 195.313C326.295 194.609 328.271 193.729 329.791 192.673C331.327 191.601 332.487 190.297 333.271 188.761C334.055 187.209 334.535 185.345 334.711 183.169H320.647V180.073H336.271C336.031 179.609 335.727 179.081 335.359 178.489L337.159 177.721ZM364.326 188.233C363.59 190.505 362.558 192.521 361.23 194.281C359.902 196.025 358.318 197.281 356.478 198.049H353.55L353.574 178.657H356.742V194.329C357.702 193.609 358.574 192.657 359.358 191.473C360.158 190.289 360.894 188.689 361.566 186.673L364.326 188.233ZM347.334 178.777H350.502V185.809C350.502 188.977 350.03 191.545 349.086 193.513C348.158 195.481 346.766 197.169 344.91 198.577L342.726 195.865C344.31 194.745 345.47 193.433 346.206 191.929C346.958 190.425 347.334 188.425 347.334 185.929V178.777Z" fill="#385FCC"/>
<path d="M341.204 87.2965L346.793 77.6094H365.407L341.204 119.527L317 77.6094H335.615L341.204 87.2965Z" fill="#385FCC"/>
<path d="M340.804 162.409C352.384 162.409 361.772 153.022 361.772 141.441C361.772 129.861 352.384 120.473 340.804 120.473C329.223 120.473 319.835 129.861 319.835 141.441C319.835 153.022 329.223 162.409 340.804 162.409Z" fill="#385FCC"/>
</g>
<defs>
<clipPath id="clip0_5956_26394">
<rect width="385" height="216.703" fill="white"/>
</clipPath>
</defs>
</svg>
