<svg width="385" height="217" viewBox="0 0 385 217" fill="none" xmlns="http://www.w3.org/2000/svg">
<rect width="385" height="216.703" fill="#FFDAFF"/>
<path d="M34.8003 60.5C24.6503 60.5 20.7003 55.15 20.7003 47.25V45.7H26.4003V47.3C26.4003 52.8 28.2503 55.3 34.8003 55.3C41.3503 55.3 43.3003 52.85 43.3003 47.55V26.5H48.9503V47.5C48.9503 55.2 45.0503 60.5 34.8003 60.5ZM65.4433 60.5C57.1933 60.5 51.6433 55.25 51.6433 47.6C51.6433 39.85 57.1933 34.65 65.4433 34.65C73.7433 34.65 79.2933 39.85 79.2933 47.6C79.2933 55.25 73.7433 60.5 65.4433 60.5ZM65.4433 55.7C71.4933 55.7 73.9933 52.85 73.9933 47.6C73.9933 42.3 71.4933 39.4 65.4433 39.4C59.4433 39.4 56.9433 42.3 56.9433 47.6C56.9433 52.85 59.4433 55.7 65.4433 55.7ZM87.612 32.25H82.212V26.5H87.612V32.25ZM87.612 60H82.212V35.15H87.612V60ZM97.0124 60H91.6124V35.15H96.5624V42.85H96.9124C97.6624 38.65 100.962 34.65 107.262 34.65C114.162 34.65 117.562 39.3 117.562 45.05V60H112.162V46.5C112.162 41.85 110.062 39.5 104.912 39.5C99.4624 39.5 97.0124 42.3 97.0124 47.7V60ZM139.269 60.5C132.269 60.5 128.869 55.85 128.869 50.1V35.15H134.219V48.65C134.219 53.3 136.369 55.65 141.619 55.65C147.119 55.65 149.669 52.85 149.669 47.45V35.15H155.019V60H150.069V52.3H149.769C148.969 56.5 145.669 60.5 139.269 60.5ZM170.675 60.5C162.675 60.5 158.125 57.35 158.125 51.6V51.45H163.525V51.85C163.525 55.1 165.475 56.15 170.675 56.15C175.525 56.15 176.975 55.15 176.975 52.95C176.975 50.9 175.775 50.25 172.225 49.75L165.425 48.85C160.725 48.25 157.875 46.25 157.875 42.1C157.875 37.75 161.825 34.65 169.475 34.65C177.075 34.65 181.675 37.7 181.675 43.6V43.75H176.325V43.45C176.325 40.5 174.825 38.95 169.325 38.95C164.775 38.95 163.175 39.95 163.175 42.3C163.175 44.25 164.175 44.95 167.925 45.45L173.675 46.25C179.575 47 182.275 49 182.275 53.1C182.275 57.75 177.675 60.5 170.675 60.5ZM29.5003 110.5C24.3503 110.5 21.1003 108.1 21.1003 104C21.1003 100.15 24.2003 98.15 29.1003 97.6L40.4003 96.4V94.95C40.4003 90.85 38.6003 89.4 33.8503 89.4C29.2503 89.4 27.0003 90.9 27.0003 94.55V94.75H21.6503V94.55C21.6503 88.9 26.3503 84.65 34.2503 84.65C42.1503 84.65 45.7003 88.95 45.7003 94.9V110H40.7503V103.8H40.4003C39.1003 108 35.1503 110.5 29.5003 110.5ZM26.5003 103.65C26.5003 105.65 27.8503 106.6 30.9503 106.6C36.6003 106.6 40.4003 104.5 40.4003 99.6L30.6503 100.7C27.8503 101.05 26.5003 101.7 26.5003 103.65ZM61.2706 110.5C53.2706 110.5 48.7206 107.35 48.7206 101.6V101.45H54.1206V101.85C54.1206 105.1 56.0706 106.15 61.2706 106.15C66.1206 106.15 67.5706 105.15 67.5706 102.95C67.5706 100.9 66.3706 100.25 62.8206 99.75L56.0206 98.85C51.3206 98.25 48.4706 96.25 48.4706 92.1C48.4706 87.75 52.4206 84.65 60.0706 84.65C67.6706 84.65 72.2706 87.7 72.2706 93.6V93.75H66.9206V93.45C66.9206 90.5 65.4206 88.95 59.9206 88.95C55.3706 88.95 53.7706 89.95 53.7706 92.3C53.7706 94.25 54.7706 94.95 58.5206 95.45L64.2706 96.25C70.1706 97 72.8706 99 72.8706 103.1C72.8706 107.75 68.2706 110.5 61.2706 110.5ZM90.6116 110.5C85.4616 110.5 82.2116 108.1 82.2116 104C82.2116 100.15 85.3116 98.15 90.2116 97.6L101.512 96.4V94.95C101.512 90.85 99.7116 89.4 94.9616 89.4C90.3616 89.4 88.1116 90.9 88.1116 94.55V94.75H82.7616V94.55C82.7616 88.9 87.4616 84.65 95.3616 84.65C103.262 84.65 106.812 88.95 106.812 94.9V110H101.862V103.8H101.512C100.212 108 96.2616 110.5 90.6116 110.5ZM87.6116 103.65C87.6116 105.65 88.9616 106.6 92.0616 106.6C97.7116 106.6 101.512 104.5 101.512 99.6L91.7616 100.7C88.9616 101.05 87.6116 101.7 87.6116 103.65ZM41.4003 160H33.7503L19.4503 126.5H25.8503L37.4503 154.55H37.8503L49.3503 126.5H55.7003L41.4003 160ZM69.6913 160.5C61.4413 160.5 55.8913 155.25 55.8913 147.6C55.8913 139.85 61.4413 134.65 69.6913 134.65C77.9913 134.65 83.5413 139.85 83.5413 147.6C83.5413 155.25 77.9913 160.5 69.6913 160.5ZM69.6913 155.7C75.7413 155.7 78.2413 152.85 78.2413 147.6C78.2413 142.3 75.7413 139.4 69.6913 139.4C63.6913 139.4 61.1913 142.3 61.1913 147.6C61.1913 152.85 63.6913 155.7 69.6913 155.7ZM91.8601 160H86.4601V126.5H91.8601V160ZM106.21 160.5C99.2105 160.5 95.8105 155.85 95.8105 150.1V135.15H101.16V148.65C101.16 153.3 103.31 155.65 108.56 155.65C114.06 155.65 116.61 152.85 116.61 147.45V135.15H121.96V160H117.01V152.3H116.71C115.91 156.5 112.61 160.5 106.21 160.5ZM131.266 160H125.866V135.15H130.816V142.85H131.166C131.916 138.65 135.216 134.65 141.516 134.65C148.416 134.65 151.816 139.3 151.816 145.05V160H146.416V146.5C146.416 141.85 144.316 139.5 139.166 139.5C133.716 139.5 131.266 142.3 131.266 147.7V160ZM171.928 160H166.228C160.878 160 157.578 157.65 157.578 151.6V139.65H153.378V135.15H157.578V129.7H162.928V135.15H171.928V139.65H162.928V151.3C162.928 154.35 164.328 155.15 167.428 155.15H171.928V160ZM186.806 160.5C178.656 160.5 173.306 155.9 173.306 147.6C173.306 139.85 178.606 134.65 186.706 134.65C194.406 134.65 199.656 138.9 199.656 146.45C199.656 147.35 199.606 148.05 199.456 148.8H178.356C178.556 153.6 180.906 156.15 186.656 156.15C191.856 156.15 194.006 154.45 194.006 151.5V151.1H199.406V151.55C199.406 156.85 194.206 160.5 186.806 160.5ZM186.606 138.9C181.106 138.9 178.706 141.35 178.406 145.8H194.556V145.7C194.556 141.1 191.906 138.9 186.606 138.9ZM215.2 160.5C207.05 160.5 201.7 155.9 201.7 147.6C201.7 139.85 207 134.65 215.1 134.65C222.8 134.65 228.05 138.9 228.05 146.45C228.05 147.35 228 148.05 227.85 148.8H206.75C206.95 153.6 209.3 156.15 215.05 156.15C220.25 156.15 222.4 154.45 222.4 151.5V151.1H227.8V151.55C227.8 156.85 222.6 160.5 215.2 160.5ZM215 138.9C209.5 138.9 207.1 141.35 206.8 145.8H222.95V145.7C222.95 141.1 220.3 138.9 215 138.9ZM236.495 160H231.095V135.15H236.045V141.85H236.395C237.145 137.85 239.845 134.65 244.945 134.65C250.595 134.65 253.045 138.7 253.045 143.4V146.65H247.695V144.45C247.695 140.9 246.195 139.25 242.495 139.25C238.245 139.25 236.495 141.6 236.495 146.05V160Z" fill="#385FCC"/>
<path d="M99.0059 180.841C98.4459 179.369 97.9339 178.169 97.4699 177.241L99.3899 176.617C100.014 177.865 100.526 179.065 100.926 180.217L99.0059 180.841ZM95.7659 181.489C95.2539 180.081 94.7339 178.873 94.2059 177.865L96.1499 177.241C96.7259 178.377 97.2379 179.585 97.6859 180.865L95.7659 181.489ZM84.5579 198.457L83.7899 195.481H87.3659V184.537H79.1099V181.537H87.3419V178.057H90.5579V181.537H98.7899V184.537H90.5579V195.457C90.5579 196.481 90.3099 197.233 89.8139 197.713C89.3339 198.209 88.5579 198.457 87.4859 198.457H84.5579ZM78.2699 194.401C79.0059 193.249 79.6539 191.969 80.2139 190.561C80.7899 189.153 81.2539 187.697 81.6059 186.193L84.6779 186.985C84.3099 188.585 83.8299 190.177 83.2379 191.761C82.6459 193.329 81.9899 194.737 81.2699 195.985L78.2699 194.401ZM96.4859 195.985C94.9019 192.833 93.7179 189.865 92.9339 187.081L96.0779 186.193C96.7819 188.753 97.9099 191.497 99.4619 194.425L96.4859 195.985ZM106.11 178.825H120.318V181.849H106.11V178.825ZM103.83 184.681H122.286C122.27 188.505 121.206 191.561 119.094 193.849C116.982 196.121 113.982 197.617 110.094 198.337L108.678 195.289C111.702 194.777 114.022 193.897 115.638 192.649C117.27 191.401 118.342 189.753 118.854 187.705H103.83V184.681ZM135.342 185.737C133.23 184.249 130.862 182.905 128.238 181.705L129.942 178.753C131.078 179.265 132.286 179.881 133.566 180.601C134.846 181.321 136.078 182.073 137.262 182.857L135.342 185.737ZM128.718 194.161C131.534 193.665 133.886 192.937 135.774 191.977C137.662 191.017 139.262 189.729 140.574 188.113C141.886 186.481 143.062 184.385 144.102 181.825L147.054 183.697C145.95 186.369 144.63 188.625 143.094 190.465C141.558 192.305 139.694 193.809 137.502 194.977C135.326 196.129 132.71 196.993 129.654 197.569L128.718 194.161ZM153.51 178.705H169.35V181.777H153.51V178.705ZM171.51 184.777V187.849H163.182V188.857C163.182 191.065 162.606 193.001 161.454 194.665C160.318 196.313 158.646 197.609 156.438 198.553L154.686 195.673C156.574 194.873 157.934 193.929 158.766 192.841C159.598 191.753 160.014 190.425 160.014 188.857V187.849H151.35V184.777H171.51ZM192.774 184.177C191.062 185.809 189.182 187.273 187.134 188.569V198.841H184.158V190.297C182.094 191.385 179.894 192.353 177.558 193.201L176.31 190.393C178.966 189.545 181.566 188.377 184.11 186.889C186.654 185.385 188.862 183.729 190.734 181.921L192.774 184.177ZM199.71 179.353H218.91V182.257C218.334 183.825 217.422 185.273 216.174 186.601C214.926 187.913 213.438 189.057 211.71 190.033L210.006 187.705C209.974 189.545 209.67 191.121 209.094 192.433C208.534 193.745 207.71 194.865 206.622 195.793C205.534 196.705 204.142 197.521 202.446 198.241L200.598 195.361C202.102 194.769 203.286 194.137 204.15 193.465C205.03 192.793 205.67 191.977 206.07 191.017C206.486 190.041 206.694 188.825 206.694 187.369V184.345H210.006V187.201C211.254 186.609 212.358 185.897 213.318 185.065C214.278 184.233 215.014 183.353 215.526 182.425H199.71V179.353ZM236.646 189.745C238.95 191.409 241.214 193.313 243.438 195.457L241.398 198.025C239.19 195.801 236.902 193.849 234.534 192.169C232.006 194.713 228.83 196.673 225.006 198.049L223.326 195.073C230.414 192.609 234.822 188.457 236.55 182.617H225.222V179.497H240.246C240.246 180.777 240.022 182.217 239.574 183.817C238.966 185.945 237.99 187.921 236.646 189.745ZM266.43 180.865C266.318 183.889 265.67 186.593 264.486 188.977C263.318 191.361 261.662 193.369 259.518 195.001C257.39 196.617 254.838 197.809 251.862 198.577L250.374 195.553C253.702 194.721 256.35 193.465 258.318 191.785C256.91 190.617 255.318 189.409 253.542 188.161L255.51 185.929C257.254 187.113 258.91 188.305 260.478 189.505C261.678 187.873 262.51 185.969 262.974 183.793H255.078C254.374 184.865 253.59 185.849 252.726 186.745C251.878 187.625 250.806 188.529 249.51 189.457L247.47 186.865C249.182 185.681 250.614 184.337 251.766 182.833C252.918 181.329 253.846 179.649 254.55 177.793L257.67 178.657C257.286 179.617 256.95 180.353 256.662 180.865H266.43ZM279.366 189.409C279.078 187.793 278.534 185.681 277.734 183.073L280.662 182.425C281.366 184.889 281.894 186.985 282.246 188.713L279.366 189.409ZM276.366 196.417C278.526 195.521 280.262 194.497 281.574 193.345C282.902 192.193 283.926 190.793 284.646 189.145C285.366 187.481 285.862 185.409 286.134 182.929L289.158 183.385C288.838 186.073 288.254 188.393 287.406 190.345C286.574 192.297 285.398 193.993 283.878 195.433C282.374 196.873 280.438 198.121 278.07 199.177L276.366 196.417ZM274.086 190.561C273.606 188.401 273.006 186.249 272.286 184.105L275.19 183.337C275.878 185.353 276.486 187.505 277.014 189.793L274.086 190.561ZM313.169 179.617C313.201 183.089 312.793 186.057 311.945 188.521C311.097 190.969 309.729 192.993 307.841 194.593C305.969 196.177 303.489 197.345 300.401 198.097L298.913 195.001C301.425 194.409 303.441 193.585 304.961 192.529C306.497 191.473 307.633 190.153 308.369 188.569C309.121 186.985 309.585 185.041 309.761 182.737H295.481V179.617H313.169ZM325.937 181.249H323.297V180.337H317.801V178.105H323.297V177.169H325.937V178.105H331.097V177.169H333.785V178.105H339.641V180.337H333.785V181.249H331.097V180.337H325.937V181.249ZM339.329 195.217C338.321 195.041 337.337 194.809 336.377 194.521C336.377 195.273 336.369 195.841 336.353 196.225C336.337 196.609 336.313 196.945 336.281 197.233C336.201 197.713 336.049 198.089 335.825 198.361C335.617 198.633 335.281 198.825 334.817 198.937C334.369 199.065 333.745 199.129 332.945 199.129H329.561L328.985 196.993H332.945C333.217 196.993 333.401 196.961 333.497 196.897C333.609 196.833 333.689 196.713 333.737 196.537C333.785 196.345 333.809 195.961 333.809 195.385H329.009C328.641 196.569 327.729 197.473 326.273 198.097C324.833 198.737 322.793 199.193 320.153 199.465L319.457 197.305C321.489 197.065 323.017 196.817 324.041 196.561C325.081 196.289 325.809 195.897 326.225 195.385H321.521V194.425C320.513 194.761 319.393 195.025 318.161 195.217L317.225 193.081C318.697 192.841 319.897 192.609 320.825 192.385C321.769 192.145 322.545 191.881 323.153 191.593H317.705V189.457H325.457C325.569 189.281 325.697 189.041 325.841 188.737H320.297V181.729H337.145V188.737H328.649C328.521 188.977 328.377 189.217 328.217 189.457H339.737V191.593H334.625C335.201 191.881 335.929 192.145 336.809 192.385C337.689 192.625 338.809 192.865 340.169 193.105L339.329 195.217ZM334.481 183.649H322.913V184.369H334.481V183.649ZM334.481 186.049H322.913V186.817H334.481V186.049ZM329.201 193.369H333.449C332.425 192.825 331.585 192.233 330.929 191.593H326.441C325.785 192.233 324.969 192.825 323.993 193.369H326.729V192.073H329.201V193.369ZM355.409 193.609C356.177 194.201 357.249 194.729 358.625 195.193C360.017 195.657 361.817 196.121 364.025 196.585L363.065 199.057L361.793 198.697C360.001 198.201 358.657 197.785 357.761 197.449C356.865 197.129 356.105 196.721 355.481 196.225C354.873 195.729 354.433 195.081 354.161 194.281H353.921V199.417H351.137V194.281H350.897C350.625 195.113 350.193 195.777 349.601 196.273C349.009 196.769 348.273 197.177 347.393 197.497C346.529 197.833 345.201 198.257 343.409 198.769L342.377 199.057L341.393 196.561C343.489 196.081 345.201 195.617 346.529 195.169C347.873 194.705 348.913 194.185 349.649 193.609H341.897V191.257H351.137V190.249H344.057V184.729C343.641 185.097 343.249 185.417 342.881 185.689L341.249 183.433C342.433 182.553 343.457 181.561 344.321 180.457C345.201 179.353 345.897 178.169 346.409 176.905L349.121 177.697C348.961 178.129 348.769 178.569 348.545 179.017H352.769C353.121 178.409 353.425 177.753 353.681 177.049L356.489 177.457C356.297 177.953 356.057 178.473 355.769 179.017H362.609V181.177H355.289V182.233H361.985V184.129H355.289V185.185H361.985V187.081H355.289V188.137H362.777V190.249H353.921V191.257H363.545V193.609H355.409ZM352.529 181.177H347.249C347.201 181.241 347.145 181.313 347.081 181.393C347.017 181.473 346.945 181.577 346.865 181.705V182.233H352.529V181.177ZM346.865 185.185H352.529V184.129H346.865V185.185ZM352.529 187.081H346.865V188.137H352.529V187.081Z" fill="#385FCC"/>
<path d="M341.204 38.2965L346.793 28.6094H365.407L341.204 70.5273L317 28.6094H335.615L341.204 38.2965Z" fill="#385FCC"/>
<path d="M341.749 113.409C353.329 113.409 362.717 104.022 362.717 92.441C362.717 80.8605 353.329 71.4727 341.749 71.4727C330.168 71.4727 320.78 80.8605 320.78 92.441C320.78 104.022 330.168 113.409 341.749 113.409Z" fill="#385FCC"/>
</svg>
