<svg width="684" height="385" viewBox="0 0 684 385" fill="none" xmlns="http://www.w3.org/2000/svg">
<rect width="684" height="385" fill="#FFDAFF"/>
<path d="M57.7441 91.7202C43.1281 91.7202 37.4401 84.0162 37.4401 72.6402V70.4082H45.6481V72.7122C45.6481 80.6322 48.3121 84.2322 57.7441 84.2322C67.1761 84.2322 69.9841 80.7042 69.9841 73.0722V42.7602H78.1201V73.0002C78.1201 84.0882 72.5041 91.7202 57.7441 91.7202ZM101.87 91.7202C89.9899 91.7202 81.9979 84.1602 81.9979 73.1442C81.9979 61.9842 89.9899 54.4962 101.87 54.4962C113.822 54.4962 121.814 61.9842 121.814 73.1442C121.814 84.1602 113.822 91.7202 101.87 91.7202ZM101.87 84.8082C110.582 84.8082 114.182 80.7042 114.182 73.1442C114.182 65.5122 110.582 61.3362 101.87 61.3362C93.2299 61.3362 89.6299 65.5122 89.6299 73.1442C89.6299 80.7042 93.2299 84.8082 101.87 84.8082ZM133.793 51.0402H126.017V42.7602H133.793V51.0402ZM133.793 91.0002H126.017V55.2162H133.793V91.0002ZM147.329 91.0002H139.553V55.2162H146.681V66.3042H147.185C148.265 60.2562 153.018 54.4962 162.089 54.4962C172.026 54.4962 176.921 61.1922 176.921 69.4722V91.0002H169.146V71.5602C169.146 64.8642 166.122 61.4802 158.705 61.4802C150.858 61.4802 147.329 65.5122 147.329 73.2882V91.0002ZM208.179 91.7202C198.099 91.7202 193.203 85.0242 193.203 76.7442V55.2162H200.907V74.6562C200.907 81.3522 204.003 84.7362 211.563 84.7362C219.483 84.7362 223.155 80.7042 223.155 72.9282V55.2162H230.859V91.0002H223.731V79.9122H223.299C222.147 85.9602 217.395 91.7202 208.179 91.7202ZM253.404 91.7202C241.883 91.7202 235.331 87.1842 235.331 78.9042V78.6882H243.107V79.2642C243.107 83.9442 245.915 85.4562 253.404 85.4562C260.388 85.4562 262.476 84.0162 262.476 80.8482C262.476 77.8962 260.748 76.9602 255.636 76.2402L245.843 74.9442C239.075 74.0802 234.971 71.2002 234.971 65.2242C234.971 58.9602 240.659 54.4962 251.675 54.4962C262.62 54.4962 269.243 58.8882 269.243 67.3842V67.6002H261.54V67.1682C261.54 62.9202 259.38 60.6882 251.46 60.6882C244.907 60.6882 242.603 62.1282 242.603 65.5122C242.603 68.3202 244.043 69.3282 249.443 70.0482L257.724 71.2002C266.22 72.2802 270.108 75.1602 270.108 81.0642C270.108 87.7602 263.484 91.7202 253.404 91.7202ZM50.1121 163.72C42.6961 163.72 38.0161 160.264 38.0161 154.36C38.0161 148.816 42.4801 145.936 49.5361 145.144L65.8081 143.416V141.328C65.8081 135.424 63.2161 133.336 56.3761 133.336C49.7521 133.336 46.5121 135.496 46.5121 140.752V141.04H38.8081V140.752C38.8081 132.616 45.5761 126.496 56.9521 126.496C68.3281 126.496 73.4401 132.688 73.4401 141.256V163H66.3121V154.072H65.8081C63.9361 160.12 58.2481 163.72 50.1121 163.72ZM45.7921 153.856C45.7921 156.736 47.7361 158.104 52.2001 158.104C60.3361 158.104 65.8081 155.08 65.8081 148.024L51.7681 149.608C47.7361 150.112 45.7921 151.048 45.7921 153.856ZM95.8613 163.72C84.3413 163.72 77.7893 159.184 77.7893 150.904V150.688H85.5653V151.264C85.5653 155.944 88.3733 157.456 95.8613 157.456C102.845 157.456 104.933 156.016 104.933 152.848C104.933 149.896 103.205 148.96 98.0933 148.24L88.3013 146.944C81.5333 146.08 77.4293 143.2 77.4293 137.224C77.4293 130.96 83.1173 126.496 94.1333 126.496C105.077 126.496 111.701 130.888 111.701 139.384V139.6H103.997V139.168C103.997 134.92 101.837 132.688 93.9173 132.688C87.3653 132.688 85.0613 134.128 85.0613 137.512C85.0613 140.32 86.5013 141.328 91.9013 142.048L100.181 143.2C108.677 144.28 112.565 147.16 112.565 153.064C112.565 159.76 105.941 163.72 95.8613 163.72ZM138.112 163.72C130.696 163.72 126.016 160.264 126.016 154.36C126.016 148.816 130.48 145.936 137.536 145.144L153.808 143.416V141.328C153.808 135.424 151.216 133.336 144.376 133.336C137.752 133.336 134.512 135.496 134.512 140.752V141.04H126.808V140.752C126.808 132.616 133.576 126.496 144.952 126.496C156.328 126.496 161.44 132.688 161.44 141.256V163H154.312V154.072H153.808C151.936 160.12 146.248 163.72 138.112 163.72ZM133.792 153.856C133.792 156.736 135.736 158.104 140.2 158.104C148.336 158.104 153.808 155.08 153.808 148.024L139.768 149.608C135.736 150.112 133.792 151.048 133.792 153.856ZM205.454 163H194.438L173.846 114.76H183.062L199.766 155.152H200.342L216.902 114.76H226.046L205.454 163ZM246.193 163.72C234.313 163.72 226.321 156.16 226.321 145.144C226.321 133.984 234.313 126.496 246.193 126.496C258.145 126.496 266.137 133.984 266.137 145.144C266.137 156.16 258.145 163.72 246.193 163.72ZM246.193 156.808C254.905 156.808 258.505 152.704 258.505 145.144C258.505 137.512 254.905 133.336 246.193 133.336C237.553 133.336 233.953 137.512 233.953 145.144C233.953 152.704 237.553 156.808 246.193 156.808ZM278.116 163H270.34V114.76H278.116V163ZM298.781 163.72C288.701 163.72 283.805 157.024 283.805 148.744V127.216H291.509V146.656C291.509 153.352 294.605 156.736 302.165 156.736C310.085 156.736 313.757 152.704 313.757 144.928V127.216H321.461V163H314.333V151.912H313.901C312.749 157.96 307.997 163.72 298.781 163.72ZM334.861 163H327.085V127.216H334.213V138.304H334.717C335.797 132.256 340.549 126.496 349.621 126.496C359.557 126.496 364.453 133.192 364.453 141.472V163H356.677V143.56C356.677 136.864 353.653 133.48 346.237 133.48C338.389 133.48 334.861 137.512 334.861 145.288V163ZM393.414 163H385.206C377.502 163 372.75 159.616 372.75 150.904V133.696H366.702V127.216H372.75V119.368H380.454V127.216H393.414V133.696H380.454V150.472C380.454 154.864 382.47 156.016 386.934 156.016H393.414V163ZM414.838 163.72C403.102 163.72 395.398 157.096 395.398 145.144C395.398 133.984 403.03 126.496 414.694 126.496C425.782 126.496 433.342 132.616 433.342 143.488C433.342 144.784 433.27 145.792 433.054 146.872H402.67C402.958 153.784 406.342 157.456 414.622 157.456C422.11 157.456 425.206 155.008 425.206 150.76V150.184H432.982V150.832C432.982 158.464 425.494 163.72 414.838 163.72ZM414.55 132.616C406.63 132.616 403.174 136.144 402.742 142.552H425.998V142.408C425.998 135.784 422.182 132.616 414.55 132.616ZM455.726 163.72C443.99 163.72 436.286 157.096 436.286 145.144C436.286 133.984 443.918 126.496 455.582 126.496C466.67 126.496 474.23 132.616 474.23 143.488C474.23 144.784 474.158 145.792 473.942 146.872H443.558C443.846 153.784 447.23 157.456 455.51 157.456C462.998 157.456 466.094 155.008 466.094 150.76V150.184H473.87V150.832C473.87 158.464 466.382 163.72 455.726 163.72ZM455.438 132.616C447.518 132.616 444.062 136.144 443.63 142.552H466.886V142.408C466.886 135.784 463.07 132.616 455.438 132.616ZM486.39 163H478.614V127.216H485.742V136.864H486.246C487.326 131.104 491.214 126.496 498.558 126.496C506.694 126.496 510.222 132.328 510.222 139.096V143.776H502.518V140.608C502.518 135.496 500.358 133.12 495.03 133.12C488.91 133.12 486.39 136.504 486.39 142.912V163Z" fill="#385FCC"/>
<path d="M294.713 326.952C293.966 324.99 293.284 323.39 292.665 322.152L295.225 321.32C296.057 322.984 296.74 324.584 297.273 326.12L294.713 326.952ZM290.393 327.816C289.71 325.939 289.017 324.328 288.313 322.984L290.905 322.152C291.673 323.667 292.356 325.278 292.953 326.984L290.393 327.816ZM275.449 350.44L274.425 346.472H279.193V331.88H268.185V327.88H279.161V323.24H283.449V327.88H294.425V331.88H283.449V346.44C283.449 347.806 283.118 348.808 282.457 349.448C281.817 350.11 280.782 350.44 279.353 350.44H275.449ZM267.065 345.032C268.046 343.496 268.91 341.79 269.657 339.912C270.425 338.035 271.044 336.094 271.513 334.088L275.609 335.144C275.118 337.278 274.478 339.4 273.689 341.512C272.9 343.603 272.025 345.48 271.065 347.144L267.065 345.032ZM291.353 347.144C289.241 342.942 287.662 338.984 286.617 335.272L290.809 334.088C291.748 337.502 293.252 341.16 295.321 345.064L291.353 347.144ZM304.185 324.264H323.129V328.296H304.185V324.264ZM301.145 332.072H325.753C325.732 337.171 324.313 341.246 321.497 344.296C318.681 347.326 314.681 349.32 309.497 350.28L307.609 346.216C311.641 345.534 314.734 344.36 316.889 342.696C319.065 341.032 320.494 338.835 321.177 336.104H301.145V332.072ZM343.161 333.48C340.345 331.496 337.188 329.704 333.689 328.104L335.961 324.168C337.476 324.851 339.086 325.672 340.793 326.632C342.5 327.592 344.142 328.595 345.721 329.64L343.161 333.48ZM334.329 344.712C338.084 344.051 341.22 343.08 343.737 341.8C346.254 340.52 348.388 338.803 350.137 336.648C351.886 334.472 353.454 331.678 354.841 328.264L358.777 330.76C357.305 334.323 355.545 337.331 353.497 339.784C351.449 342.238 348.964 344.243 346.041 345.8C343.14 347.336 339.652 348.488 335.577 349.256L334.329 344.712ZM367.385 324.104H388.505V328.2H367.385V324.104ZM391.385 332.2V336.296H380.281V337.64C380.281 340.584 379.513 343.166 377.977 345.384C376.462 347.582 374.233 349.31 371.289 350.568L368.953 346.728C371.47 345.662 373.284 344.403 374.393 342.952C375.502 341.502 376.057 339.731 376.057 337.64V336.296H364.505V332.2H391.385ZM419.737 331.4C417.454 333.576 414.948 335.528 412.217 337.256V350.952H408.249V339.56C405.497 341.011 402.564 342.302 399.449 343.432L397.785 339.688C401.326 338.558 404.793 337 408.185 335.016C411.577 333.011 414.521 330.803 417.017 328.392L419.737 331.4ZM428.985 324.968H454.585V328.84C453.817 330.931 452.601 332.862 450.937 334.632C449.273 336.382 447.289 337.907 444.985 339.208L442.713 336.104C442.67 338.558 442.265 340.659 441.497 342.408C440.75 344.158 439.652 345.651 438.201 346.888C436.75 348.104 434.894 349.192 432.633 350.152L430.169 346.312C432.174 345.523 433.753 344.68 434.905 343.784C436.078 342.888 436.932 341.8 437.465 340.52C438.02 339.219 438.297 337.598 438.297 335.656V331.624H442.713V335.432C444.377 334.643 445.849 333.694 447.129 332.584C448.409 331.475 449.39 330.302 450.073 329.064H428.985V324.968ZM478.233 338.824C481.305 341.043 484.324 343.582 487.289 346.44L484.569 349.864C481.625 346.899 478.574 344.296 475.417 342.056C472.046 345.448 467.812 348.062 462.713 349.896L460.473 345.928C469.924 342.643 475.801 337.107 478.105 329.32H463.001V325.16H483.033C483.033 326.867 482.734 328.787 482.137 330.92C481.326 333.758 480.025 336.392 478.233 338.824ZM517.945 326.984C517.796 331.016 516.932 334.622 515.353 337.8C513.796 340.979 511.588 343.656 508.729 345.832C505.892 347.987 502.489 349.576 498.521 350.6L496.537 346.568C500.974 345.459 504.505 343.784 507.129 341.544C505.252 339.987 503.129 338.376 500.761 336.712L503.385 333.736C505.71 335.315 507.918 336.904 510.009 338.504C511.609 336.328 512.718 333.79 513.337 330.888H502.809C501.87 332.318 500.825 333.63 499.673 334.824C498.542 335.998 497.113 337.203 495.385 338.44L492.665 334.984C494.948 333.406 496.857 331.614 498.393 329.608C499.929 327.603 501.166 325.363 502.105 322.888L506.265 324.04C505.753 325.32 505.305 326.302 504.921 326.984H517.945ZM535.193 338.376C534.809 336.222 534.084 333.406 533.017 329.928L536.921 329.064C537.86 332.35 538.564 335.144 539.033 337.448L535.193 338.376ZM531.193 347.72C534.073 346.526 536.388 345.16 538.137 343.624C539.908 342.088 541.273 340.222 542.233 338.024C543.193 335.806 543.854 333.043 544.217 329.736L548.249 330.344C547.822 333.928 547.044 337.022 545.913 339.624C544.804 342.227 543.236 344.488 541.209 346.408C539.204 348.328 536.622 349.992 533.465 351.4L531.193 347.72ZM528.153 339.912C527.513 337.032 526.713 334.163 525.753 331.304L529.625 330.28C530.542 332.968 531.353 335.838 532.057 338.888L528.153 339.912ZM580.264 325.32C580.307 329.95 579.763 333.907 578.632 337.192C577.501 340.456 575.677 343.155 573.16 345.288C570.664 347.4 567.357 348.958 563.24 349.96L561.256 345.832C564.605 345.043 567.293 343.944 569.32 342.536C571.368 341.128 572.883 339.368 573.864 337.256C574.867 335.144 575.485 332.552 575.72 329.48H556.68V325.32H580.264ZM597.288 327.496H593.768V326.28H586.44V323.304H593.768V322.056H597.288V323.304H604.168V322.056H607.752V323.304H615.56V326.28H607.752V327.496H604.168V326.28H597.288V327.496ZM615.144 346.12C613.8 345.886 612.488 345.576 611.208 345.192C611.208 346.195 611.197 346.952 611.176 347.464C611.155 347.976 611.123 348.424 611.08 348.808C610.973 349.448 610.771 349.95 610.472 350.312C610.195 350.675 609.747 350.931 609.128 351.08C608.531 351.251 607.699 351.336 606.632 351.336H602.12L601.352 348.488H606.632C606.995 348.488 607.24 348.446 607.368 348.36C607.517 348.275 607.624 348.115 607.688 347.88C607.752 347.624 607.784 347.112 607.784 346.344H601.384C600.893 347.923 599.677 349.128 597.736 349.96C595.816 350.814 593.096 351.422 589.576 351.784L588.648 348.904C591.357 348.584 593.395 348.254 594.76 347.912C596.147 347.55 597.117 347.027 597.672 346.344H591.4V345.064C590.056 345.512 588.563 345.864 586.92 346.12L585.672 343.272C587.635 342.952 589.235 342.643 590.472 342.344C591.731 342.024 592.765 341.672 593.576 341.288H586.312V338.44H596.648C596.797 338.206 596.968 337.886 597.16 337.48H589.768V328.136H612.232V337.48H600.904C600.733 337.8 600.541 338.12 600.328 338.44H615.688V341.288H608.872C609.64 341.672 610.611 342.024 611.784 342.344C612.957 342.664 614.451 342.984 616.264 343.304L615.144 346.12ZM608.68 330.696H593.256V331.656H608.68V330.696ZM608.68 333.896H593.256V334.92H608.68V333.896ZM601.64 343.656H607.304C605.939 342.931 604.819 342.142 603.944 341.288H597.96C597.085 342.142 595.997 342.931 594.696 343.656H598.344V341.928H601.64V343.656ZM636.584 343.976C637.608 344.766 639.037 345.47 640.872 346.088C642.728 346.707 645.128 347.326 648.072 347.944L646.792 351.24L645.096 350.76C642.707 350.099 640.915 349.544 639.72 349.096C638.525 348.67 637.512 348.126 636.68 347.464C635.869 346.803 635.283 345.939 634.92 344.872H634.6V351.72H630.888V344.872H630.568C630.205 345.982 629.629 346.867 628.84 347.528C628.051 348.19 627.069 348.734 625.896 349.16C624.744 349.608 622.973 350.174 620.584 350.856L619.208 351.24L617.896 347.912C620.691 347.272 622.973 346.654 624.744 346.056C626.536 345.438 627.923 344.744 628.904 343.976H618.568V340.84H630.888V339.496H621.448V332.136C620.893 332.627 620.371 333.054 619.88 333.416L617.704 330.408C619.283 329.235 620.648 327.912 621.8 326.44C622.973 324.968 623.901 323.39 624.584 321.704L628.2 322.76C627.987 323.336 627.731 323.923 627.432 324.52H633.064C633.533 323.71 633.939 322.835 634.28 321.896L638.024 322.44C637.768 323.102 637.448 323.795 637.064 324.52H646.184V327.4H636.424V328.808H645.352V331.336H636.424V332.744H645.352V335.272H636.424V336.68H646.408V339.496H634.6V340.84H647.432V343.976H636.584ZM632.744 327.4H625.704C625.64 327.486 625.565 327.582 625.48 327.688C625.395 327.795 625.299 327.934 625.192 328.104V328.808H632.744V327.4ZM625.192 332.744H632.744V331.336H625.192V332.744ZM632.744 335.272H625.192V336.68H632.744V335.272Z" fill="#385FCC"/>
<path d="M69.0095 305.043L76.632 291.831H102.019L69.0095 349L36 291.831H61.387L69.0095 305.043Z" fill="#385FCC"/>
<path d="M123.761 348.194C139.555 348.194 152.358 335.391 152.358 319.597C152.358 303.803 139.555 291 123.761 291C107.967 291 95.1638 303.803 95.1638 319.597C95.1638 335.391 107.967 348.194 123.761 348.194Z" fill="#385FCC"/>
</svg>
