<svg width="500" height="281" viewBox="0 0 500 281" fill="none" xmlns="http://www.w3.org/2000/svg">
<rect width="500" height="281" fill="white"/>
<g clip-path="url(#clip0_824_11261)">
<path d="M134.736 219.457H137.145V231.206H144.154V233.304H134.736V219.477V219.457Z" fill="#565655"/>
<path d="M146.086 219.457H148.296V221.555H146.086V219.457ZM146.086 223.273H148.296V233.284H146.086V223.273Z" fill="#565655"/>
<path d="M150.526 223.273H152.617V224.752L152.656 224.792C153.314 223.693 154.449 223.014 155.763 223.014C157.933 223.014 159.287 224.173 159.287 226.43V233.304H157.097V227.01C157.057 225.451 156.44 224.772 155.146 224.772C153.672 224.772 152.736 225.931 152.736 227.409V233.324H150.526V223.313V223.273Z" fill="#565655"/>
<path d="M161.438 219.457H163.628V227.329L167.611 223.273H170.319L166.496 226.95L170.677 233.284H167.989L164.943 228.428L163.628 229.707V233.284H161.438V219.457Z" fill="#565655"/>
<path d="M185.094 231.066C185.094 231.605 185.213 231.825 185.611 231.825C185.751 231.825 185.93 231.825 186.149 231.785V233.304C185.83 233.424 185.133 233.563 184.755 233.563C183.859 233.563 183.242 233.264 183.063 232.345C182.186 233.204 180.793 233.563 179.618 233.563C177.826 233.563 176.193 232.604 176.193 230.646C176.193 228.149 178.184 227.729 180.036 227.529C181.629 227.25 183.023 227.409 183.023 226.111C183.023 224.972 181.848 224.752 180.952 224.752C179.717 224.752 178.861 225.251 178.762 226.33H176.551C176.711 223.753 178.881 222.994 181.091 222.994C183.043 222.994 185.074 223.793 185.074 225.891V231.046L185.094 231.066ZM182.883 228.269C182.206 228.708 181.151 228.688 180.175 228.868C179.239 229.028 178.383 229.367 178.383 230.526C178.383 231.505 179.638 231.805 180.414 231.805C181.39 231.805 182.883 231.306 182.883 229.907V228.269Z" fill="#565655"/>
<path d="M188.001 223.273H190.092V224.752L190.132 224.792C190.789 223.693 191.924 223.014 193.238 223.014C195.388 223.014 196.762 224.173 196.762 226.43V233.304H194.572V227.01C194.532 225.451 193.915 224.772 192.621 224.772C191.147 224.772 190.211 225.931 190.211 227.409V233.324H188.021V223.313L188.001 223.273Z" fill="#565655"/>
<path d="M208.65 233.284H206.559V231.925H206.519C205.942 233.064 204.687 233.543 203.433 233.543C200.287 233.543 198.753 231.206 198.753 228.209C198.753 224.592 200.904 222.994 203.074 222.994C204.329 222.994 205.723 223.453 206.4 224.552H206.44V219.437H208.65V233.264V233.284ZM203.731 231.825C205.703 231.825 206.519 230.027 206.519 228.268C206.519 226.051 205.464 224.752 203.771 224.752C201.7 224.752 200.984 226.59 200.984 228.388C200.984 230.187 201.84 231.825 203.751 231.825H203.731Z" fill="#565655"/>
<path d="M216.416 219.457H219.801L223.604 230.287H223.644L227.347 219.457H230.712V233.284H228.423V222.614H228.383L224.56 233.284H222.568L218.745 222.614H218.705V233.284H216.416V219.457Z" fill="#565655"/>
<path d="M232.604 228.269C232.604 225.212 234.436 223.014 237.642 223.014C240.848 223.014 242.68 225.232 242.68 228.269C242.68 231.306 240.848 233.563 237.642 233.563C234.436 233.563 232.604 231.366 232.604 228.269ZM240.47 228.269C240.47 226.55 239.594 224.752 237.642 224.752C235.691 224.752 234.815 226.55 234.815 228.269C234.815 229.987 235.691 231.825 237.642 231.825C239.594 231.825 240.47 230.027 240.47 228.269Z" fill="#565655"/>
<path d="M243.735 223.273H245.388V220.276H247.578V223.273H249.569V224.912H247.578V230.267C247.578 231.186 247.658 231.645 248.653 231.645C248.952 231.645 249.271 231.645 249.589 231.565V233.264C249.111 233.304 248.634 233.384 248.156 233.384C245.866 233.384 245.428 232.485 245.388 230.826V224.912H243.735V223.273Z" fill="#565655"/>
<path d="M252.118 219.457H254.309V221.555H252.118V219.457ZM252.118 223.273H254.309V233.284H252.118V223.273Z" fill="#565655"/>
<path d="M256.26 223.273H258.649L261.178 230.966H261.218L263.647 223.273H265.917L262.353 233.284H259.884L256.26 223.273Z" fill="#565655"/>
<path d="M275.794 231.066C275.794 231.605 275.913 231.825 276.312 231.825C276.451 231.825 276.61 231.825 276.849 231.785V233.304C276.531 233.424 275.834 233.563 275.455 233.563C274.559 233.563 273.922 233.264 273.763 232.345C272.887 233.204 271.473 233.563 270.298 233.563C268.506 233.563 266.893 232.604 266.893 230.646C266.893 228.149 268.884 227.729 270.736 227.529C272.309 227.25 273.723 227.409 273.723 226.111C273.723 224.972 272.548 224.752 271.652 224.752C270.418 224.752 269.561 225.251 269.462 226.33H267.251C267.411 223.753 269.581 222.994 271.791 222.994C273.743 222.994 275.794 223.793 275.794 225.891V231.046V231.066ZM273.603 228.269C272.926 228.708 271.871 228.688 270.895 228.868C269.96 229.028 269.103 229.367 269.103 230.526C269.103 231.505 270.358 231.805 271.134 231.805C272.11 231.805 273.603 231.306 273.603 229.907V228.269Z" fill="#565655"/>
<path d="M277.606 223.273H279.259V220.276H281.449V223.273H283.44V224.912H281.449V230.267C281.449 231.186 281.529 231.645 282.504 231.645C282.803 231.645 283.122 231.645 283.44 231.565V233.264C282.962 233.304 282.504 233.384 282.006 233.384C279.697 233.384 279.278 232.485 279.239 230.826V224.912H277.586V223.273H277.606Z" fill="#565655"/>
<path d="M285.79 219.457H288V221.555H285.79V219.457ZM285.79 223.273H288V233.284H285.79V223.273Z" fill="#565655"/>
<path d="M290.031 228.269C290.031 225.212 291.863 223.014 295.069 223.014C298.275 223.014 300.107 225.232 300.107 228.269C300.107 231.306 298.275 233.563 295.069 233.563C291.863 233.563 290.031 231.366 290.031 228.269ZM297.896 228.269C297.896 226.55 297.04 224.752 295.069 224.752C293.097 224.752 292.241 226.55 292.241 228.269C292.241 229.987 293.117 231.825 295.069 231.825C297.02 231.825 297.896 230.027 297.896 228.269Z" fill="#565655"/>
<path d="M302.217 223.273H304.308V224.752L304.348 224.792C305.005 223.693 306.14 223.014 307.454 223.014C309.605 223.014 310.979 224.173 310.979 226.43V233.304H308.788V227.01C308.748 225.451 308.131 224.772 306.837 224.772C305.363 224.772 304.428 225.931 304.428 227.409V233.324H302.217V223.313V223.273Z" fill="#565655"/>
<path d="M329.935 233.284H328.382L328.024 231.665C326.729 233.144 325.554 233.623 323.862 233.623C319.74 233.623 317.271 230.326 317.271 226.39C317.271 222.454 319.74 219.157 323.862 219.157C326.869 219.157 329.398 220.756 329.776 223.873H327.426C327.187 222.054 325.614 221.135 323.862 221.135C320.915 221.135 319.68 223.753 319.68 226.39C319.68 229.028 320.915 231.665 323.862 231.665C326.331 231.705 327.685 230.207 327.725 227.869H324.061V226.031H329.935V233.304V233.284Z" fill="#565655"/>
<path d="M332.305 223.273H334.356V225.212H334.395C334.654 224.133 335.968 222.994 337.303 222.994C337.8 222.994 337.94 223.034 338.139 223.054V225.192C337.84 225.152 337.502 225.092 337.183 225.092C335.69 225.092 334.495 226.31 334.495 228.528V233.284H332.285V223.273H332.305Z" fill="#565655"/>
<path d="M339.055 228.269C339.055 225.212 340.887 223.014 344.093 223.014C347.299 223.014 349.13 225.232 349.13 228.269C349.13 231.306 347.299 233.563 344.093 233.563C340.887 233.563 339.055 231.366 339.055 228.269ZM346.92 228.269C346.92 226.55 346.044 224.752 344.093 224.752C342.141 224.752 341.265 226.55 341.265 228.269C341.265 229.987 342.141 231.825 344.093 231.825C346.044 231.825 346.92 230.027 346.92 228.269Z" fill="#565655"/>
<path d="M359.843 233.284H357.673V231.885H357.633C357.095 232.884 355.901 233.543 354.805 233.543C352.197 233.543 351.082 232.225 351.082 229.607V223.253H353.272V229.387C353.272 231.146 353.989 231.785 355.184 231.785C357.016 231.785 357.633 230.606 357.633 229.048V223.233H359.843V233.244V233.284Z" fill="#565655"/>
<path d="M362.073 223.273H364.164V224.632H364.204C364.821 223.493 366.016 223.014 367.29 223.014C370.436 223.014 371.95 225.411 371.95 228.329C371.95 231.026 370.596 233.563 367.649 233.563C366.374 233.563 365 233.104 364.323 231.985H364.283V236.98H362.093V223.273H362.073ZM366.992 224.752C365.14 224.752 364.184 226.171 364.184 228.309C364.184 230.327 365.219 231.825 366.992 231.825C369.003 231.825 369.759 230.047 369.759 228.309C369.759 226.49 368.804 224.752 366.992 224.752Z" fill="#565655"/>
<path d="M175.019 123.85H134.716V132.441H176.273V123.85H175.019ZM173.764 126.367V129.964H137.225V126.367H173.784H173.764Z" fill="#DD294E"/>
<path d="M301.899 77.0752H294.273V122.311H303.134V77.0752H301.879H301.899ZM300.645 79.5728V119.794H296.782V79.5728H300.645Z" fill="#DD294E"/>
<path d="M288.179 90.1421H280.553V135.378H289.434V90.1421H288.179ZM286.925 92.6597V132.901H283.042V92.6597H286.925Z" fill="#DD294E"/>
<path d="M274.46 71.021H266.833V116.257H275.694V71.021H274.46ZM273.205 73.5386V113.76H269.323V73.5386H273.205Z" fill="#DD294E"/>
<path d="M260.741 58.4526H253.114V198.018H261.975V58.4526H260.721H260.741ZM259.486 60.9702V195.52H255.623V60.9702H259.486Z" fill="#DD294E"/>
<path d="M247.001 58.4526H239.375V198.018H248.255V58.4526H247.001ZM245.746 60.9702V195.52H241.864V60.9702H245.746Z" fill="#DD294E"/>
<path d="M233.242 58.4526H225.615V198.018H234.496V58.4526H233.242ZM232.007 60.9702V195.52H228.124V60.9702H232.007Z" fill="#DD294E"/>
<path d="M343.197 58.4526H335.59V198.018H344.451V58.4526H343.197ZM341.962 60.9702V195.52H338.079V60.9702H341.962Z" fill="#DD294E"/>
<path d="M343.197 58.4526H335.59V198.018H344.451V58.4526H343.197ZM341.962 60.9702V195.52H338.079V60.9702H341.962Z" fill="#DD294E"/>
<path d="M315.638 64.0073H308.012V109.244H316.873V64.0073H315.618H315.638ZM314.384 66.5049V106.746H310.501V66.5049H314.384Z" fill="#DD294E"/>
<path d="M356.956 58.4526H349.33V198.018H358.191V58.4526H356.936H356.956ZM355.702 60.9702V195.52H351.819V60.9702H355.702Z" fill="#DD294E"/>
<path d="M356.956 58.4526H349.33V198.018H358.191V58.4526H356.936H356.956ZM355.702 60.9702V195.52H351.819V60.9702H355.702Z" fill="#DD294E"/>
<path d="M329.378 51H321.751V96.2362H330.612V51H329.378ZM328.123 53.4976V93.7386H324.24V53.4976H328.123Z" fill="#DD294E"/>
<path d="M343.197 58.4526H335.59V198.018H344.451V58.4526H343.197ZM341.962 60.9702V195.52H338.079V60.9702H341.962Z" fill="#DD294E"/>
<path d="M370.696 58.4526H363.069V198.018H371.93V58.4526H370.676H370.696ZM369.441 60.9702V195.52H365.578V60.9702H369.441Z" fill="#DD294E"/>
<path d="M175.019 58.4326H134.716V67.0443H176.273V58.4326H175.019ZM173.764 60.9502V64.5467H137.225V60.9502H173.784H173.764Z" fill="#DD294E"/>
<path d="M175.019 71.4004H134.716V80.0121H176.273V71.4004H175.019ZM173.764 73.918V77.5145H137.225V73.918H173.784H173.764Z" fill="#DD294E"/>
<path d="M175.019 84.5078H134.716V93.1195H176.273V84.5078H175.019ZM173.764 87.0254V90.6219H137.225V87.0254H173.784H173.764Z" fill="#DD294E"/>
<path d="M175.019 97.6348H134.716V106.246H176.273V97.6348H175.019ZM173.764 100.132V103.729H137.225V100.132H173.784H173.764Z" fill="#DD294E"/>
<path d="M167.352 110.742H127.05V119.354H168.607V110.742H167.352ZM166.098 113.24V116.836H129.539V113.24H166.098Z" fill="#DD294E"/>
<path d="M175.019 123.85H134.716V132.441H176.273V123.85H175.019ZM173.764 126.367V129.964H137.225V126.367H173.784H173.764Z" fill="#DD294E"/>
<path d="M182.685 136.957H142.382V145.569H183.919V136.957H182.665H182.685ZM181.43 139.475V143.071H144.891V139.475H181.45H181.43Z" fill="#DD294E"/>
<path d="M175.019 150.084H134.716V158.696H176.273V150.084H175.019ZM173.764 152.582V156.178H137.225V152.582H173.784H173.764Z" fill="#DD294E"/>
<path d="M213.588 163.191H134.716V171.803H214.843V163.191H213.588ZM212.334 165.689V169.286H137.225V165.689H212.354H212.334Z" fill="#DD294E"/>
<path d="M213.588 176.299H134.716V184.91H214.843V176.299H213.588ZM212.334 178.816V182.413H137.225V178.816H212.354H212.334Z" fill="#DD294E"/>
<path d="M213.588 189.426H134.716V198.038H214.843V189.426H213.588ZM212.334 191.924V195.52H137.225V191.924H212.354H212.334Z" fill="#DD294E"/>
</g>
<defs>
<clipPath id="clip0_824_11261">
<rect width="244.9" height="186" fill="white" transform="translate(127.05 51)"/>
</clipPath>
</defs>
</svg>
