<svg width="48" height="38" viewBox="0 0 48 38" fill="none" xmlns="http://www.w3.org/2000/svg">
<path d="M42.667 0.333496H5.33366C2.75999 0.333496 0.666992 2.4265 0.666992 5.00016V33.0002C0.666992 35.5738 2.75999 37.6668 5.33366 37.6668H42.667C45.2407 37.6668 47.3337 35.5738 47.3337 33.0002V5.00016C47.3337 2.4265 45.2407 0.333496 42.667 0.333496ZM11.167 7.3335C12.0953 7.3335 12.9855 7.70225 13.6419 8.35862C14.2982 9.015 14.667 9.90524 14.667 10.8335C14.667 11.7618 14.2982 12.652 13.6419 13.3084C12.9855 13.9647 12.0953 14.3335 11.167 14.3335C10.2387 14.3335 9.3485 13.9647 8.69212 13.3084C8.03574 12.652 7.66699 11.7618 7.66699 10.8335C7.66699 9.90524 8.03574 9.015 8.69212 8.35862C9.3485 7.70225 10.2387 7.3335 11.167 7.3335ZM24.0003 30.6668H7.66699L17.0003 19.0002L20.5003 23.6668L27.5003 14.3335L40.3337 30.6668H24.0003Z" fill="#BBBBBB"/>
</svg>
