<svg width="301" height="56" viewBox="0 0 301 56" fill="none" xmlns="http://www.w3.org/2000/svg">
<g clip-path="url(#clip0_504_7465)">
<path d="M35.5493 0.728516H57.7607L28.8803 50.7925L0 0.728516H22.2113L28.8803 12.2869L35.5493 0.728516Z" fill="#F7E8E4" style="fill:#F7E8E4;fill:color(display-p3 0.9679 0.9110 0.8952);fill-opacity:1;"/>
<path d="M76.7831 50.0864C90.6012 50.0864 101.803 38.8742 101.803 25.0432C101.803 11.2122 90.6012 0 76.7831 0C62.965 0 51.7632 11.2122 51.7632 25.0432C51.7632 38.8742 62.965 50.0864 76.7831 50.0864Z" fill="#F7E8E4" style="fill:#F7E8E4;fill:color(display-p3 0.9679 0.9110 0.8952);fill-opacity:1;"/>
<path d="M123.555 21.6718L114.85 0.660645H120.523L126.823 16.9006H127.136L133.335 0.660645H138.975L130.269 21.6718H123.567H123.555Z" fill="#F7E8E4" style="fill:#F7E8E4;fill:color(display-p3 0.9679 0.9110 0.8952);fill-opacity:1;"/>
<path d="M138.963 15.7468V5.95801H143.663V14.1788C143.663 16.7212 144.726 17.7852 147.702 17.7852C150.679 17.7852 151.865 16.598 151.865 13.9324V5.96921H156.565V21.6828H152.178V16.8892H151.932C151.529 19.5212 149.616 21.9964 145.476 21.9964C141.056 21.9964 138.963 19.2636 138.963 15.758V15.7468Z" fill="#F7E8E4" style="fill:#F7E8E4;fill:color(display-p3 0.9679 0.9110 0.8952);fill-opacity:1;"/>
<path d="M158.59 13.8317C158.59 8.81413 162.126 5.64453 167.295 5.64453C172.465 5.64453 175.844 8.34373 175.844 13.2605C175.844 13.8205 175.777 14.2349 175.721 14.7613H162.943C163.066 17.1805 164.196 18.2109 167.239 18.2109C170.026 18.2109 170.999 17.4941 170.999 16.1389V15.8253H175.699V16.1725C175.699 19.5885 172.375 21.9741 167.396 21.9741C162.159 21.9741 158.59 19.3981 158.59 13.8205V13.8317ZM163.01 12.2973H171.346C171.223 10.2253 169.97 9.31813 167.206 9.31813C164.442 9.31813 163.222 10.2589 163.01 12.2973Z" fill="#F7E8E4" style="fill:#F7E8E4;fill:color(display-p3 0.9679 0.9110 0.8952);fill-opacity:1;"/>
<path d="M182.67 21.6718V0.660645H200.439V4.89424H187.37V9.63184H199.969V13.8318H187.37V21.6718H182.67Z" fill="#F7E8E4" style="fill:#F7E8E4;fill:color(display-p3 0.9679 0.9110 0.8952);fill-opacity:1;"/>
<path d="M201.547 13.8317C201.547 8.81413 205.083 5.64453 210.252 5.64453C215.422 5.64453 218.801 8.34373 218.801 13.2605C218.801 13.8205 218.734 14.2349 218.678 14.7613H205.9C206.023 17.1805 207.153 18.2109 210.196 18.2109C212.983 18.2109 213.956 17.4941 213.956 16.1389V15.8253H218.656V16.1725C218.656 19.5885 215.332 21.9741 210.353 21.9741C205.116 21.9741 201.547 19.3981 201.547 13.8205V13.8317ZM205.967 12.2973H214.303C214.18 10.2253 212.927 9.31813 210.163 9.31813C207.399 9.31813 206.179 10.2589 205.967 12.2973Z" fill="#F7E8E4" style="fill:#F7E8E4;fill:color(display-p3 0.9679 0.9110 0.8952);fill-opacity:1;"/>
<path d="M220.491 16.2734V16.1838H225.19V16.4638C225.19 17.875 226.063 18.2558 228.726 18.2558C231.233 18.2558 231.826 17.8526 231.826 16.9118C231.826 16.0382 231.356 15.7806 229.509 15.5342L225.09 14.9966C221.956 14.6494 220.2 13.2382 220.2 10.6062C220.2 7.97416 222.55 5.65576 227.943 5.65576C233.336 5.65576 235.999 7.60456 235.999 11.4238V11.5134H231.3V11.323C231.3 10.035 230.673 9.37416 227.786 9.37416C225.436 9.37416 224.843 9.77736 224.843 10.7854C224.843 11.603 225.28 11.9502 227.35 12.1966L230.707 12.5998C234.903 13.0702 236.469 14.4814 236.469 17.0798C236.469 20.0254 233.56 21.9742 228.704 21.9742C223.411 21.9742 220.491 19.9022 220.491 16.2622V16.2734Z" fill="#F7E8E4" style="fill:#F7E8E4;fill:color(display-p3 0.9679 0.9110 0.8952);fill-opacity:1;"/>
<path d="M115.566 41.3616V40.4544H120.546V41.3616C120.546 44.464 121.172 45.6288 124.898 45.6288C128.624 45.6288 129.318 44.5312 129.318 41.5856V28.8848H134.298V41.5856C134.298 46.984 131.724 50.2096 124.898 50.2096C118.073 50.2096 115.566 46.9168 115.566 41.3616Z" fill="#F7E8E4" style="fill:#F7E8E4;fill:color(display-p3 0.9679 0.9110 0.8952);fill-opacity:1;"/>
<path d="M136.099 45.9983C136.099 43.6799 137.822 42.2351 141.179 41.8879L147.915 41.1935V40.5999C147.915 38.5615 147.009 38.0015 144.502 38.0015C141.996 38.0015 141.145 38.6287 141.145 40.4207V40.5439H136.412V40.4543C136.412 36.5679 139.668 33.8687 144.838 33.8687C150.008 33.8687 152.548 36.5679 152.548 40.6783V49.8959H148.161V46.2895H147.915C147.199 48.7311 145.006 50.2095 141.526 50.2095C138.046 50.2095 136.11 48.6415 136.11 46.0095L136.099 45.9983ZM142.869 46.8831C146.069 46.8831 147.792 46.1327 147.915 43.9039L142.466 44.5311C141.336 44.6207 140.832 44.9343 140.832 45.6959C140.832 46.5471 141.492 46.8831 142.869 46.8831Z" fill="#F7E8E4" style="fill:#F7E8E4;fill:color(display-p3 0.9679 0.9110 0.8952);fill-opacity:1;"/>
<path d="M155.133 55.2158V34.171H159.485V38.4718H159.799C160.358 35.459 162.372 33.8574 166.065 33.8574C170.887 33.8574 173.584 37.0606 173.584 42.0446C173.584 47.0286 170.955 50.1982 166.221 50.1982C162.585 50.1982 160.582 48.4062 160.045 45.651H159.821V55.2158H155.121H155.133ZM164.409 45.9086C167.419 45.9086 168.829 44.9006 168.829 42.0558C168.829 39.211 167.419 38.203 164.442 38.203C161.466 38.203 159.832 39.2334 159.832 42.0334V42.2798C159.832 44.979 161.466 45.9198 164.409 45.9198V45.9086Z" fill="#F7E8E4" style="fill:#F7E8E4;fill:color(display-p3 0.9679 0.9110 0.8952);fill-opacity:1;"/>
<path d="M174.86 45.9983C174.86 43.6799 176.583 42.2351 179.94 41.8879L186.676 41.1935V40.5999C186.676 38.5615 185.769 38.0015 183.263 38.0015C180.757 38.0015 179.906 38.6287 179.906 40.4207V40.5439H175.173V40.4543C175.173 36.5679 178.429 33.8687 183.599 33.8687C188.768 33.8687 191.308 36.5679 191.308 40.6783V49.8959H186.922V46.2895H186.676C185.96 48.7311 183.767 50.2095 180.287 50.2095C176.807 50.2095 174.871 48.6415 174.871 46.0095L174.86 45.9983ZM181.629 46.8831C184.83 46.8831 186.553 46.1327 186.676 43.9039L181.226 44.5311C180.096 44.6207 179.593 44.9343 179.593 45.6959C179.593 46.5471 180.253 46.8831 181.629 46.8831Z" fill="#F7E8E4" style="fill:#F7E8E4;fill:color(display-p3 0.9679 0.9110 0.8952);fill-opacity:1;"/>
<path d="M193.893 49.8846V34.171H198.246V38.9982H198.526C198.928 36.3662 200.808 33.8574 204.915 33.8574C209.021 33.8574 211.248 36.6126 211.248 40.0958V49.8846H206.548V41.6638C206.548 39.155 205.519 38.091 202.632 38.091C199.745 38.091 198.593 39.2782 198.593 41.9438V49.8734H193.893V49.8846Z" fill="#F7E8E4" style="fill:#F7E8E4;fill:color(display-p3 0.9679 0.9110 0.8952);fill-opacity:1;"/>
<path d="M217.917 49.8849V46.8721C217.917 43.1761 219.517 41.2609 223.937 39.7825L229.331 38.0241C231.21 37.3633 231.904 36.7361 231.904 35.3585C231.904 33.7569 231.031 32.8497 227.585 32.8497C223.736 32.8497 222.572 34.0145 222.572 36.3329V36.7361H217.962V36.3329C217.962 32.2561 220.748 28.5601 227.742 28.5601C234.075 28.5601 236.637 31.4497 236.637 35.4257C236.637 39.1553 234.198 41.0033 230.461 42.0449L225.884 43.2993C223.848 43.9265 222.874 44.5201 222.874 46.1889L228.357 45.6513H236.57V49.8849H217.928H217.917Z" fill="#F7E8E4" style="fill:#F7E8E4;fill:color(display-p3 0.9679 0.9110 0.8952);fill-opacity:1;"/>
<path d="M238.115 39.3793C238.115 32.8609 241.841 28.5601 248.61 28.5601C255.38 28.5601 259.106 32.8609 259.106 39.3793C259.106 45.8977 255.346 50.1985 248.61 50.1985C241.874 50.1985 238.115 45.9313 238.115 39.3793ZM254.06 39.3793C254.06 34.8657 252.583 33.1409 248.61 33.1409C244.638 33.1409 243.161 34.8657 243.161 39.3793C243.161 43.8929 244.604 45.6177 248.61 45.6177C252.616 45.6177 254.06 43.8929 254.06 39.3793Z" fill="#F7E8E4" style="fill:#F7E8E4;fill:color(display-p3 0.9679 0.9110 0.8952);fill-opacity:1;"/>
<path d="M260.561 49.8849V46.8721C260.561 43.1761 262.161 41.2609 266.581 39.7825L271.974 38.0241C273.854 37.3633 274.548 36.7361 274.548 35.3585C274.548 33.7569 273.675 32.8497 270.228 32.8497C266.379 32.8497 265.215 34.0145 265.215 36.3329V36.7361H260.605V36.3329C260.605 32.2561 263.392 28.5601 270.385 28.5601C276.718 28.5601 279.281 31.4497 279.281 35.4257C279.281 39.1553 276.841 41.0033 273.104 42.0449L268.528 43.2993C266.491 43.9265 265.518 44.5201 265.518 46.1889L271 45.6513H279.214V49.8849H260.572H260.561Z" fill="#F7E8E4" style="fill:#F7E8E4;fill:color(display-p3 0.9679 0.9110 0.8952);fill-opacity:1;"/>
<path d="M281.105 43.3664V43.0864H285.961V43.3664C285.961 45.1584 287.214 45.9088 291.198 45.9088C294.801 45.9088 295.897 45.0576 295.897 42.7728C295.897 40.488 294.801 39.6032 291.231 39.6032C288.344 39.6032 286.778 39.9504 286.028 41.048L285.681 41.0144V41.048L281.261 40.9248L282.448 28.8848H299.747V33.1184H286.621L285.961 38.6064L286.241 38.64C286.99 37.4192 289.217 35.8848 293.134 35.8848C298.303 35.8848 300.877 38.3936 300.877 42.7168C300.877 47.264 297.811 50.2096 291.131 50.2096C284.45 50.2096 281.105 47.9808 281.105 43.3776V43.3664Z" fill="#F7E8E4" style="fill:#F7E8E4;fill:color(display-p3 0.9679 0.9110 0.8952);fill-opacity:1;"/>
</g>
<defs>
<clipPath id="clip0_504_7465">
<rect width="301" height="56" fill="white" style="fill:white;fill-opacity:1;"/>
</clipPath>
</defs>
</svg>
