<svg width="189" height="150" viewBox="0 0 189 150" fill="none" xmlns="http://www.w3.org/2000/svg">
<g filter="url(#filter0_d_3267_6778)">
<rect x="13.7271" y="32.5083" width="160" height="90" rx="4" fill="#D0EDF2"/>
</g>
<g filter="url(#filter1_d_3267_6778)">
<g clip-path="url(#clip0_3267_6778)">
<rect x="8" y="44.4517" width="160" height="90" rx="4" transform="rotate(-10.243 8 44.4517)" fill="#DEF7D1"/>
<path d="M28.0792 65.4558C23.1667 66.3435 19.3271 63.7205 18.4352 58.7844C17.5432 53.8484 20.222 50.0474 25.1344 49.1597C29.5981 48.3531 33.1424 50.1515 33.8253 53.9303L33.885 54.261L31.0745 54.7688L31.0148 54.4382C30.5795 52.0292 28.8096 51.0077 25.5976 51.5881C21.8897 52.2581 20.4148 54.3538 21.1275 58.2979C21.8403 62.242 23.951 63.6654 27.659 62.9953C30.8709 62.4149 32.1756 60.8622 31.736 58.4295L31.6806 58.1225L34.491 57.6147L34.5465 57.9217C35.2336 61.7241 32.5665 64.6449 28.0792 65.4558ZM40.7514 63.1659C38.3188 63.6055 36.5789 62.7492 36.2289 60.8126C35.9003 58.994 37.1939 57.7847 39.4614 57.1067L44.6966 55.5754L44.5728 54.8905C44.2228 52.9538 43.2488 52.4226 41.0052 52.828C38.8324 53.2206 37.8976 54.1212 38.2092 55.8453L38.2262 55.9398L35.6992 56.3964L35.6821 56.3019C35.1998 53.6332 37.0571 51.2245 40.7887 50.5502C44.5202 49.8759 46.5641 51.604 47.072 54.4145L48.3608 61.5469L46.0227 61.9695L45.4935 59.0409L45.3282 59.0708C45.0726 61.1656 43.4202 62.6836 40.7514 63.1659ZM38.7497 60.1863C38.9204 61.131 39.6392 61.4646 41.1035 61.1999C43.7722 60.7177 45.3879 59.4014 44.9697 57.0869L40.4582 58.4387C39.1655 58.843 38.5833 59.2653 38.7497 60.1863ZM52.9522 60.7173L50.4015 61.1782L47.5421 45.3545L50.0928 44.8935L52.9522 60.7173ZM57.6287 59.8722L55.078 60.3331L52.2186 44.5094L54.7693 44.0485L57.6287 59.8722ZM67.0026 58.1783L64.4519 58.6392L62.7149 49.0269L60.9436 49.347L60.5595 47.2214L62.3545 46.8971C62.1727 44.2715 63.8598 42.4058 67.1899 41.804L68.3471 41.5949L68.6885 43.4843L67.1298 43.766C65.264 44.1031 64.3853 44.7741 64.8343 46.4489L69.0854 45.6807L69.4695 47.8063L65.2656 48.566L67.0026 58.1783ZM78.4239 56.3583C74.5271 57.0625 71.4574 55.0564 70.8044 51.4429C70.1429 47.7822 72.3206 44.8523 76.2175 44.1481C80.138 43.4396 83.2034 45.4221 83.8649 49.0828C84.5179 52.6963 82.3444 55.6499 78.4239 56.3583ZM78.0142 54.091C80.8719 53.5746 81.8096 52.015 81.3614 49.5352C80.9091 47.0318 79.4807 45.8753 76.6229 46.3917C73.7888 46.9039 72.8555 48.4871 73.3079 50.9905C73.756 53.4704 75.1801 54.6032 78.0142 54.091ZM89.0888 54.1872L86.5382 54.6482L84.4171 42.9103L86.7552 42.4878L87.3271 45.6525L87.4924 45.6226C87.5052 43.6692 88.5075 41.9272 90.9164 41.4919C93.5852 41.0097 95.0882 42.7136 95.4893 44.9336L95.7667 46.4687L93.2397 46.9254L93.0519 45.8862C92.7489 44.2094 91.8995 43.558 90.1518 43.8738C88.1443 44.2366 87.5183 45.496 87.8981 47.598L89.0888 54.1872ZM27.1557 89.7675L24.605 90.2284L21.7456 74.4047L29.4921 73.0049C33.0111 72.369 35.7829 73.9411 36.4188 77.4602C37.0504 80.9555 35.0084 83.422 31.4894 84.0579L26.2936 84.9968L27.1557 89.7675ZM29.6699 75.3384L24.7102 76.2347L25.8796 82.7059L30.8393 81.8096C33.2246 81.3786 34.2906 80.2592 33.8681 77.9211C33.4456 75.5829 32.0553 74.9074 29.6699 75.3384ZM42.1186 87.0636L39.568 87.5246L37.4469 75.7867L39.785 75.3641L40.3569 78.5289L40.5222 78.499C40.535 76.5456 41.5373 74.8036 43.9462 74.3683C46.615 73.8861 48.118 75.5899 48.5191 77.81L48.7965 79.3451L46.2695 79.8018L46.0817 78.7626C45.7787 77.0858 44.9293 76.4344 43.1816 76.7502C41.1741 77.113 40.5481 78.3724 40.9279 80.4744L42.1186 87.0636ZM57.3435 84.5563C53.4466 85.2605 50.377 83.2544 49.724 79.6409C49.0625 75.9802 51.2402 73.0503 55.1371 72.3461C59.0576 71.6376 62.123 73.6201 62.7845 77.2808C63.4374 80.8943 61.264 83.8479 57.3435 84.5563ZM56.9338 82.2891C59.7915 81.7727 60.7291 80.2131 60.281 77.7332C59.8286 75.2298 58.4002 74.0733 55.5425 74.5897C52.7084 75.1019 51.7751 76.6851 52.2274 79.1885C52.6756 81.6684 54.0997 82.8012 56.9338 82.2891ZM68.7339 86.4002L66.1832 86.8611L63.3366 71.1083L65.6748 70.6858L66.2637 73.945L66.4763 73.9066C66.556 71.6484 67.9702 70.0271 70.7335 69.5278C74.3706 68.8705 76.8734 70.9791 77.5306 74.6162C78.1879 78.2532 76.6242 81.0722 72.9635 81.7337C70.3184 82.2117 68.3661 81.1256 67.5054 79.0617L67.4109 79.0788L68.7339 86.4002ZM66.9841 76.7171C67.4194 79.126 69.168 80.0295 71.6714 79.5771C74.1985 79.1205 75.4878 77.8876 74.9799 75.0771C74.4678 72.243 72.8092 71.5671 70.353 72.011C67.7314 72.4847 66.4891 73.9774 66.9457 76.5045L66.9841 76.7171ZM86.1624 79.3486C82.2655 80.0528 79.1958 78.0467 78.5429 74.4332C77.8814 70.7725 80.0591 67.8426 83.9559 67.1384C87.8764 66.43 90.9418 68.4124 91.6033 72.0732C92.2563 75.6866 90.0829 78.6402 86.1624 79.3486ZM85.7527 77.0814C88.6104 76.565 89.548 75.0054 89.0999 72.5255C88.6475 70.0221 87.2191 68.8657 84.3614 69.3821C81.5273 69.8942 80.5939 71.4774 81.0463 73.9809C81.4944 76.4607 82.9186 77.5935 85.7527 77.0814ZM99.8694 76.8717C96.0906 77.5546 93.6725 76.455 93.1817 73.739L93.1689 73.6682L95.7196 73.2073L95.7538 73.3962C96.0312 74.9313 97.0419 75.2609 99.4981 74.817C101.789 74.403 102.389 73.8069 102.201 72.7678C102.026 71.7994 101.403 71.5948 99.684 71.6617L96.3952 71.817C94.1239 71.9347 92.607 71.2333 92.2528 69.2731C91.8815 67.2183 93.4826 65.4169 97.0961 64.7639C100.686 64.1152 103.119 65.1633 103.623 67.9501L103.636 68.021L101.108 68.4776L101.083 68.3359C100.831 66.9425 99.9902 66.3384 97.3923 66.8078C95.2431 67.1962 94.5727 67.8051 94.7733 68.9151C94.9397 69.8362 95.4718 70.0815 97.2858 69.9976L100.07 69.8847C102.921 69.7354 104.367 70.4496 104.717 72.3862C105.114 74.5827 103.176 76.2743 99.8694 76.8717ZM110.401 74.9686C107.968 75.4082 106.228 74.552 105.878 72.6154C105.55 70.7968 106.843 69.5875 109.111 68.9095L114.346 67.3781L114.222 66.6932C113.872 64.7566 112.898 64.2253 110.655 64.6308C108.482 65.0234 107.547 65.924 107.859 67.6481L107.876 67.7425L105.349 68.1992L105.332 68.1047C104.849 65.4359 106.707 63.0273 110.438 62.353C114.17 61.6787 116.214 63.4067 116.721 66.2172L118.01 73.3497L115.672 73.7722L115.143 70.8437L114.978 70.8735C114.722 72.9684 113.07 74.4864 110.401 74.9686ZM108.399 71.9891C108.57 72.9338 109.289 73.2673 110.753 73.0027C113.422 72.5205 115.037 71.2042 114.619 68.8897L110.108 70.2415C108.815 70.6458 108.233 71.068 108.399 71.9891ZM122.602 72.52L120.051 72.981L117.192 57.1572L119.742 56.6963L122.602 72.52ZM130.32 71.3691C126.541 72.052 124.123 70.9525 123.633 68.2364L123.62 68.1656L126.17 67.7047L126.205 67.8936C126.482 69.4287 127.493 69.7583 129.949 69.3144C132.24 68.9005 132.839 68.3043 132.652 67.2652C132.477 66.2968 131.854 66.0922 130.135 66.1591L126.846 66.3144C124.575 66.4321 123.058 65.7307 122.704 63.7705C122.332 61.7157 123.934 59.9143 127.547 59.2613C131.137 58.6126 133.57 59.6607 134.074 62.4475L134.086 62.5184L131.559 62.975L131.534 62.8333C131.282 61.4399 130.441 60.8358 127.843 61.3052C125.694 61.6936 125.024 62.3025 125.224 63.4125C125.391 64.3336 125.923 64.5789 127.737 64.495L130.521 64.3821C133.372 64.2328 134.818 64.947 135.168 66.8836C135.565 69.0801 133.627 70.7717 130.32 71.3691Z" fill="#F66C21"/>
<path d="M147.315 91.0206L149.002 86.3177L157.186 84.8388L149.875 105.191L135.904 88.6846L144.088 87.2057L147.315 91.0206Z" fill="#F66C21"/>
<path d="M167.478 101.742C172.57 100.822 175.951 95.9486 175.031 90.8572C174.111 85.7659 169.238 82.3843 164.147 83.3044C159.055 84.2244 155.674 89.0976 156.594 94.1889C157.514 99.2803 162.387 102.662 167.478 101.742Z" fill="#F66C21"/>
</g>
</g>
<defs>
<filter id="filter0_d_3267_6778" x="5.72705" y="28.5083" width="176" height="106" filterUnits="userSpaceOnUse" color-interpolation-filters="sRGB">
<feFlood flood-opacity="0" result="BackgroundImageFix"/>
<feColorMatrix in="SourceAlpha" type="matrix" values="0 0 0 0 0 0 0 0 0 0 0 0 0 0 0 0 0 0 127 0" result="hardAlpha"/>
<feOffset dy="4"/>
<feGaussianBlur stdDeviation="4"/>
<feComposite in2="hardAlpha" operator="out"/>
<feColorMatrix type="matrix" values="0 0 0 0 0 0 0 0 0 0 0 0 0 0 0 0 0 0 0.15 0"/>
<feBlend mode="normal" in2="BackgroundImageFix" result="effect1_dropShadow_3267_6778"/>
<feBlend mode="normal" in="SourceGraphic" in2="effect1_dropShadow_3267_6778" result="shape"/>
</filter>
<filter id="filter1_d_3267_6778" x="0" y="12" width="189.454" height="133.017" filterUnits="userSpaceOnUse" color-interpolation-filters="sRGB">
<feFlood flood-opacity="0" result="BackgroundImageFix"/>
<feColorMatrix in="SourceAlpha" type="matrix" values="0 0 0 0 0 0 0 0 0 0 0 0 0 0 0 0 0 0 127 0" result="hardAlpha"/>
<feOffset dy="4"/>
<feGaussianBlur stdDeviation="4"/>
<feComposite in2="hardAlpha" operator="out"/>
<feColorMatrix type="matrix" values="0 0 0 0 0 0 0 0 0 0 0 0 0 0 0 0 0 0 0.15 0"/>
<feBlend mode="normal" in2="BackgroundImageFix" result="effect1_dropShadow_3267_6778"/>
<feBlend mode="normal" in="SourceGraphic" in2="effect1_dropShadow_3267_6778" result="shape"/>
</filter>
<clipPath id="clip0_3267_6778">
<rect x="8" y="44.4517" width="160" height="90" rx="4" transform="rotate(-10.243 8 44.4517)" fill="white"/>
</clipPath>
</defs>
</svg>
