<svg width="500" height="281" viewBox="0 0 500 281" fill="none" xmlns="http://www.w3.org/2000/svg">
<rect width="500" height="281" fill="white"/>
<mask id="mask0_1213_354" style="mask-type:luminance" maskUnits="userSpaceOnUse" x="43" y="108" width="415" height="65">
<path d="M457.492 108H43V172.311H457.492V108Z" fill="white"/>
</mask>
<g mask="url(#mask0_1213_354)">
<path d="M146.94 134.955C148.546 132.05 150.786 129.778 153.658 128.155C156.53 126.532 159.792 125.721 163.427 125.721C167.89 125.721 171.703 126.906 174.884 129.259C178.064 131.612 180.174 134.825 181.245 138.898H171.184C170.437 137.324 169.366 136.139 168.004 135.312C166.624 134.484 165.066 134.078 163.314 134.078C160.49 134.078 158.218 135.052 156.465 137.016C154.713 138.979 153.836 141.608 153.836 144.886C153.836 148.164 154.713 150.793 156.465 152.757C158.218 154.72 160.49 155.694 163.314 155.694C165.066 155.694 166.624 155.288 168.004 154.46C169.383 153.633 170.437 152.448 171.184 150.874H181.245C180.174 154.947 178.048 158.144 174.884 160.481C171.703 162.818 167.89 163.986 163.427 163.986C159.792 163.986 156.53 163.175 153.658 161.552C150.786 159.929 148.546 157.674 146.94 154.785C145.333 151.896 144.538 148.602 144.538 144.886C144.538 141.17 145.333 137.859 146.94 134.955Z" fill="#171717"/>
<path d="M191.501 162.283C189.164 161.033 187.33 159.248 185.984 156.928C184.652 154.607 183.971 151.897 183.971 148.797C183.971 145.698 184.652 143.02 186 140.683C187.363 138.347 189.213 136.562 191.566 135.312C193.919 134.062 196.564 133.446 199.485 133.446C202.406 133.446 205.051 134.062 207.404 135.312C209.757 136.562 211.607 138.347 212.97 140.683C214.333 143.02 214.999 145.73 214.999 148.797C214.999 151.864 214.317 154.574 212.938 156.911C211.559 159.248 209.692 161.033 207.323 162.283C204.954 163.532 202.309 164.149 199.371 164.149C196.434 164.149 193.822 163.532 191.485 162.283H191.501ZM203.866 154.315C205.1 153.033 205.716 151.199 205.716 148.797C205.716 146.396 205.116 144.578 203.931 143.28C202.731 141.998 201.27 141.349 199.517 141.349C197.765 141.349 196.255 141.982 195.071 143.247C193.886 144.513 193.302 146.363 193.302 148.781C193.302 151.199 193.886 153.017 195.039 154.299C196.191 155.581 197.651 156.23 199.404 156.23C201.156 156.23 202.65 155.581 203.866 154.299V154.315Z" fill="#171717"/>
<path d="M218.732 140.65C219.884 138.33 221.474 136.545 223.47 135.295C225.466 134.046 227.689 133.429 230.155 133.429C232.12 133.429 233.904 133.835 235.527 134.662C237.15 135.49 238.432 136.594 239.357 137.973V124.114H248.51V163.71H239.357V159.426C238.497 160.854 237.28 161.99 235.69 162.85C234.099 163.71 232.249 164.132 230.155 164.132C227.689 164.132 225.466 163.499 223.47 162.234C221.474 160.968 219.9 159.166 218.732 156.83C217.579 154.493 216.995 151.799 216.995 148.716C216.995 145.632 217.579 142.955 218.732 140.634V140.65ZM237.458 143.377C236.193 142.062 234.651 141.397 232.833 141.397C231.016 141.397 229.474 142.046 228.209 143.344C226.943 144.643 226.31 146.444 226.31 148.716C226.31 150.988 226.943 152.805 228.209 154.152C229.474 155.483 231.016 156.164 232.833 156.164C234.651 156.164 236.193 155.499 237.458 154.185C238.724 152.87 239.357 151.069 239.357 148.781C239.357 146.492 238.724 144.691 237.458 143.377Z" fill="#171717"/>
<path d="M282.069 150.988H261.362C261.508 152.838 262.108 154.266 263.147 155.24C264.202 156.213 265.5 156.717 267.025 156.717C269.314 156.717 270.904 155.759 271.797 153.828H281.533C281.03 155.792 280.138 157.56 278.823 159.118C277.525 160.692 275.886 161.926 273.922 162.818C271.959 163.711 269.768 164.149 267.334 164.149C264.413 164.149 261.8 163.532 259.529 162.283C257.24 161.033 255.455 159.248 254.173 156.928C252.891 154.607 252.242 151.897 252.242 148.797C252.242 145.698 252.875 142.988 254.14 140.667C255.407 138.347 257.175 136.562 259.464 135.312C261.751 134.062 264.364 133.446 267.334 133.446C270.303 133.446 272.787 134.046 275.042 135.263C277.282 136.48 279.05 138.201 280.316 140.456C281.582 142.696 282.215 145.325 282.215 148.327C282.215 149.187 282.166 150.079 282.053 151.004L282.069 150.988ZM272.868 145.909C272.868 144.335 272.332 143.085 271.261 142.16C270.19 141.235 268.859 140.765 267.253 140.765C265.646 140.765 264.429 141.203 263.374 142.095C262.319 142.988 261.67 144.254 261.427 145.893H272.884L272.868 145.909Z" fill="#171717"/>
<path d="M305.664 163.727L297.859 149.544H295.668V163.727H286.516V126.159H301.867C304.837 126.159 307.352 126.678 309.446 127.717C311.539 128.756 313.097 130.167 314.135 131.969C315.174 133.77 315.693 135.782 315.693 137.989C315.693 140.488 314.995 142.712 313.584 144.675C312.172 146.639 310.095 148.034 307.352 148.846L316.018 163.727H305.681H305.664ZM295.652 143.069H301.332C303.003 143.069 304.269 142.663 305.097 141.835C305.94 141.008 306.362 139.855 306.362 138.363C306.362 136.87 305.94 135.815 305.097 134.987C304.253 134.159 303.003 133.754 301.332 133.754H295.652V143.069Z" fill="#171717"/>
<path d="M320.253 140.651C321.406 138.33 322.996 136.545 324.992 135.295C326.988 134.046 329.228 133.608 331.678 133.608H350.032V163.71H340.879V159.491C339.987 160.887 338.753 162.006 337.163 162.867C335.573 163.727 333.723 164.149 331.629 164.149C329.195 164.149 326.988 163.516 324.992 162.25C322.996 160.984 321.422 159.183 320.253 156.846C319.101 154.509 318.517 151.815 318.517 148.732C318.517 145.649 319.101 142.971 320.253 140.651ZM338.981 143.377C337.715 142.062 336.173 141.397 334.356 141.397C332.538 141.397 330.996 142.046 329.731 143.344C328.465 144.643 327.832 146.444 327.832 148.716C327.832 150.988 328.465 152.805 329.731 154.152C330.996 155.483 332.538 156.164 334.356 156.164C336.173 156.164 337.715 155.499 338.981 154.185C340.246 152.87 340.879 151.069 340.879 148.781C340.879 146.493 340.246 144.691 338.981 143.377Z" fill="#171717"/>
<path d="M368.451 134.711C370.057 133.851 371.891 133.429 373.968 133.429C376.435 133.429 378.658 134.046 380.654 135.295C382.65 136.545 384.224 138.33 385.393 140.651C386.544 142.971 387.128 145.665 387.128 148.732C387.128 151.799 386.544 154.509 385.393 156.846C384.24 159.183 382.65 160.984 380.654 162.25C378.658 163.516 376.435 164.148 373.968 164.148C371.859 164.148 370.024 163.727 368.451 162.899C366.876 162.055 365.643 160.952 364.75 159.556V163.727H355.598V124.114H364.75V138.087C365.61 136.691 366.844 135.571 368.451 134.711ZM375.916 143.361C374.649 142.062 373.092 141.413 371.225 141.413C369.359 141.413 367.867 142.079 366.6 143.393C365.335 144.707 364.702 146.509 364.702 148.797C364.702 151.085 365.335 152.886 366.6 154.201C367.867 155.515 369.408 156.181 371.225 156.181C373.043 156.181 374.601 155.515 375.883 154.168C377.165 152.838 377.814 151.02 377.814 148.732C377.814 146.444 377.181 144.659 375.916 143.361Z" fill="#171717"/>
<path d="M403.713 134.712C405.319 133.851 407.154 133.43 409.23 133.43C411.697 133.43 413.92 134.046 415.917 135.296C417.912 136.545 419.487 138.33 420.655 140.651C421.807 142.971 422.391 145.665 422.391 148.732C422.391 151.799 421.807 154.509 420.655 156.846C419.503 159.183 417.912 160.984 415.917 162.25C413.92 163.516 411.697 164.149 409.23 164.149C407.121 164.149 405.287 163.727 403.713 162.899C402.139 162.055 400.905 160.952 400.013 159.556V163.727H390.861V124.115H400.013V138.087C400.873 136.691 402.107 135.572 403.713 134.712ZM411.178 143.361C409.912 142.063 408.354 141.414 406.488 141.414C404.622 141.414 403.129 142.079 401.863 143.393C400.597 144.708 399.964 146.509 399.964 148.797C399.964 151.085 400.597 152.887 401.863 154.201C403.129 155.516 404.67 156.181 406.488 156.181C408.306 156.181 409.863 155.516 411.146 154.169C412.428 152.838 413.077 151.021 413.077 148.732C413.077 146.444 412.444 144.659 411.178 143.361Z" fill="#171717"/>
<path d="M426.805 129.34C425.783 128.398 425.28 127.23 425.28 125.834C425.28 124.439 425.783 123.222 426.805 122.28C427.828 121.339 429.126 120.869 430.732 120.869C432.339 120.869 433.589 121.339 434.611 122.28C435.633 123.222 436.137 124.406 436.137 125.834C436.137 127.262 435.633 128.398 434.611 129.34C433.589 130.281 432.307 130.751 430.732 130.751C429.159 130.751 427.812 130.281 426.805 129.34ZM435.292 133.867V163.726H426.14V133.851H435.292V133.867Z" fill="#171717"/>
<path d="M457.493 155.954V163.71H452.836C449.525 163.71 446.928 162.899 445.079 161.276C443.229 159.653 442.303 157.008 442.303 153.325V141.446H438.668V133.851H442.303V126.581H451.456V133.851H457.444V141.446H451.456V153.438C451.456 154.331 451.667 154.98 452.105 155.369C452.527 155.759 453.241 155.954 454.247 155.954H457.509H457.493Z" fill="#171717"/>
<path d="M90.8731 172.311C87.3354 171.143 83.9114 163.158 79.6597 163.158C85.6153 166.745 83.0837 171.5 82.5969 172.311H90.8893H90.8731Z" fill="#FF570A"/>
<path d="M116.643 143.377C115.896 124.39 100.544 108.909 81.5741 108.033C60.4292 107.075 43.0005 123.92 43.0005 144.837C43.0005 152.821 45.532 160.205 49.8486 166.226C52.3315 169.698 56.21 171.889 60.413 172.246C54.2301 165.236 59.488 159.378 59.488 159.378C57.0376 160.562 56.0315 164.554 56.0315 164.554C51.3903 161.698 52.4613 158.29 52.4613 158.29C52.7535 157.576 53.4188 155.613 56.9889 156.327C63.902 133.559 86.6697 145.422 86.6697 145.422C86.3126 144.708 85.128 140.651 85.128 140.651C70.3444 138.508 65.3462 128.025 65.3462 128.025C79.0588 123.855 87.3999 135.182 87.3999 135.182C83.5864 125.883 74.4176 129.583 72.0321 114.329C87.9517 116.974 90.256 129.453 90.5806 132.147C90.8078 131.628 92.0736 130.93 97.2989 131.238C105.397 131.709 111.839 139.937 111.839 139.937C111.839 156.619 91.4569 152.594 91.4569 165.203C91.4569 168.157 94.67 167.978 95.741 169.406C96.6173 170.575 96.2441 171.873 96.0656 172.295H97.9967C102.573 172.295 106.922 170.185 109.616 166.485C114.306 160.043 116.967 152.026 116.643 143.361V143.377Z" fill="#FF570A"/>
</g>
</svg>
