<svg width="500" height="281" viewBox="0 0 500 281" fill="none" xmlns="http://www.w3.org/2000/svg">
<rect width="500" height="281" fill="white"/>
<g clip-path="url(#clip0_1247_397)">
<path d="M154.427 147.607C154.427 143.593 156.934 141.712 161.879 141.712H181.991V131.166H161.879C151.12 131.166 143.88 137.779 143.88 147.607C143.88 169.479 173.69 161.268 173.69 172.877C173.69 177.66 171.04 179.955 166.237 179.955H144.719V190.502H166.237C177.957 190.502 184.236 183.151 184.236 172.897C184.236 150.641 154.427 158.468 154.427 147.607Z" fill="#716658"/>
<path d="M279.996 131.176V169.843C279.996 173.817 279.622 180.956 269.166 180.956C258.71 180.956 258.346 173.817 258.346 169.843V131.176H247.8V169.843C247.8 187.509 256.961 191.493 269.176 191.493C273.534 191.493 277.094 190.947 280.006 189.824C280.006 195.224 279.611 201.756 269.176 201.756H254.271V212.303H269.176C281.806 212.303 290.552 207.945 290.552 190.654V131.176H280.006H279.996Z" fill="#716658"/>
<path d="M127.853 122.388H117.306V190.512H127.853V122.388Z" fill="#716658"/>
<path d="M329.21 179.955C321.485 179.955 317.956 177.185 317.956 168.842V115.351H307.409V168.842C307.409 185.032 314.932 190.502 329.21 190.502V179.955Z" fill="#716658"/>
<path d="M233.734 149.62V139.083H207.999V122.388H197.453V168.852C197.453 185.041 204.976 190.512 219.244 190.512H233.724V179.965H219.244C211.518 179.965 207.989 177.195 207.989 168.852V149.63H233.724L233.734 149.62Z" fill="#716658"/>
<path d="M360.426 130.185C347.098 130.185 339.049 135.139 339.049 151.814V168.852C339.049 185.041 346.572 190.502 360.84 190.502H375.32V179.955H360.84C350.172 179.955 349.596 174.06 349.596 167.7H360.537C374.036 167.669 381.802 163.028 381.802 149.559C381.802 137.334 374.147 130.185 360.426 130.185ZM360.426 157.163H349.596C349.616 148.841 348.524 140.711 360.426 140.711C370.092 140.711 371.255 146.434 371.255 149.559C371.255 156.172 366.816 157.153 360.426 157.153V157.163Z" fill="#716658"/>
<path d="M122.574 73.1033C111.391 73.1033 102.331 82.1736 102.331 93.3472C102.331 104.521 111.401 113.591 122.574 113.591C133.748 113.591 142.818 104.521 142.818 93.3472C142.818 82.1736 133.758 73.1033 122.574 73.1033ZM122.574 103.328C117.064 103.328 112.594 98.8581 112.594 93.3472C112.594 87.8362 117.064 83.3668 122.574 83.3668C128.085 83.3668 132.555 87.8362 132.555 93.3472C132.555 98.8581 128.085 103.328 122.574 103.328Z" fill="#5CB531"/>
</g>
<defs>
<clipPath id="clip0_1247_397">
<rect width="345.491" height="180.82" fill="white" transform="translate(76.8081 50.1799)"/>
</clipPath>
</defs>
</svg>
