<svg width="500" height="281" viewBox="0 0 500 281" fill="none" xmlns="http://www.w3.org/2000/svg">
<rect width="500" height="281" fill="white"/>
<g clip-path="url(#clip0_824_11382)">
<path d="M264.013 148.287C265.756 150.064 266.522 151.1 266.522 152.359C266.522 154.36 264.696 156.066 262.658 156.066C261.444 156.066 260.608 155.702 259.171 154.136C257.581 152.43 252.197 147.251 249.994 145.251C237.024 161.468 221.109 169.918 218.07 169.918C216.102 169.918 214.653 167.988 214.653 166.435C214.653 164.728 215.407 163.916 217.916 162.728C225.88 158.726 234.668 152.724 244.834 140.873C241.265 137.989 238.921 136.059 232.171 131.093C230.804 130.128 230.203 129.163 230.203 128.209C230.203 126.279 231.794 124.655 233.914 124.655C235.198 124.655 236.341 125.326 238.838 127.103C241.571 129.104 245.211 131.916 249.075 135.106C255.071 125.914 258.028 118.806 259.995 113.922C261.056 111.18 261.81 110.073 264.013 110.073C265.98 110.073 267.876 111.627 267.876 113.486C267.876 116.452 260.443 131.269 254.306 139.484C257.946 142.591 260.973 145.262 264.013 148.299V148.287Z" fill="#3E96CB"/>
<path d="M314.974 136.73C310.05 140.731 303.524 145.168 297.834 148.287C293.97 150.441 291.92 151.771 289.953 151.771C288.127 151.771 286.383 150.217 286.383 147.993C286.383 146.439 287.22 145.627 289.87 144.368C311.864 134.07 323.915 119.182 328.698 111.627C330.371 108.955 330.901 108.226 332.562 108.226C334.682 108.226 336.508 109.932 336.508 111.85C336.508 115.334 325.812 127.032 321.653 131.034V169.401C321.653 171.696 320.287 172.661 318.32 172.661C316.352 172.661 314.986 171.696 314.986 169.401V136.742L314.974 136.73Z" fill="#3E96CB"/>
<path d="M362.908 119.394C363.744 121.324 368.598 132.352 368.598 136.506C368.598 138.731 366.925 140.131 364.581 140.131C362.083 140.131 361.624 138.354 360.87 135.165C360.033 131.681 358.443 127.538 357.077 124.125C356.546 122.937 355.934 121.83 355.557 120.865C355.097 119.83 354.944 119.241 354.944 118.57C354.944 116.946 356.688 115.463 358.891 115.463C360.41 115.463 361.471 116.205 362.908 119.394ZM401.735 149.911C393.701 161.315 379.895 170.201 375.807 170.201C373.84 170.201 372.238 168.647 372.238 166.647C372.238 165.093 372.992 164.199 375.124 163.234C381.874 160.268 395.516 151.382 402.348 134.859C405.376 127.527 406.895 119.9 407.425 115.899C407.732 113.674 408.709 112.192 410.842 112.192C413.575 112.192 415.012 113.521 415.012 116.04C415.012 117.594 412.668 134.482 401.747 149.888L401.735 149.911ZM384.902 114.957C387.635 124.443 388.165 131.034 388.165 132.658C388.165 134.953 386.798 136.589 384.301 136.589C381.12 136.589 380.884 134.364 380.354 129.704C379.977 126.079 379.447 123.702 378.917 120.889C378.081 117.264 377.244 115.628 377.244 114.228C377.244 112.298 378.988 111.121 380.955 111.121C382.699 111.121 383.912 111.709 384.902 114.969V114.957Z" fill="#3E96CB"/>
<path d="M179.006 84.6758H105.156C94.0354 84.6758 85 93.5025 85 104.365V176.509C85 187.36 94.0354 196.199 105.156 196.199H179.018C190.127 196.199 199.174 187.372 199.174 176.509V104.365C199.174 93.5143 190.139 84.6758 179.018 84.6758H179.006Z" fill="#3E96CB"/>
<path d="M155.964 159.02C155.964 159.02 155.988 158.985 155.988 158.95V140.508C155.988 139.66 155.293 138.978 154.421 138.978C153.549 138.978 152.854 139.66 152.854 140.508V158.95C152.854 158.95 152.866 158.997 152.878 159.02H134.312V140.52C134.312 139.672 133.617 138.99 132.745 138.99C131.873 138.99 131.178 139.672 131.178 140.52V159.02H113.473V145.698H119.363V136.801H113.473C113.473 128.539 120.505 121.854 129.188 121.854C135.608 121.854 141.133 125.514 143.571 130.775C146.01 125.526 151.535 121.854 157.955 121.854C166.637 121.854 173.67 128.551 173.67 136.801V159.02H155.929H155.964Z" fill="white"/>
<path d="M113.508 136.801H107.618V145.698H113.508V136.801Z" fill="white"/>
</g>
<defs>
<clipPath id="clip0_824_11382">
<rect width="330" height="111.511" fill="white" transform="translate(85 84.6758)"/>
</clipPath>
</defs>
</svg>
