<svg width="48" height="48" viewBox="0 0 48 48" fill="none" xmlns="http://www.w3.org/2000/svg">
<path d="M13.6705 8.35592C18.2564 11.7774 23.1888 18.7146 25 22.4373C26.8112 18.7147 31.7436 11.7774 36.3295 8.35585C39.6385 5.88725 45 3.97705 45 10.0553C45 11.2693 44.2996 20.2529 43.8889 21.7115C42.4611 26.782 37.2582 28.0753 32.6301 27.2925C40.7199 28.6607 42.7777 33.1928 38.3333 37.725C29.8925 46.3324 26.2015 35.5653 25.2557 32.8064C25.0823 32.3007 25.0012 32.0641 25 32.2653C24.9988 32.0641 24.9177 32.3007 24.7443 32.8064C23.7985 35.5653 20.1075 46.3324 11.6667 37.725C7.22225 33.1928 9.28007 28.6607 17.3699 27.2924C12.7418 28.0752 7.53894 26.7819 6.11113 21.7114C5.70035 20.2528 5 11.2691 5 10.0553C5 3.97705 10.3616 5.88718 13.6705 8.35592Z" fill="#007F62"/>
</svg>
