<svg width="40" height="41" viewBox="0 0 40 41" fill="none" xmlns="http://www.w3.org/2000/svg">
<g clip-path="url(#clip0_6044_14566)">
<g clip-path="url(#clip1_6044_14566)">
<path d="M20 0.5C31.0456 0.5 40 9.4544 40 20.5H40.001C40.001 30.7256 32.327 39.1575 22.4238 40.3535V26.6123H27.834L28.957 20.5H22.4238V18.3389C22.4238 15.1095 23.691 13.8664 26.9697 13.8662C27.988 13.8662 28.8083 13.8908 29.2803 13.9404V13.9395L29.2812 13.9404V8.40039C29.2573 8.39376 29.2318 8.38847 29.2061 8.38184C28.5207 8.20458 27.2084 8.03037 26.0703 7.9502C25.6549 7.92088 25.2625 7.9043 24.9326 7.9043H24.9316C18.2487 7.90439 15.168 11.0591 15.168 17.8662V20.5H11.0439L11.0449 26.6123H15.168V39.9102C6.45729 37.7482 2.05182e-07 29.8788 0 20.5C0 9.4544 8.9544 0.5 20 0.5Z" fill="#007F62"/>
</g>
</g>
<defs>
<clipPath id="clip0_6044_14566">
<rect width="40" height="40" fill="white" transform="translate(0 0.5)"/>
</clipPath>
<clipPath id="clip1_6044_14566">
<rect width="40" height="40" fill="white" transform="translate(0 0.5)"/>
</clipPath>
</defs>
</svg>
