<svg width="24" height="24" viewBox="0 0 24 24" fill="none" xmlns="http://www.w3.org/2000/svg">
<path d="M13.8876 11.6873L9.9876 7.7873C9.80426 7.60397 9.7126 7.37064 9.7126 7.0873C9.7126 6.80397 9.80426 6.57064 9.9876 6.3873C10.1709 6.20397 10.4043 6.1123 10.6876 6.1123C10.9709 6.1123 11.2043 6.20397 11.3876 6.3873L15.9876 10.9873C16.1876 11.1873 16.2876 11.4206 16.2876 11.6873C16.2876 11.954 16.1876 12.1873 15.9876 12.3873L11.3876 16.9873C11.2043 17.1706 10.9709 17.2623 10.6876 17.2623C10.4043 17.2623 10.1709 17.1706 9.9876 16.9873C9.80426 16.804 9.7126 16.5706 9.7126 16.2873C9.7126 16.004 9.80426 15.7706 9.9876 15.5873L13.8876 11.6873Z" fill="#007F62"/>
</svg>
