<svg width="24" height="24" viewBox="0 0 24 24" fill="none" xmlns="http://www.w3.org/2000/svg">
<path d="M10.4 11.6873L14.3 7.7873C14.4833 7.60397 14.575 7.37064 14.575 7.0873C14.575 6.80397 14.4833 6.57064 14.3 6.3873C14.1167 6.20397 13.8833 6.1123 13.6 6.1123C13.3167 6.1123 13.0833 6.20397 12.9 6.3873L8.3 10.9873C8.1 11.1873 8 11.4206 8 11.6873C8 11.954 8.1 12.1873 8.3 12.3873L12.9 16.9873C13.0833 17.1706 13.3167 17.2623 13.6 17.2623C13.8833 17.2623 14.1167 17.1706 14.3 16.9873C14.4833 16.804 14.575 16.5706 14.575 16.2873C14.575 16.004 14.4833 15.7706 14.3 15.5873L10.4 11.6873Z" fill="#007F62"/>
</svg>
