<svg width="24" height="25" viewBox="0 0 24 25" fill="none" xmlns="http://www.w3.org/2000/svg">
<path d="M2 7.79102C2 6.96221 2.32924 6.16736 2.91529 5.58131C3.50134 4.99526 4.2962 4.66602 5.125 4.66602H18.875C19.7038 4.66602 20.4987 4.99526 21.0847 5.58131C21.6708 6.16736 22 6.96221 22 7.79102V16.541C22 17.3698 21.6708 18.1647 21.0847 18.7507C20.4987 19.3368 19.7038 19.666 18.875 19.666H5.125C4.2962 19.666 3.50134 19.3368 2.91529 18.7507C2.32924 18.1647 2 17.3698 2 16.541V7.79102ZM6.375 8.41602C6.20924 8.41602 6.05027 8.48186 5.93306 8.59907C5.81585 8.71628 5.75 8.87526 5.75 9.04102C5.75 9.20678 5.81585 9.36575 5.93306 9.48296C6.05027 9.60017 6.20924 9.66602 6.375 9.66602H11.375C11.5408 9.66602 11.6997 9.60017 11.8169 9.48296C11.9342 9.36575 12 9.20678 12 9.04102C12 8.87526 11.9342 8.71628 11.8169 8.59907C11.6997 8.48186 11.5408 8.41602 11.375 8.41602H6.375ZM5.75 12.166C5.75 12.3318 5.81585 12.4907 5.93306 12.608C6.05027 12.7252 6.20924 12.791 6.375 12.791H15.125C15.2908 12.791 15.4497 12.7252 15.5669 12.608C15.6842 12.4907 15.75 12.3318 15.75 12.166C15.75 12.0003 15.6842 11.8413 15.5669 11.7241C15.4497 11.6069 15.2908 11.541 15.125 11.541H6.375C6.20924 11.541 6.05027 11.6069 5.93306 11.7241C5.81585 11.8413 5.75 12.0003 5.75 12.166ZM6.375 14.666C6.20924 14.666 6.05027 14.7319 5.93306 14.8491C5.81585 14.9663 5.75 15.1253 5.75 15.291C5.75 15.4568 5.81585 15.6157 5.93306 15.733C6.05027 15.8502 6.20924 15.916 6.375 15.916H12.625C12.7908 15.916 12.9497 15.8502 13.0669 15.733C13.1842 15.6157 13.25 15.4568 13.25 15.291C13.25 15.1253 13.1842 14.9663 13.0669 14.8491C12.9497 14.7319 12.7908 14.666 12.625 14.666H6.375Z" />
</svg>
