<svg width="500" height="281" viewBox="0 0 500 281" fill="none" xmlns="http://www.w3.org/2000/svg">
<rect width="500" height="281" fill="white"/>
<g clip-path="url(#clip0_824_11284)">
<path d="M328.165 91.5956C328.165 91.5956 328.047 91.5956 327.995 91.5956L80.1538 111.836L328.335 101.108C330.904 101.003 332.948 98.9259 332.948 96.3518C332.948 93.7777 330.799 91.5825 328.165 91.5825V91.5956Z" fill="#E5004F"/>
<path d="M418.23 69.6437C418.23 66.1811 415.4 63.3457 411.888 63.3457C411.731 63.3457 411.6 63.3718 411.456 63.3849V63.3588L162.54 97.1225L412.334 75.9679V75.9156C415.623 75.6935 418.23 72.9757 418.23 69.6437Z" fill="#E5004F"/>
<path d="M381.735 144.201L385.784 137.027H356.785V170.386H381.735L385.784 163.147H363.979V158.038H373.912L377.974 150.826H363.966V144.201H381.735Z" fill="#0A1561"/>
<path d="M112.6 170.386H119.781V158.039H129.714L133.803 150.826H119.781V144.201H137.537L141.613 137.015H112.6V170.386Z" fill="#0A1561"/>
<path d="M206.675 144.201H217.578V170.386H224.733V144.201H234.365L238.44 137.015H206.675V144.201Z" fill="#0A1561"/>
<path d="M179.589 155.922C179.589 159.894 176.3 163.108 172.316 163.108C168.332 163.108 165.069 159.894 165.069 155.922V137.015H157.81V155.922C157.81 163.892 164.283 170.386 172.316 170.386C180.349 170.386 186.809 163.892 186.809 155.922V137.015H179.589V155.922Z" fill="#0A1561"/>
<path d="M277.229 155.922C277.229 159.894 273.953 163.108 269.982 163.108C266.011 163.108 262.735 159.894 262.735 155.922V137.015H255.515V155.922C255.515 163.892 261.962 170.386 269.982 170.386C278.002 170.386 284.475 163.892 284.475 155.922V137.015H277.229V155.922Z" fill="#0A1561"/>
<path d="M333.315 148.343C333.315 142.097 328.23 137.015 321.966 137.015H306.268V170.373H313.527V159.672H319.018L329.711 170.373H338.779L326.907 158.509C330.681 156.667 333.315 152.825 333.315 148.343ZM313.527 144.201H321.966C324.247 144.201 326.107 146.096 326.107 148.343C326.107 150.591 324.247 152.472 321.966 152.472H313.527V144.201Z" fill="#0A1561"/>
<path d="M261.228 200.687H267.872V216.628H272.223V200.687H278.093L280.531 196.284H261.228V200.687Z" fill="#0A1561"/>
<path d="M334.625 196.284V200.687H341.282V216.628H345.62V200.687H351.49L353.941 196.284H334.625Z" fill="#0A1561"/>
<path d="M189.22 203.209C189.22 199.381 186.115 196.297 182.262 196.297H177.164H172.748V200.7V205.744V210.147V216.654H177.164V210.147H180.519L187.032 216.654H192.523L185.289 209.429C187.595 208.305 189.207 205.953 189.207 203.235L189.22 203.209ZM177.178 200.687H182.275C183.677 200.687 184.817 201.824 184.817 203.209C184.817 204.594 183.677 205.731 182.275 205.731H177.178V200.687Z" fill="#0A1561"/>
<path d="M254.008 196.284H249.592V216.628H254.008V196.284Z" fill="#0A1561"/>
<path d="M236.238 204.712H227.485V196.284H223.082V216.628H227.485V209.115H236.238V216.628H240.641V196.284H236.238V204.712Z" fill="#0A1561"/>
<path d="M152.542 196.297L144.456 216.628H149.187L150.864 212.421H160.077L161.741 216.628H166.485L158.412 196.297H152.555H152.542ZM152.594 208.017L155.451 200.818L158.307 208.017H152.594Z" fill="#0A1561"/>
<path d="M206.754 200.596C208.733 200.596 210.449 201.576 211.511 203.065L214.63 199.995C212.756 197.747 209.925 196.297 206.754 196.297C201.145 196.297 196.546 200.857 196.546 206.463C196.546 212.068 201.145 216.641 206.754 216.641C209.925 216.641 212.756 215.204 214.63 212.93L211.511 209.86C210.449 211.349 208.72 212.329 206.754 212.329C203.491 212.329 200.87 209.703 200.87 206.463C200.87 203.222 203.491 200.596 206.754 200.596Z" fill="#0A1561"/>
<path d="M320.276 200.596C322.268 200.596 323.998 201.576 325.072 203.065L328.139 199.995C326.265 197.747 323.434 196.297 320.263 196.297C314.654 196.297 310.081 200.857 310.081 206.463C310.081 212.068 314.654 216.641 320.263 216.641C323.434 216.641 326.265 215.204 328.139 212.93L325.072 209.86C323.998 211.349 322.268 212.329 320.276 212.329C317.039 212.329 314.405 209.703 314.405 206.463C314.405 203.222 317.039 200.596 320.276 200.596Z" fill="#0A1561"/>
<path d="M291.565 209.102H297.619L300.082 204.698H291.565V200.674H302.376L304.839 196.284H287.201V216.615H302.363L304.826 212.212H291.552V209.102H291.565Z" fill="#0A1561"/>
</g>
<defs>
<clipPath id="clip0_824_11284">
<rect width="405" height="220" fill="white" transform="translate(47 30)"/>
</clipPath>
</defs>
</svg>
