<svg width="500" height="281" viewBox="0 0 500 281" fill="none" xmlns="http://www.w3.org/2000/svg">
<g clip-path="url(#clip0_899_310)">
<rect width="500" height="281" fill="white"/>
<g clip-path="url(#clip1_899_310)">
<path d="M114.235 126.25C117.209 126.191 119.696 126.719 121.698 127.841C123.7 128.958 125.259 130.403 126.381 132.167C126.943 133.111 127.396 134.2 127.752 135.435C127.811 135.64 127.855 135.899 127.887 136.207C127.914 136.514 127.86 136.746 127.709 136.892C127.563 137.096 127.353 137.215 127.088 137.242C126.824 137.274 126.527 137.285 126.203 137.285H123.333C123.009 137.285 122.707 137.28 122.426 137.264C122.146 137.248 121.919 137.167 121.741 137.021C121.477 136.843 121.293 136.595 121.191 136.271C121.088 135.948 120.964 135.64 120.813 135.344C120.549 134.934 120.268 134.54 119.977 134.173C119.68 133.806 119.329 133.472 118.919 133.181C118.358 132.798 117.683 132.49 116.885 132.253C116.739 132.194 116.577 132.156 116.399 132.145C116.221 132.129 116.059 132.108 115.914 132.081C115.827 132.054 115.692 132.037 115.514 132.037C115.164 131.978 114.721 131.973 114.187 132.016C113.658 132.059 113.243 132.113 112.951 132.172C112.746 132.232 112.552 132.275 112.379 132.307C112.201 132.339 112.029 132.393 111.85 132.485C111.084 132.809 110.399 133.192 109.795 133.634C109.19 134.076 108.667 134.637 108.224 135.311C107.809 135.872 107.485 136.476 107.253 137.123C107.016 137.771 106.795 138.461 106.59 139.2C106.503 139.524 106.444 139.847 106.411 140.171C106.379 140.494 106.336 140.818 106.277 141.142V141.713C106.217 141.891 106.196 142.08 106.212 142.285C106.228 142.49 106.233 142.7 106.233 142.905C106.233 143.407 106.25 143.908 106.277 144.405C106.304 144.906 106.379 145.375 106.498 145.818C106.525 145.936 106.541 146.039 106.541 146.125C106.541 146.211 106.557 146.319 106.584 146.433C106.994 147.932 107.555 149.205 108.262 150.251C108.969 151.298 109.984 152.112 111.311 152.7C111.575 152.818 111.85 152.921 112.126 153.007C112.406 153.094 112.708 153.185 113.032 153.272C113.21 153.304 113.378 153.309 113.539 153.293C113.701 153.277 113.858 153.298 114.003 153.358C114.181 153.417 114.403 153.444 114.667 153.444C114.932 153.444 115.169 153.417 115.374 153.358C115.52 153.331 115.655 153.32 115.773 153.336C115.892 153.352 116.011 153.342 116.124 153.315C116.27 153.288 116.394 153.277 116.502 153.293C116.604 153.309 116.718 153.288 116.831 153.228C117.241 153.11 117.624 153.002 117.98 152.899C118.336 152.797 118.671 152.657 118.995 152.479C119.728 152.036 120.322 151.529 120.759 150.958C121.201 150.386 121.585 149.669 121.908 148.817C122.027 148.493 122.108 148.11 122.151 147.668C122.194 147.225 122.054 146.918 121.73 146.74C121.552 146.621 121.326 146.562 121.045 146.562H117.975C117.797 146.562 117.608 146.567 117.403 146.584C117.198 146.6 117.004 146.578 116.831 146.519H116.432C116.313 146.492 116.194 146.47 116.081 146.454C115.962 146.438 115.86 146.406 115.773 146.346C115.628 146.228 115.525 146.055 115.466 145.818C115.406 145.58 115.369 145.327 115.352 145.046C115.336 144.766 115.336 144.475 115.352 144.162C115.369 143.855 115.374 143.569 115.374 143.299C115.374 143.062 115.379 142.841 115.396 142.636C115.412 142.431 115.444 142.253 115.503 142.107C115.622 141.843 115.784 141.665 115.989 141.578C116.167 141.519 116.313 141.492 116.432 141.492H116.917C117.004 141.465 117.117 141.449 117.246 141.449H127.051C127.682 141.449 128.103 141.584 128.308 141.848C128.453 142.085 128.529 142.393 128.529 142.776V155.709C128.529 156.27 128.524 156.804 128.507 157.322C128.491 157.84 128.292 158.169 127.914 158.314C127.736 158.401 127.525 158.449 127.272 158.449H126.543C125.955 158.449 125.448 158.428 125.022 158.385C124.595 158.341 124.293 158.115 124.115 157.7C123.997 157.435 123.91 157.139 123.851 156.815C123.791 156.491 123.689 156.211 123.543 155.974C123.484 155.914 123.408 155.85 123.322 155.774C123.236 155.699 123.117 155.677 122.966 155.709C122.728 155.769 122.529 155.887 122.372 156.06C122.21 156.238 122.043 156.4 121.865 156.545C121.568 156.783 121.293 156.993 121.029 157.187C120.764 157.381 120.468 157.576 120.144 157.78C119.761 158.018 119.356 158.207 118.93 158.352C118.504 158.498 118.066 158.643 117.629 158.794C117.484 158.854 117.327 158.892 117.165 158.902C117.004 158.918 116.847 158.94 116.701 158.967C116.464 159.026 116.216 159.053 115.951 159.053C115.687 159.053 115.423 159.08 115.158 159.14C115.039 159.167 114.872 159.177 114.651 159.161C114.43 159.145 114.273 159.123 114.187 159.096H113.744C113.599 159.07 113.458 159.053 113.324 159.053C113.189 159.053 113.048 159.037 112.903 159.01H112.552C112.315 158.951 112.083 158.908 111.845 158.875C111.608 158.843 111.376 158.8 111.138 158.741C110.933 158.681 110.728 158.633 110.518 158.584C110.313 158.541 110.108 158.487 109.897 158.428C109.012 158.163 108.235 157.856 107.555 157.5C105.818 156.589 104.404 155.504 103.314 154.253C102.224 153.002 101.296 151.449 100.53 149.593C100.352 149.183 100.222 148.768 100.131 148.358C100.044 147.948 99.9257 147.533 99.78 147.123C99.7476 146.977 99.7368 146.853 99.7368 146.745C99.7368 146.638 99.7099 146.519 99.6505 146.368C99.5912 146.163 99.5642 145.947 99.5642 145.726C99.5642 145.505 99.5318 145.278 99.4778 145.041C99.4185 144.895 99.3969 144.771 99.4131 144.664C99.4293 144.561 99.4185 144.437 99.3915 144.286V143.493C99.3322 143.348 99.3052 143.116 99.3052 142.808C99.3052 142.501 99.3322 142.269 99.3915 142.123V141.638C99.4185 141.46 99.4293 141.276 99.4131 141.088C99.3969 140.899 99.4185 140.726 99.4778 140.581C99.5372 140.316 99.5642 140.052 99.5642 139.788C99.5642 139.524 99.5912 139.275 99.6505 139.038C99.7368 138.715 99.8124 138.396 99.8717 138.089C99.9311 137.781 100.017 137.463 100.136 137.14C100.282 136.73 100.422 136.325 100.557 135.926C100.692 135.527 100.843 135.139 101.021 134.756C101.199 134.346 101.404 133.941 101.642 133.542C101.879 133.143 102.111 132.771 102.348 132.415C103.233 131.18 104.232 130.128 105.354 129.26C106.471 128.391 107.825 127.663 109.417 127.075C109.741 126.93 110.091 126.817 110.475 126.746C110.858 126.671 111.241 126.59 111.624 126.504C111.77 126.444 111.926 126.417 112.088 126.417C112.25 126.417 112.406 126.39 112.552 126.331C112.757 126.272 112.957 126.256 113.145 126.288C113.334 126.32 113.534 126.304 113.739 126.245C113.798 126.218 113.879 126.218 113.982 126.245C114.084 126.277 114.165 126.277 114.225 126.245L114.235 126.25Z" fill="black"/>
<path d="M141.614 127.043H161.972C162.323 127.043 162.663 127.059 162.987 127.086C163.311 127.113 163.548 127.232 163.694 127.437C163.753 127.523 163.791 127.631 163.802 127.744C163.818 127.863 163.85 127.981 163.915 128.1V128.586C163.942 128.79 163.953 129.012 163.936 129.249C163.92 129.486 163.915 129.707 163.915 129.912C163.915 130.15 163.92 130.376 163.936 130.597C163.953 130.818 163.942 131.034 163.915 131.239C163.882 131.385 163.872 131.606 163.872 131.902C163.785 132.253 163.634 132.49 163.429 132.609C163.251 132.728 163.03 132.787 162.766 132.787H150.884C150.647 132.787 150.377 132.782 150.069 132.765C149.762 132.749 149.449 132.749 149.141 132.765C148.834 132.782 148.548 132.809 148.278 132.852C148.013 132.895 147.819 132.96 147.706 133.051C147.501 133.197 147.377 133.413 147.328 133.693C147.285 133.974 147.263 134.286 147.263 134.642V138.439C147.323 138.677 147.382 138.876 147.441 139.033C147.501 139.194 147.603 139.319 147.749 139.41C147.927 139.529 148.132 139.594 148.369 139.61C148.607 139.626 148.855 139.631 149.119 139.631H159.102C159.307 139.631 159.566 139.626 159.873 139.61C160.181 139.594 160.483 139.594 160.78 139.61C161.071 139.626 161.346 139.648 161.595 139.674C161.843 139.707 162.026 139.761 162.145 139.852C162.291 139.939 162.393 140.117 162.453 140.381C162.512 140.645 162.55 140.931 162.561 141.244C162.577 141.551 162.577 141.87 162.561 142.193C162.544 142.517 162.539 142.797 162.539 143.029V143.649C162.539 143.854 162.507 144.032 162.453 144.178C162.393 144.415 162.275 144.604 162.102 144.75C161.956 144.836 161.757 144.895 161.508 144.928C161.26 144.96 160.98 144.971 160.672 144.971C160.364 144.971 160.051 144.965 159.744 144.949C159.436 144.933 159.177 144.928 158.972 144.928H150.361C150.01 144.928 149.67 144.922 149.346 144.906C149.022 144.89 148.72 144.906 148.44 144.949C148.159 144.992 147.927 145.084 147.733 145.214C147.539 145.343 147.404 145.543 147.312 145.807C147.285 145.952 147.269 146.109 147.269 146.271V150.882C147.269 151.233 147.29 151.551 147.333 151.831C147.377 152.112 147.501 152.322 147.711 152.473C147.798 152.559 147.911 152.613 148.04 152.63C148.175 152.646 148.31 152.684 148.461 152.737H148.904C149.049 152.77 149.211 152.775 149.389 152.759C149.567 152.743 149.729 152.737 149.875 152.737H163.057C163.278 152.737 163.478 152.781 163.656 152.872C163.893 152.959 164.055 153.12 164.141 153.358C164.201 153.503 164.239 153.681 164.249 153.886C164.266 154.091 164.271 154.312 164.271 154.55V156.583C164.271 156.934 164.255 157.268 164.228 157.575C164.195 157.883 164.066 158.115 163.829 158.26C163.65 158.406 163.424 158.482 163.143 158.482H142.364C141.948 158.482 141.592 158.46 141.279 158.417C140.972 158.374 140.74 158.233 140.594 157.996C140.475 157.818 140.416 157.592 140.416 157.311V128.154C140.416 127.89 140.475 127.685 140.594 127.534C140.713 127.329 140.934 127.183 141.258 127.092C141.317 127.065 141.376 127.054 141.436 127.07C141.495 127.086 141.555 127.075 141.614 127.048V127.043Z" fill="black"/>
<path d="M176.46 127.043H180.038C180.361 127.043 180.68 127.038 180.987 127.021C181.295 127.005 181.57 127.059 181.802 127.178C182.093 127.296 182.325 127.474 182.487 127.706C182.649 127.944 182.806 128.176 182.951 128.413L184.543 130.932C185.574 132.609 186.61 134.281 187.656 135.942C188.703 137.603 189.739 139.275 190.77 140.953C191.272 141.746 191.763 142.549 192.248 143.358C192.734 144.167 193.241 144.955 193.77 145.721C193.889 145.899 193.997 146.077 194.099 146.249C194.202 146.427 194.342 146.589 194.52 146.735C194.579 146.794 194.655 146.853 194.741 146.913C194.828 146.972 194.919 146.972 195.006 146.913C195.211 146.853 195.313 146.724 195.313 146.513C195.313 146.303 195.34 146.087 195.399 145.85C195.426 145.645 195.437 145.419 195.421 145.165C195.405 144.917 195.399 144.674 195.399 144.437V129.734C195.399 129.589 195.394 129.443 195.378 129.292C195.362 129.146 195.372 129.012 195.399 128.893V128.407C195.399 127.998 195.486 127.674 195.664 127.437C195.81 127.232 196.009 127.113 196.257 127.086C196.506 127.059 196.797 127.043 197.121 127.043H200.52C200.758 127.043 200.963 127.075 201.141 127.129C201.524 127.275 201.729 127.534 201.761 127.901C201.788 128.267 201.804 128.704 201.804 129.2V156.259C201.804 156.583 201.81 156.907 201.826 157.23C201.842 157.554 201.788 157.802 201.669 157.98C201.551 158.158 201.41 158.266 201.249 158.309C201.087 158.352 200.887 158.406 200.655 158.465H195.907C195.658 158.465 195.443 158.422 195.265 158.33C194.941 158.185 194.693 157.985 194.515 157.737C194.336 157.489 194.164 157.214 193.986 156.923C193.721 156.513 193.462 156.092 193.214 155.666C192.966 155.24 192.707 154.819 192.443 154.409L185.816 143.817C185.401 143.142 185.002 142.484 184.602 141.853C184.203 141.222 183.798 140.564 183.388 139.89C183.243 139.685 183.07 139.426 182.881 139.119C182.687 138.812 182.433 138.655 182.11 138.655C181.872 138.86 181.748 139.097 181.732 139.362C181.716 139.626 181.71 139.966 181.71 140.376V155.736C181.71 155.882 181.716 156.033 181.732 156.178C181.748 156.324 181.726 156.475 181.667 156.621V157.106C181.667 157.575 181.592 157.915 181.446 158.12C181.3 158.298 181.101 158.401 180.852 158.428C180.604 158.455 180.313 158.471 179.989 158.471H176.59C176.352 158.471 176.147 158.444 175.969 158.384C175.586 158.239 175.37 157.975 175.327 157.592C175.284 157.209 175.262 156.766 175.262 156.265V128.364C175.262 128.014 175.322 127.733 175.44 127.528C175.559 127.323 175.764 127.178 176.061 127.086C176.12 127.086 176.185 127.081 176.26 127.065C176.336 127.048 176.401 127.043 176.46 127.043Z" fill="black"/>
<path d="M213.999 127.043H234.357C234.708 127.043 235.048 127.059 235.372 127.086C235.696 127.113 235.933 127.232 236.079 127.437C236.138 127.523 236.176 127.631 236.187 127.744C236.203 127.863 236.235 127.981 236.3 128.1V128.586C236.327 128.79 236.338 129.012 236.321 129.249C236.305 129.486 236.3 129.707 236.3 129.912C236.3 130.15 236.305 130.376 236.321 130.597C236.338 130.818 236.327 131.034 236.3 131.239C236.267 131.385 236.257 131.606 236.257 131.902C236.17 132.253 236.019 132.49 235.814 132.609C235.636 132.728 235.415 132.787 235.151 132.787H223.269C223.032 132.787 222.762 132.782 222.454 132.765C222.147 132.749 221.834 132.749 221.526 132.765C221.219 132.782 220.933 132.809 220.663 132.852C220.398 132.895 220.204 132.96 220.091 133.051C219.886 133.197 219.762 133.413 219.713 133.693C219.67 133.974 219.648 134.286 219.648 134.642V138.439C219.708 138.677 219.767 138.876 219.826 139.033C219.886 139.194 219.988 139.319 220.134 139.41C220.312 139.529 220.517 139.594 220.754 139.61C220.992 139.626 221.24 139.631 221.505 139.631H231.487C231.692 139.631 231.951 139.626 232.258 139.61C232.566 139.594 232.868 139.594 233.165 139.61C233.456 139.626 233.731 139.648 233.98 139.674C234.228 139.707 234.411 139.761 234.53 139.852C234.676 139.939 234.778 140.117 234.838 140.381C234.897 140.645 234.935 140.931 234.946 141.244C234.962 141.551 234.962 141.87 234.946 142.193C234.929 142.517 234.924 142.797 234.924 143.029V143.649C234.924 143.854 234.892 144.032 234.838 144.178C234.778 144.415 234.66 144.604 234.487 144.75C234.341 144.836 234.142 144.895 233.893 144.928C233.645 144.96 233.365 144.971 233.057 144.971C232.749 144.971 232.436 144.965 232.129 144.949C231.821 144.933 231.562 144.928 231.357 144.928H222.746C222.395 144.928 222.055 144.922 221.731 144.906C221.407 144.89 221.105 144.906 220.825 144.949C220.544 144.992 220.312 145.084 220.118 145.214C219.924 145.343 219.789 145.543 219.697 145.807C219.67 145.952 219.654 146.109 219.654 146.271V150.882C219.654 151.233 219.675 151.551 219.718 151.831C219.762 152.112 219.886 152.322 220.096 152.473C220.183 152.559 220.296 152.613 220.425 152.63C220.56 152.646 220.695 152.684 220.846 152.737H221.289C221.434 152.77 221.596 152.775 221.774 152.759C221.952 152.743 222.114 152.737 222.26 152.737H235.442C235.663 152.737 235.863 152.781 236.041 152.872C236.278 152.959 236.44 153.12 236.527 153.358C236.586 153.503 236.624 153.681 236.634 153.886C236.651 154.091 236.656 154.312 236.656 154.55V156.583C236.656 156.934 236.64 157.268 236.613 157.575C236.58 157.883 236.451 158.115 236.214 158.26C236.035 158.406 235.809 158.482 235.528 158.482H214.749C214.333 158.482 213.977 158.46 213.664 158.417C213.357 158.374 213.125 158.233 212.979 157.996C212.86 157.818 212.801 157.592 212.801 157.311V128.154C212.801 127.89 212.86 127.685 212.979 127.534C213.098 127.329 213.319 127.183 213.643 127.092C213.702 127.065 213.761 127.054 213.821 127.07C213.88 127.086 213.94 127.075 213.999 127.048V127.043Z" fill="black"/>
<path d="M273.267 157.505C273.326 157.683 273.315 157.845 273.245 157.991C273.17 158.136 273.089 158.239 273.002 158.298C272.824 158.444 272.582 158.514 272.274 158.498C271.966 158.482 271.648 158.476 271.324 158.476H268.896C268.427 158.476 268.011 158.455 267.661 158.411C267.31 158.368 267.04 158.201 266.867 157.904C266.63 157.521 266.5 157.052 266.468 156.491C266.436 155.93 266.366 155.402 266.247 154.9C266.247 154.782 266.241 154.674 266.225 154.571C266.209 154.469 266.204 154.372 266.204 154.285C266.117 153.935 266.069 153.557 266.069 153.158C266.069 152.759 266.036 152.403 265.982 152.074C265.95 151.988 265.939 151.853 265.939 151.675C265.88 151.351 265.831 151.022 265.783 150.683C265.74 150.343 265.675 150.014 265.583 149.69C265.346 149.016 265.065 148.412 264.741 147.878C264.418 147.349 263.959 146.95 263.371 146.686C263.225 146.627 263.074 146.584 262.928 146.551C262.783 146.524 262.621 146.476 262.443 146.416C261.914 146.238 261.299 146.152 260.608 146.152H254.932C254.694 146.211 254.489 146.255 254.311 146.287C254.133 146.319 253.987 146.406 253.869 146.551C253.631 146.848 253.529 147.301 253.561 147.921C253.588 148.541 253.604 149.097 253.604 149.598V155.251C253.604 155.488 253.599 155.731 253.583 155.979C253.567 156.227 253.561 156.47 253.561 156.707V157.349C253.561 157.543 253.529 157.71 253.475 157.856C253.389 158.12 253.21 158.298 252.946 158.384C252.8 158.444 252.622 158.471 252.417 158.471H249.768C249.298 158.471 248.797 158.476 248.268 158.492C247.739 158.508 247.34 158.411 247.075 158.206C246.838 158.061 246.725 157.786 246.725 157.392V129.384C246.725 129.06 246.719 128.72 246.703 128.37C246.687 128.019 246.752 127.739 246.903 127.534C247.021 127.356 247.243 127.21 247.566 127.091C247.626 127.065 247.691 127.054 247.766 127.07C247.842 127.086 247.906 127.075 247.966 127.048H262.982C263.452 127.048 263.9 127.054 264.331 127.07C264.758 127.086 265.162 127.135 265.545 127.226C265.691 127.286 265.848 127.313 266.009 127.313C266.171 127.313 266.328 127.345 266.473 127.399C266.678 127.458 266.884 127.518 267.094 127.577C267.299 127.636 267.504 127.712 267.714 127.798C268.448 128.122 269.128 128.521 269.743 128.99C270.364 129.459 270.876 130.004 271.287 130.624C271.405 130.77 271.497 130.926 271.572 131.088C271.648 131.25 271.74 131.406 271.858 131.552C272.096 131.967 272.269 132.388 272.387 132.83C272.506 133.272 272.635 133.758 272.787 134.286C272.814 134.405 272.824 134.524 272.808 134.637C272.792 134.756 272.814 134.874 272.873 134.988V135.387C272.932 135.624 272.948 135.91 272.916 136.25C272.884 136.589 272.841 136.859 272.781 137.064C272.722 137.301 272.695 137.512 272.695 137.706C272.695 137.9 272.662 138.094 272.609 138.299C272.463 138.741 272.312 139.162 272.166 139.556C272.02 139.955 271.826 140.327 271.594 140.683C271.535 140.769 271.459 140.866 271.373 140.969C271.287 141.071 271.211 141.168 271.152 141.255C271.065 141.373 270.968 141.492 270.866 141.605C270.763 141.724 270.65 141.826 270.536 141.913C270.358 142.058 270.186 142.209 270.008 142.355C269.83 142.501 269.641 142.652 269.436 142.797C269.317 142.884 269.198 142.981 269.085 143.083C268.966 143.186 268.88 143.31 268.821 143.461C268.761 143.639 268.788 143.784 268.907 143.903C269.026 144.022 269.128 144.108 269.215 144.167C269.506 144.405 269.803 144.636 270.099 144.874C270.391 145.111 270.644 145.392 270.849 145.71C271.2 146.211 271.481 146.724 271.686 147.252C271.891 147.781 272.085 148.385 272.258 149.065C272.317 149.329 272.355 149.609 272.366 149.9C272.382 150.197 272.414 150.472 272.479 150.736C272.479 150.914 272.484 151.082 272.501 151.243C272.517 151.405 272.522 151.572 272.522 151.75C272.549 151.869 272.56 151.993 272.544 152.128C272.528 152.263 272.538 152.403 272.565 152.549C272.592 152.667 272.603 152.786 272.587 152.899C272.571 153.018 272.582 153.147 272.609 153.298C272.668 153.595 272.695 153.902 272.695 154.226C272.695 154.55 272.722 154.857 272.781 155.154L272.916 155.947C272.975 156.211 273.035 156.475 273.094 156.739C273.153 157.004 273.213 157.257 273.272 157.489L273.267 157.505ZM265.977 137.598C266.036 137.274 266.042 136.875 265.999 136.406C265.955 135.937 265.901 135.581 265.842 135.349C265.783 135.23 265.756 135.128 265.756 135.041C265.756 134.955 265.729 134.863 265.669 134.777C265.319 133.866 264.666 133.202 263.727 132.792C263.225 132.555 262.653 132.426 262.006 132.393C261.358 132.366 260.678 132.35 259.977 132.35H254.856C254.797 132.409 254.738 132.431 254.678 132.415C254.619 132.399 254.559 132.393 254.5 132.393C254.149 132.48 253.912 132.631 253.793 132.836C253.648 133.073 253.577 133.375 253.594 133.742C253.61 134.108 253.615 134.47 253.615 134.826V139.993C253.615 140.349 253.691 140.624 253.836 140.834C253.955 141.012 254.144 141.131 254.408 141.185C254.673 141.244 254.97 141.287 255.293 141.319C255.617 141.352 255.957 141.357 256.308 141.341C256.658 141.325 256.971 141.319 257.236 141.319H259.842C260.047 141.319 260.268 141.325 260.506 141.341C260.743 141.357 260.948 141.336 261.126 141.276H261.698C261.936 141.217 262.162 141.19 262.383 141.19C262.605 141.19 262.815 141.163 263.026 141.104C263.527 140.958 263.97 140.764 264.353 140.532C264.736 140.295 265.06 139.987 265.324 139.604C265.502 139.34 265.632 139.043 265.723 138.72C265.81 138.396 265.901 138.029 265.988 137.614L265.977 137.598Z" fill="black"/>
<path d="M311.243 141.703C311.302 141.881 311.34 142.183 311.351 142.609C311.367 143.035 311.345 143.337 311.286 143.515V144.086C311.227 144.383 311.2 144.691 311.2 145.014C311.2 145.338 311.167 145.661 311.113 145.985C311.054 146.19 311.011 146.4 310.978 146.605C310.951 146.81 310.903 147.021 310.844 147.225C310.698 147.754 310.558 148.272 310.423 148.768C310.288 149.27 310.12 149.755 309.915 150.224C309.031 152.285 307.838 154 306.338 155.37C304.838 156.74 302.982 157.791 300.775 158.525C300.451 158.643 300.127 158.73 299.804 158.789C299.48 158.848 299.156 158.908 298.832 158.967C298.687 159.026 298.53 159.053 298.368 159.053C298.206 159.053 298.05 159.07 297.904 159.097L296.447 159.231C296.329 159.258 296.124 159.269 295.827 159.253C295.53 159.237 295.341 159.215 295.255 159.188C295.109 159.156 294.969 159.15 294.834 159.167C294.705 159.183 294.564 159.172 294.413 159.145H293.928C293.69 159.086 293.469 159.048 293.264 159.037C293.059 159.021 292.838 158.983 292.6 158.929C292.363 158.87 292.131 158.821 291.893 158.773C291.656 158.73 291.424 158.676 291.187 158.617C290.863 158.498 290.528 158.379 290.194 158.266C289.854 158.147 289.525 158.018 289.201 157.867C287.436 157.101 285.942 156.082 284.717 154.798C283.497 153.52 282.499 151.993 281.738 150.23C281.56 149.82 281.415 149.383 281.296 148.93C281.177 148.471 281.048 148.013 280.897 147.538C280.837 147.393 280.81 147.269 280.81 147.161C280.81 147.053 280.794 146.95 280.767 146.832C280.708 146.627 280.665 146.411 280.632 146.19C280.6 145.969 280.557 145.742 280.497 145.505C280.465 145.359 280.46 145.219 280.476 145.084C280.492 144.949 280.47 144.825 280.411 144.707C280.379 144.529 280.379 144.345 280.411 144.157C280.438 143.968 280.438 143.779 280.411 143.606C280.352 143.461 280.325 143.229 280.325 142.921C280.325 142.614 280.352 142.382 280.411 142.237C280.438 142.091 280.438 141.951 280.411 141.816C280.379 141.681 280.379 141.546 280.411 141.395V141.131C280.47 140.926 280.492 140.726 280.476 140.538C280.46 140.349 280.481 140.16 280.541 139.987C280.6 139.842 280.627 139.685 280.627 139.524C280.627 139.362 280.654 139.205 280.713 139.06C280.859 138.558 280.978 138.067 281.069 137.582C281.156 137.097 281.291 136.617 281.469 136.147C281.706 135.646 281.927 135.149 282.132 134.648C282.337 134.146 282.591 133.677 282.882 133.235C283.767 131.822 284.782 130.646 285.931 129.702C287.08 128.758 288.478 127.949 290.129 127.275C290.512 127.129 290.917 127.011 291.343 126.924C291.769 126.838 292.19 126.736 292.6 126.617C292.746 126.558 292.886 126.531 293.021 126.531C293.156 126.531 293.291 126.515 293.442 126.488L294.769 126.353C294.829 126.326 294.91 126.326 295.012 126.353C295.115 126.38 295.196 126.38 295.255 126.353C297.343 126.293 299.156 126.509 300.689 126.995C302.221 127.48 303.586 128.149 304.795 129.001C305.178 129.265 305.577 129.567 305.987 129.907C306.397 130.247 306.737 130.592 307.002 130.943C307.147 131.088 307.293 131.245 307.444 131.406C307.59 131.568 307.725 131.725 307.843 131.87C308.167 132.339 308.491 132.82 308.815 133.305C309.138 133.79 309.419 134.314 309.651 134.874C309.829 135.29 309.98 135.683 310.115 136.066C310.25 136.449 310.385 136.859 310.536 137.301C310.622 137.598 310.698 137.895 310.757 138.208C310.817 138.515 310.892 138.833 310.978 139.157C311.038 139.362 311.065 139.561 311.065 139.75C311.065 139.939 311.092 140.128 311.151 140.3C311.21 140.478 311.232 140.662 311.216 140.85C311.2 141.045 311.21 141.212 311.237 141.357V141.713L311.243 141.703ZM304.401 143.553C304.46 143.407 304.487 143.191 304.487 142.911C304.487 142.63 304.46 142.42 304.401 142.269V141.519C304.369 141.401 304.363 141.293 304.379 141.19C304.396 141.088 304.374 140.974 304.315 140.861C304.255 140.624 304.217 140.397 304.207 140.176C304.19 139.955 304.153 139.745 304.093 139.534C304.093 139.389 304.066 139.227 304.007 139.049C303.921 138.725 303.829 138.402 303.743 138.078C303.656 137.755 303.538 137.431 303.392 137.107C302.744 135.608 301.811 134.394 300.586 133.467C299.361 132.539 297.662 132.075 295.487 132.075C295.428 132.102 295.363 132.113 295.287 132.097C295.212 132.081 295.147 132.091 295.088 132.118C294.969 132.151 294.85 132.156 294.732 132.14C294.613 132.124 294.483 132.145 294.332 132.205C294.009 132.264 293.69 132.329 293.383 132.404C293.075 132.48 292.789 132.571 292.519 132.69C291.284 133.219 290.302 133.958 289.584 134.896C288.861 135.84 288.284 136.972 287.841 138.294C287.755 138.618 287.685 138.936 287.641 139.243C287.598 139.551 287.534 139.869 287.442 140.192C287.409 140.311 287.399 140.419 287.399 140.521C287.399 140.624 287.382 140.737 287.355 140.85C287.296 140.996 287.28 141.158 287.312 141.336C287.339 141.514 287.339 141.676 287.312 141.821C287.253 141.967 287.215 142.242 287.204 142.636C287.188 143.035 287.21 143.304 287.269 143.45V143.935C287.296 144.054 287.312 144.178 287.312 144.313C287.312 144.448 287.328 144.572 287.355 144.691C287.355 144.809 287.361 144.917 287.377 145.02C287.393 145.122 287.399 145.235 287.399 145.349C287.485 145.672 287.555 145.996 287.598 146.319C287.641 146.643 287.722 146.95 287.841 147.247C288.165 148.191 288.564 149.065 289.034 149.874C289.503 150.683 290.091 151.335 290.798 151.837C290.944 151.983 291.1 152.101 291.262 152.193C291.424 152.279 291.591 152.371 291.769 152.457C292.093 152.662 292.438 152.824 292.805 152.943C293.172 153.061 293.561 153.18 293.976 153.293C294.122 153.352 294.262 153.374 294.397 153.358C294.532 153.342 294.667 153.352 294.818 153.379C294.996 153.439 295.169 153.466 295.347 153.466H296.275C296.42 153.439 296.555 153.428 296.674 153.444C296.793 153.46 296.922 153.439 297.073 153.379C297.365 153.32 297.662 153.272 297.958 153.223C298.25 153.18 298.53 153.099 298.795 152.98C300.063 152.479 301.055 151.832 301.773 151.039C302.496 150.246 303.106 149.216 303.608 147.948C303.753 147.625 303.867 147.274 303.937 146.891C304.012 146.508 304.104 146.125 304.223 145.742L304.358 144.685C304.385 144.567 304.401 144.442 304.401 144.308V143.536V143.553Z" fill="black"/>
<path d="M330.851 126.385C336.56 126.299 340.494 127.987 342.641 131.46C342.932 131.929 343.165 132.415 343.326 132.916C343.488 133.418 343.645 133.963 343.79 134.551C343.85 134.788 343.871 135.058 343.855 135.365C343.839 135.672 343.774 135.904 343.656 136.05C343.51 136.228 343.305 136.336 343.035 136.379C342.771 136.422 342.474 136.444 342.15 136.444H338.573C338.308 136.444 338.087 136.417 337.909 136.357C337.558 136.212 337.337 135.974 337.245 135.651C337.159 135.327 337.04 135.004 336.895 134.68C336.776 134.389 336.614 134.076 336.409 133.752C336.204 133.429 335.983 133.181 335.745 133.003C335.335 132.711 334.936 132.458 334.553 132.253C334.202 132.107 333.765 131.983 333.252 131.875C332.734 131.773 332.206 131.708 331.661 131.676C331.116 131.649 330.576 131.66 330.047 131.719C329.518 131.778 329.044 131.897 328.634 132.07C327.954 132.366 327.436 132.711 327.063 133.105C326.696 133.504 326.437 134.098 326.292 134.896C326.232 135.101 326.216 135.333 326.249 135.581C326.276 135.829 326.324 136.028 326.383 136.174C326.621 136.794 326.95 137.226 327.376 137.474C327.803 137.722 328.31 137.965 328.898 138.202C329.222 138.348 329.551 138.461 329.891 138.531C330.231 138.606 330.576 138.698 330.927 138.817C331.72 139.081 332.54 139.308 333.376 139.502C334.218 139.696 335.049 139.906 335.869 140.144C336.015 140.203 336.161 140.23 336.312 140.23C336.463 140.23 336.603 140.262 336.754 140.316C337.342 140.521 337.952 140.715 338.589 140.888C339.22 141.066 339.787 141.314 340.289 141.638C341.082 142.139 341.767 142.641 342.344 143.137C342.916 143.639 343.456 144.286 343.958 145.079C344.103 145.316 344.227 145.58 344.335 145.871C344.438 146.168 344.546 146.459 344.665 146.756C344.692 146.842 344.708 146.923 344.708 146.999C344.708 147.074 344.724 147.139 344.751 147.198C344.87 147.667 344.929 148.255 344.929 148.962C344.988 149.108 344.988 149.259 344.929 149.404V150.197C344.87 150.521 344.821 150.828 344.772 151.125C344.729 151.421 344.665 151.713 344.573 152.009C344.395 152.538 344.206 153.023 344.001 153.465C343.796 153.908 343.542 154.334 343.251 154.744C343.132 154.889 343.013 155.019 342.9 155.121C342.781 155.224 342.679 155.348 342.593 155.499C342.447 155.677 342.285 155.844 342.107 156.006C341.929 156.168 341.74 156.324 341.535 156.47C341.389 156.588 341.233 156.707 341.071 156.82C340.909 156.939 340.742 157.058 340.564 157.176C340.062 157.5 339.539 157.764 338.994 157.969C338.449 158.174 337.882 158.384 337.294 158.589C336.878 158.735 336.457 158.832 336.015 158.875C335.573 158.918 335.13 158.983 334.688 159.075C334.483 159.134 334.283 159.156 334.094 159.139C333.9 159.123 333.716 159.145 333.544 159.204H333.193C333.134 159.204 333.053 159.199 332.95 159.183C332.848 159.166 332.767 159.177 332.707 159.204C332.562 159.231 332.308 159.247 331.957 159.247C331.607 159.247 331.353 159.231 331.207 159.204H330.765C330.56 159.145 330.344 159.123 330.123 159.139C329.902 159.156 329.702 159.134 329.529 159.075C329.384 159.075 329.249 159.069 329.13 159.053C329.011 159.037 328.882 159.015 328.731 158.988C328.375 158.902 328.008 158.827 327.625 158.767C327.241 158.708 326.891 158.622 326.567 158.503C325.126 158.034 323.858 157.435 322.768 156.712C321.678 155.99 320.766 155.04 320.033 153.865C319.563 153.158 319.196 152.322 318.926 151.346C318.867 151.168 318.829 150.995 318.818 150.817C318.802 150.639 318.765 150.451 318.711 150.246C318.651 150.008 318.608 149.722 318.576 149.383C318.543 149.043 318.603 148.789 318.754 148.611C318.899 148.374 319.115 148.234 319.396 148.191C319.676 148.148 319.995 148.126 320.346 148.126H323.88C324.144 148.126 324.382 148.169 324.587 148.261C324.91 148.406 325.099 148.649 325.159 148.989C325.218 149.329 325.32 149.674 325.466 150.024C325.585 150.375 325.731 150.704 325.909 150.995C326.087 151.292 326.276 151.567 326.481 151.831C326.626 152.009 326.788 152.171 326.966 152.317C327.144 152.462 327.317 152.597 327.495 152.716C328.143 153.131 328.936 153.465 329.88 153.73C330.085 153.789 330.285 153.816 330.479 153.816C330.673 153.816 330.884 153.848 331.121 153.902H331.342C331.58 153.962 331.903 153.989 332.313 153.989C332.724 153.989 333.047 153.962 333.285 153.902C333.371 153.875 333.522 153.859 333.727 153.859C333.873 153.832 334.029 153.811 334.191 153.794C334.353 153.778 334.51 153.746 334.655 153.687C335.654 153.422 336.452 153.066 337.04 152.629C337.628 152.187 338.038 151.454 338.276 150.424C338.335 150.219 338.341 149.981 338.297 149.717C338.254 149.453 338.2 149.248 338.141 149.097C337.844 148.304 337.348 147.684 336.641 147.241C336.555 147.182 336.393 147.096 336.155 146.977C335.713 146.713 335.222 146.497 334.677 146.335C334.132 146.173 333.592 146.006 333.064 145.828C332.858 145.769 332.659 145.72 332.47 145.672C332.276 145.629 332.065 145.575 331.828 145.515C331.358 145.37 330.878 145.246 330.393 145.138C329.907 145.035 329.443 144.911 329 144.76C328.855 144.701 328.736 144.674 328.65 144.674C328.563 144.674 328.455 144.647 328.342 144.588C328.105 144.528 327.894 144.469 327.7 144.41C327.506 144.35 327.295 144.291 327.058 144.232C326.378 143.995 325.731 143.752 325.115 143.504C324.495 143.256 323.923 142.964 323.394 142.641C322.714 142.198 322.099 141.686 321.538 141.098C320.977 140.51 320.534 139.831 320.211 139.07C320.092 138.806 320.006 138.531 319.946 138.256C319.887 137.975 319.811 137.673 319.725 137.35C319.666 137.085 319.622 136.703 319.59 136.201C319.558 135.699 319.574 135.289 319.633 134.966C319.66 134.847 319.676 134.675 319.676 134.437C319.763 134.114 319.838 133.806 319.898 133.51C319.957 133.218 320.043 132.922 320.162 132.625C320.605 131.595 321.171 130.721 321.862 129.998C322.552 129.276 323.356 128.623 324.268 128.035C324.856 127.685 325.488 127.404 326.168 127.199C326.842 126.994 327.565 126.8 328.331 126.628C328.623 126.568 328.914 126.53 329.195 126.52C329.475 126.503 329.761 126.471 330.058 126.412C330.144 126.385 330.285 126.385 330.479 126.412C330.668 126.444 330.797 126.428 330.857 126.369L330.851 126.385Z" fill="black"/>
<path d="M356.465 127.092H360.264C360.588 127.092 360.895 127.097 361.192 127.113C361.483 127.13 361.705 127.237 361.856 127.442C362.001 127.647 362.082 127.912 362.099 128.235C362.115 128.559 362.12 128.915 362.12 129.292V155.688C362.12 156.071 362.126 156.497 362.142 156.966C362.158 157.436 362.088 157.791 361.942 158.023C361.823 158.228 361.559 158.39 361.149 158.509C360.944 158.568 360.723 158.584 360.485 158.552C360.248 158.52 360.016 158.509 359.778 158.509H357.172C356.848 158.509 356.546 158.493 356.266 158.466C355.985 158.439 355.758 158.347 355.58 158.201C355.435 158.056 355.343 157.835 355.316 157.538C355.284 157.247 355.273 156.934 355.273 156.61V130.215C355.273 129.805 355.267 129.319 355.251 128.758C355.235 128.198 355.3 127.804 355.451 127.566C355.57 127.388 355.758 127.243 356.023 127.124C356.109 127.124 356.19 127.119 356.266 127.103C356.341 127.086 356.406 127.081 356.465 127.081V127.092Z" fill="black"/>
<path d="M390.518 127.043H395.024C395.407 127.043 395.779 127.048 396.152 127.065C396.519 127.081 396.821 127.162 397.058 127.307C397.144 127.367 397.215 127.464 397.258 127.593C397.301 127.728 397.339 127.863 397.366 128.014V128.235C397.393 128.354 397.409 128.483 397.409 128.634V130.797C397.409 131.002 397.414 131.201 397.43 131.39C397.447 131.584 397.425 131.768 397.366 131.94C397.22 132.442 396.923 132.706 396.481 132.733C396.038 132.765 395.51 132.776 394.889 132.776H390.383C389.795 132.776 389.288 132.798 388.862 132.841C388.436 132.884 388.15 133.159 387.999 133.655C387.972 133.801 387.972 133.936 387.999 134.055C388.025 134.173 388.015 134.303 387.955 134.454C387.923 134.632 387.918 134.831 387.934 135.047C387.95 135.268 387.955 135.468 387.955 135.64V156.432C387.955 156.901 387.934 157.306 387.891 157.646C387.847 157.985 387.664 158.228 387.34 158.374C387.135 158.433 386.898 158.46 386.633 158.46H382.878C382.554 158.46 382.252 158.444 381.971 158.417C381.691 158.39 381.48 158.282 381.329 158.109C381.184 157.872 381.108 157.57 381.108 157.203V135.64C381.108 135.435 381.113 135.22 381.13 134.998C381.146 134.777 381.124 134.578 381.065 134.405C381.033 134.259 381.033 134.125 381.065 134.006C381.092 133.887 381.081 133.769 381.022 133.655C380.876 133.154 380.574 132.884 380.115 132.841C379.657 132.798 379.122 132.776 378.502 132.776H374.396C374.072 132.776 373.71 132.782 373.311 132.798C372.912 132.814 372.599 132.792 372.361 132.733C372.124 132.647 371.951 132.512 371.833 132.334C371.746 132.188 371.692 131.994 371.676 131.762C371.66 131.525 371.655 131.293 371.655 131.056V128.893C371.655 128.51 371.676 128.17 371.719 127.879C371.762 127.588 371.903 127.367 372.14 127.216C372.226 127.156 372.388 127.097 372.626 127.038H390.513L390.518 127.043Z" fill="black"/>
<path d="M405.486 127H410.477C410.861 127 411.168 127.059 411.406 127.178C411.729 127.323 412.005 127.604 412.22 128.014C412.442 128.429 412.652 128.78 412.862 129.071C413.364 129.864 413.834 130.662 414.276 131.455C414.719 132.248 415.188 133.046 415.69 133.839C416.073 134.427 416.424 135.025 416.747 135.624C417.071 136.228 417.422 136.821 417.805 137.415C417.951 137.652 418.096 137.905 418.248 138.186C418.393 138.466 418.631 138.633 418.954 138.693C419.159 138.72 419.337 138.65 419.483 138.472C419.629 138.294 419.748 138.148 419.834 138.029C420.098 137.619 420.341 137.204 420.562 136.794C420.784 136.384 421.026 135.969 421.291 135.559C421.911 134.561 422.51 133.553 423.104 132.533C423.692 131.519 424.296 130.495 424.917 129.465C425.154 129.082 425.402 128.639 425.667 128.138C425.931 127.636 426.271 127.302 426.681 127.124C426.946 126.978 427.366 126.919 427.938 126.946C428.51 126.973 429.007 126.989 429.417 126.989H431.888C432.126 126.989 432.368 126.994 432.617 127.011C432.865 127.027 433.064 127.075 433.21 127.167C433.448 127.313 433.502 127.544 433.388 127.852C433.27 128.159 433.167 128.391 433.081 128.537C432.73 129.125 432.379 129.707 432.045 130.279C431.705 130.851 431.359 131.433 431.009 132.021C430.01 133.612 429.045 135.198 428.116 136.789C427.188 138.38 426.239 139.966 425.267 141.557C424.944 142.026 424.642 142.506 424.361 142.991C424.08 143.477 423.794 143.968 423.498 144.469C423.26 144.793 423.05 145.116 422.856 145.44C422.661 145.764 422.51 146.13 422.391 146.546C422.365 146.691 422.354 146.832 422.37 146.966C422.386 147.101 422.375 147.241 422.348 147.387C422.316 147.473 422.305 147.581 422.305 147.694V155.154C422.305 155.715 422.311 156.319 422.327 156.966C422.343 157.613 422.17 158.039 421.82 158.244C421.641 158.363 421.415 158.422 421.134 158.422H417.228C416.904 158.422 416.607 158.406 416.343 158.379C416.078 158.352 415.873 158.244 415.722 158.072C415.577 157.894 415.501 157.689 415.501 157.451C415.501 157.214 415.485 156.939 415.458 156.615V146.923C415.458 146.734 415.425 146.562 415.372 146.416C415.253 145.974 415.091 145.58 414.886 145.224C414.681 144.874 414.46 144.534 414.222 144.21C413.958 143.741 413.693 143.277 413.429 142.819C413.165 142.36 412.884 141.902 412.593 141.427C412.355 141.104 412.15 140.758 411.972 140.392C411.794 140.025 411.589 139.68 411.352 139.356C410.585 138.148 409.852 136.945 409.145 135.737C408.438 134.529 407.715 133.326 406.981 132.118C406.63 131.53 406.29 130.964 405.967 130.419C405.643 129.874 405.319 129.308 404.995 128.72C404.909 128.602 404.779 128.402 404.618 128.122C404.456 127.841 404.434 127.598 404.553 127.393C404.612 127.275 404.693 127.194 404.796 127.151C404.898 127.108 405.012 127.07 405.125 127.043C405.184 127.016 405.244 127.005 405.303 127.021C405.362 127.037 405.422 127.027 405.481 127H405.486Z" fill="black"/>
<path d="M60.6873 229.487H66.0237L126.128 171.216H120.786L60.6873 229.487Z" fill="#231815"/>
<path d="M250.135 51.0005H244.793L178.824 114.951H184.166L250.135 51.0005Z" fill="#231815"/>
<path d="M83.8299 81.2202H78.0132L118.649 114.951H124.466L83.8299 81.2202Z" fill="#040000"/>
<path d="M216.476 196.161H222.292L192.248 171.216H186.432L216.476 196.161Z" fill="#040000"/>
</g>
</g>
<defs>
<clipPath id="clip0_899_310">
<rect width="500" height="281" fill="white"/>
</clipPath>
<clipPath id="clip1_899_310">
<rect width="518" height="281" fill="white" transform="translate(-9)"/>
</clipPath>
</defs>
</svg>
