<svg width="500" height="281" viewBox="0 0 500 281" fill="none" xmlns="http://www.w3.org/2000/svg">
<rect width="500" height="281" fill="white"/>
<g clip-path="url(#clip0_824_11259)">
<path d="M190.007 50.2362C189.465 49.8309 188.705 49.9491 188.299 50.4896C187.977 50.9288 187.977 51.5199 188.299 51.9422C214.423 87.7166 214.423 136.26 188.299 172.035C187.893 172.575 188.011 173.335 188.552 173.741C188.992 174.062 189.584 174.062 190.007 173.741C225.82 147.645 274.417 147.645 310.23 173.741C310.771 174.146 311.532 174.028 311.938 173.487C312.259 173.048 312.259 172.457 311.938 172.035C285.813 136.26 285.813 87.7335 311.938 51.9422C312.344 51.4017 312.226 50.6416 311.684 50.2362C311.245 49.9153 310.653 49.9153 310.23 50.2362C292.78 62.9887 271.728 69.8294 250.118 69.8125C228.509 69.8463 207.457 62.9887 190.007 50.2362Z" fill="#2F2725"/>
<path d="M157 200.749H163.003V214.903H178.61V200.749H184.613V234.986H178.61V219.785H163.003V234.986H157V200.749Z" fill="#2F2725"/>
<path d="M188.891 200.749H213.561V205.934H194.893V214.903H212.174V219.802H194.893V229.818H213.899V235.003H188.891V200.766V200.749Z" fill="#2F2725"/>
<path d="M217.619 200.749H223.96L239.618 225.984H239.719V200.749H245.434V234.986H239.093L223.486 209.802H223.334V234.986H217.619V200.749Z" fill="#2F2725"/>
<path d="M249.527 200.749H255.868L271.525 225.984H271.627V200.749H277.342V234.986H271.001L255.394 209.802H255.242V234.986H249.527V200.749Z" fill="#2F2725"/>
<path d="M317.991 200.749H342.662V205.934H323.994V214.903H341.275V219.802H323.994V229.818H343V235.003H317.991V200.766V200.749Z" fill="#2F2725"/>
<path d="M300.034 216.897V222.082H308.641C308.37 224.464 307.17 226.626 305.293 228.129C303.433 229.767 301.049 230.663 298.563 230.663C298.563 230.663 298.546 230.663 298.529 230.663C295.452 230.612 292.509 229.396 290.294 227.251C287.623 224.903 286.135 221.474 286.236 217.91C286.152 214.498 287.471 211.188 289.889 208.772C292.256 206.323 295.519 204.989 298.918 205.073C303.027 205.141 306.831 207.218 309.097 210.63L309.266 210.85L313.341 206.965L313.206 206.796C311.363 204.567 309.08 202.709 306.527 201.357C299.561 198.182 291.343 199.634 285.881 205.006C278.813 212.1 278.762 223.552 285.78 230.696C289.06 234.125 293.625 236.051 298.377 236C298.512 236 298.647 236 298.783 236C303.399 236 307.795 234.007 310.805 230.511C312.192 228.99 313.24 227.183 313.883 225.224C314.542 222.96 314.846 220.63 314.813 218.265V216.88H300.051L300.034 216.897Z" fill="#2F2725"/>
</g>
<defs>
<clipPath id="clip0_824_11259">
<rect width="186" height="186" fill="white" transform="translate(157 50)"/>
</clipPath>
</defs>
</svg>
