<svg width="500" height="281" viewBox="0 0 500 281" fill="none" xmlns="http://www.w3.org/2000/svg">
<rect width="500" height="281" fill="white"/>
<g clip-path="url(#clip0_1247_353)">
<path d="M116.373 105.586C107.665 105.555 99.1346 108.04 91.8083 112.745V102.129C91.6366 90.5674 83.23 81.2583 72.8908 81.2583V146.445C72.8908 146.499 72.8929 146.556 72.8929 146.61C72.8929 146.589 72.8887 146.57 72.8887 146.55V187.513H91.8062V180.262C106.794 189.808 125.952 189.808 140.94 180.262C145.718 177.186 149.828 173.185 153.029 168.491C157.472 161.998 159.851 154.313 159.857 146.447V124.504H164.283C176.662 124.332 186.633 115.928 186.633 105.586H116.371H116.373ZM140.946 146.447C140.946 158.614 129.941 168.493 116.375 168.493C102.809 168.493 91.8314 158.641 91.8104 146.48C91.8523 134.345 102.834 124.506 116.375 124.506H140.948V146.449L140.946 146.447Z" fill="black"/>
<path d="M227.868 163.621H222.405V181.27H219.505V163.621H213.959V161.023H227.866V163.621H227.868Z" fill="black"/>
<path d="M246.729 174.515H235.525C235.498 177.085 237.552 179.189 240.113 179.216C240.251 179.216 240.391 179.212 240.529 179.201C242.334 179.208 244.083 178.582 245.477 177.434L246.189 179.658C244.497 180.946 242.42 181.62 240.297 181.569C236.35 181.773 232.987 178.728 232.786 174.773C232.776 174.557 232.774 174.342 232.782 174.126C232.782 169.763 235.854 166.626 239.92 166.626C243.986 166.626 246.717 169.706 246.717 174.162L246.729 174.515ZM243.942 172.577C243.796 170.466 242.041 168.833 239.933 168.841C237.786 168.877 235.977 170.451 235.638 172.577H243.942Z" fill="black"/>
<path d="M252.115 174.145C252.115 169.664 255.186 166.609 259.508 166.609C261.237 166.597 262.931 167.105 264.372 168.071L263.518 170.439C262.404 169.597 261.051 169.138 259.659 169.128C256.843 169.128 254.937 171.121 254.937 174.09C254.937 177.059 256.815 179.08 259.573 179.08C261.12 179.038 262.621 178.542 263.892 177.654L264.546 179.963C263.019 181.027 261.2 181.586 259.34 181.561C255.128 181.561 252.115 178.567 252.115 174.147V174.145Z" fill="black"/>
<path d="M283.779 172.321V181.284H281.078V173.234C281.078 170.438 279.941 169.042 277.695 169.042C275.481 168.958 273.622 170.69 273.538 172.909C273.534 173.037 273.534 173.164 273.543 173.29V181.276H270.842V159.831H273.543V169.36C274.579 167.545 276.551 166.475 278.633 166.594C281.903 166.59 283.779 168.502 283.779 172.323V172.321Z" fill="black"/>
<path d="M304.351 172.345V181.267H301.65V173.254C301.65 170.459 300.513 169.062 298.266 169.062C296.066 168.964 294.204 170.674 294.108 172.879C294.102 173.032 294.104 173.187 294.114 173.34V181.267H291.411V166.899H294.112V169.412C295.159 167.59 297.136 166.51 299.232 166.617C302.502 166.612 304.351 168.553 304.351 172.343V172.345Z" fill="black"/>
<path d="M310.873 174.092C310.873 169.76 314.001 166.622 318.495 166.622C322.988 166.622 326.145 169.758 326.145 174.092C326.145 178.426 323.017 181.563 318.495 181.563C313.972 181.563 310.873 178.458 310.873 174.092ZM323.356 174.092C323.314 171.406 321.112 169.264 318.434 169.304C315.756 169.346 313.618 171.555 313.66 174.241C313.7 176.892 315.852 179.023 318.495 179.029C321.059 179.151 323.239 177.164 323.361 174.591C323.369 174.425 323.367 174.258 323.356 174.09V174.092Z" fill="black"/>
<path d="M332.722 177.767V159.83H335.429V177.348C335.429 178.632 335.942 179.145 336.795 179.145C337.278 179.132 337.753 179.015 338.187 178.8L338.558 181.023C337.785 181.392 336.939 181.576 336.083 181.565C334.006 181.561 332.72 180.393 332.72 177.769L332.722 177.767Z" fill="black"/>
<path d="M343.199 174.092C343.199 169.76 346.327 166.622 350.821 166.622C355.314 166.622 358.471 169.758 358.471 174.092C358.471 178.426 355.343 181.563 350.821 181.563C346.298 181.563 343.199 178.458 343.199 174.092ZM355.685 174.092C355.643 171.406 353.44 169.264 350.762 169.304C348.084 169.346 345.946 171.555 345.988 174.241C346.028 176.892 348.178 179.021 350.823 179.029C353.388 179.151 355.567 177.166 355.689 174.593C355.697 174.425 355.695 174.26 355.685 174.092Z" fill="black"/>
<path d="M378.813 166.902V180.79C378.813 185.294 375.685 187.547 371.248 187.547C369.037 187.637 366.862 186.973 365.078 185.665L365.846 183.098C367.335 184.415 369.265 185.118 371.25 185.066C374.209 185.066 376.114 183.64 376.114 180.759V178.456C375.057 180.298 373.055 181.389 370.938 181.278C366.899 181.278 363.999 178.255 363.999 174.002C363.999 169.75 366.815 166.615 370.938 166.615C373.047 166.542 375.029 167.622 376.114 169.438V166.894L378.815 166.9L378.813 166.902ZM376.198 173.919C376.259 171.27 374.167 169.076 371.527 169.015C371.51 169.015 371.493 169.015 371.476 169.015C368.901 168.979 366.784 171.044 366.746 173.627C366.746 173.745 366.746 173.86 366.755 173.977C366.671 176.592 368.719 178.78 371.326 178.864C373.934 178.948 376.114 176.896 376.198 174.281C376.202 174.161 376.202 174.042 376.196 173.921L376.198 173.919Z" fill="black"/>
<path d="M386.077 162.281C386.06 161.286 386.851 160.465 387.844 160.449C387.865 160.449 387.886 160.449 387.907 160.449C388.912 160.543 389.651 161.435 389.559 162.442C389.477 163.321 388.784 164.017 387.907 164.098C386.914 164.115 386.096 163.321 386.079 162.327C386.079 162.312 386.079 162.295 386.079 162.281H386.077ZM386.504 166.9H389.211V181.274H386.51L386.504 166.9Z" fill="black"/>
<path d="M409.78 174.515H398.576C398.549 177.085 400.603 179.189 403.164 179.216C403.302 179.216 403.442 179.212 403.581 179.201C405.386 179.208 407.134 178.582 408.528 177.434L409.24 179.658C407.548 180.946 405.471 181.62 403.348 181.569C399.401 181.773 396.039 178.728 395.838 174.773C395.827 174.557 395.825 174.342 395.834 174.126C395.834 169.763 398.905 166.626 402.971 166.626C407.038 166.626 409.78 169.7 409.78 174.147V174.518V174.515ZM406.994 172.577C406.847 170.466 405.092 168.833 402.984 168.841C400.838 168.877 399.029 170.451 398.689 172.577H406.994Z" fill="black"/>
<path d="M415.419 180.049L416.072 177.796C417.398 178.835 419.027 179.406 420.708 179.425C422.385 179.425 423.438 178.713 423.438 177.457C423.438 176.201 422.243 175.746 420.111 175.089C417.892 174.404 415.817 173.577 415.817 170.924C415.817 168.271 417.951 166.617 421.098 166.617C422.674 166.613 424.224 167.026 425.589 167.815L425.063 170.034C423.878 169.228 422.486 168.784 421.054 168.751C419.546 168.751 418.495 169.406 418.495 170.583C418.495 171.894 419.833 172.323 421.51 172.779C424.15 173.491 426.089 174.461 426.089 177.057C426.089 179.653 424.069 181.561 420.572 181.561C418.74 181.603 416.939 181.073 415.421 180.045L415.419 180.049Z" fill="black"/>
<path d="M238.729 147.526L223.75 126.307V147.526H213.957V106.028H223.748V126.192L238.082 106.028H249.271L234.937 125.608L250.789 147.523H238.727L238.729 147.526Z" fill="black"/>
<path d="M266.018 106.028H275.81V147.526H266.018V106.028Z" fill="black"/>
<path d="M332.412 106.029V147.526H322.967L304.904 121.043V147.52H295.578V106.022H305.077L323.086 132.499V106.029H332.412Z" fill="black"/>
<path d="M377.661 114.563H367.171V147.525H357.381V114.563H346.771V106.03H377.659V114.563H377.661Z" fill="black"/>
<path d="M385.848 126.779C385.848 113.803 395.174 105.447 407.645 105.447C420.115 105.447 429.441 113.862 429.441 126.605C429.441 139.348 420.174 148.112 407.586 148.112C394.998 148.112 385.848 139.754 385.848 126.781V126.779ZM419.242 126.779C419.242 119.649 414.464 114.739 407.645 114.739C400.825 114.739 396.106 119.649 396.106 126.779C396.106 133.908 400.827 138.818 407.645 138.818C414.462 138.818 419.255 133.849 419.255 126.779H419.242Z" fill="black"/>
</g>
<defs>
<clipPath id="clip0_1247_353">
<rect width="418.762" height="157.31" fill="white" transform="translate(41 62)"/>
</clipPath>
</defs>
</svg>
