<svg width="500" height="281" viewBox="0 0 500 281" fill="none" xmlns="http://www.w3.org/2000/svg">
<rect width="500" height="281" fill="white"/>
<g clip-path="url(#clip0_824_11286)">
<path d="M378.258 105.805C375.71 105.805 374.838 108.078 374.838 108.078L353.915 160.148L333.059 108.078C333.059 108.078 332.12 105.805 329.639 105.805C325.816 105.805 318.909 105.805 317.568 105.805C315.757 105.805 313.074 107.409 314.08 110.751C315.288 113.692 335.674 164.56 340.234 175.99C341.24 178.262 343.319 178.262 343.588 178.262C343.856 178.262 363.773 178.262 364.108 178.262C364.444 178.262 366.59 178.262 367.529 175.923C372.29 164.159 395.694 105.805 395.694 105.805C395.694 105.805 380.807 105.805 378.258 105.805Z" fill="black"/>
<path d="M268.546 104C247.488 104 230.387 121.045 230.387 142.033C230.387 163.022 247.488 180.067 268.546 180.067C289.603 180.067 306.704 163.022 306.704 142.033C306.704 121.045 289.603 104 268.546 104ZM268.546 161.953C257.48 161.953 248.561 153.062 248.561 142.033C248.561 131.004 257.48 122.114 268.546 122.114C279.611 122.114 288.53 131.004 288.53 142.033C288.53 153.062 279.611 161.953 268.546 161.953Z" fill="black"/>
<path d="M183.243 105.805C173.989 105.805 165.606 109.682 159.637 115.831C153.669 109.615 145.286 105.805 136.032 105.805C130.063 105.805 124.43 107.409 119.602 110.217L117.858 105.805C117.858 105.805 109.14 105.805 106.994 105.805C104.915 105.805 103.306 107.476 103.306 109.414C103.306 110.952 103.306 172.781 103.306 174.586C103.306 176.658 104.915 178.195 106.927 178.195C108.201 178.195 113.968 178.195 117.791 178.195C119.87 178.195 121.412 176.391 121.412 174.586C121.412 172.781 121.412 138.357 121.412 138.357C121.412 130.336 127.917 123.852 135.965 123.852C143.945 123.852 150.45 130.336 150.517 138.29V138.357C150.517 138.357 150.517 172.714 150.517 174.519C150.517 176.324 151.925 178.129 154.138 178.129C155.346 178.129 161.113 178.129 165.002 178.129C167.819 178.129 168.624 175.655 168.624 174.519C168.624 173.583 168.624 138.357 168.624 138.357C168.624 130.403 175.129 123.919 183.176 123.919C191.224 123.919 197.728 130.403 197.728 138.424C197.728 138.424 197.728 172.848 197.728 174.653C197.728 176.725 199.338 178.262 201.35 178.262C203.16 178.262 215.902 178.262 215.902 178.262V138.424C215.902 120.377 201.283 105.805 183.243 105.805Z" fill="black"/>
</g>
<defs>
<clipPath id="clip0_824_11286">
<rect width="292.389" height="76" fill="white" transform="translate(103.306 104)"/>
</clipPath>
</defs>
</svg>
