<svg width="500" height="281" viewBox="0 0 500 281" fill="none" xmlns="http://www.w3.org/2000/svg">
<rect width="500" height="281" fill="white"/>
<g clip-path="url(#clip0_1247_380)">
<path d="M198.415 112.068H170.538V168.337H184.606V154.27H197.219C209.739 154.27 219.774 146.087 219.774 133.169C219.774 121.774 211.732 112.068 198.415 112.068ZM197.618 140.202H184.606V126.135H197.383C203.526 126.135 207.277 127.659 207.277 133.169H207.348C207.348 137.952 203.761 140.202 197.618 140.202Z" fill="#181616"/>
<path d="M247.908 112.068H233.841V168.337H269.009V154.27H247.908V112.068Z" fill="#181616"/>
<path d="M411.511 112.068H388.581V168.337H411.511C429.048 168.337 441.334 155.911 441.334 140.202C441.334 124.494 429.048 112.068 411.511 112.068ZM411.511 154.27H402.649V126.135H411.511C421.546 126.135 428.321 130.308 428.321 140.202C428.321 150.096 421.546 154.27 411.511 154.27Z" fill="#181616"/>
<path d="M367.48 112.068H353.413V168.337H367.48V112.068Z" fill="#181616"/>
<path d="M325.279 168.337H339.346L318.245 112.068H304.178L283.077 168.337H297.144L299.77 161.303H322.629L325.255 168.337H325.279ZM305.069 147.236L311.211 130.824L317.354 147.236H305.045H305.069Z" fill="#181616"/>
<g style="mix-blend-mode:multiply" opacity="0.8">
<path d="M133.025 126.135L104.891 98L58 144.891L86.1345 173.025L133.025 126.135Z" fill="#BF0023"/>
</g>
<g style="mix-blend-mode:multiply" opacity="0.8">
<path d="M95.5127 126.134L76.7564 107.377L58 126.134L95.5127 163.646L114.269 144.89L95.5127 126.134Z" fill="#BF0023"/>
</g>
<g style="mix-blend-mode:multiply" opacity="0.8">
<path d="M95.5127 144.89L76.7564 126.134L58 144.89L95.5127 182.403L114.269 163.646L95.5127 144.89Z" fill="#BF0023"/>
</g>
<g style="mix-blend-mode:multiply" opacity="0.8">
<path d="M133.025 126.135C121.209 120.226 107.329 119.851 95.5127 125.736C83.6962 131.644 69.8165 132.02 58 126.135V144.891L95.5127 182.404L114.269 163.647L133.025 126.135Z" fill="#BF0023"/>
</g>
</g>
<defs>
<clipPath id="clip0_1247_380">
<rect width="383.333" height="84.4036" fill="white" transform="translate(58 98)"/>
</clipPath>
</defs>
</svg>
