<svg width="500" height="281" viewBox="0 0 500 281" fill="none" xmlns="http://www.w3.org/2000/svg">
<rect width="500" height="281" fill="white"/>
<g clip-path="url(#clip0_1214_433)">
<path d="M250.453 86.1456L168.729 59.4038V159.724L250.404 133.003L332.169 159.724V59.4038L250.446 86.1456H250.453ZM174.31 111.034V67.0961L241.492 89.079L174.31 111.034ZM326.581 152.032L259.399 130.049L326.581 108.045V152.032Z" fill="#4CACE2"/>
<path d="M96.8095 203.787L94.6496 202.882C90.0997 200.938 89.166 199.307 89.166 197.454C89.166 196.436 89.612 193.12 95.3115 193.12C98.2449 193.12 100.844 193.698 102.453 194.708C102.837 194.938 103.129 194.813 103.241 194.75C103.471 194.618 103.603 194.374 103.603 194.081V190.709C103.603 190.542 103.603 190.026 103.094 189.775C101.45 188.877 98.649 188.354 95.416 188.354C88.5459 188.354 84.1075 192.061 84.1075 197.802C84.1075 200.715 85.0133 204.449 92.0576 207.466L94.2524 208.365C98.9555 210.483 99.8962 212.128 99.8962 214.099C99.8962 217.075 97.5063 218.789 93.3466 218.789C90.3018 218.789 87.2778 217.925 85.0412 216.427C84.7904 216.238 84.5117 216.204 84.2748 216.322C84.0379 216.441 83.8985 216.684 83.8985 216.97V220.593C83.8985 220.809 83.8985 221.388 84.4698 221.638C86.6019 222.886 89.7792 223.603 93.1933 223.603C100.426 223.603 105.101 219.736 105.101 213.758C105.101 209.299 102.544 206.226 96.8026 203.794L96.8095 203.787Z" fill="#231815"/>
<path d="M120.158 197.161C113.169 197.161 108.097 202.721 108.097 210.379C108.097 216.956 111.825 223.596 120.158 223.596C127.202 223.596 132.121 218.141 132.121 210.33C132.121 202.519 127.314 197.161 120.158 197.161ZM120.256 218.991C116.096 218.991 113.309 215.493 113.309 210.281C113.309 205.069 115.977 201.774 119.956 201.774C125.042 201.774 126.854 206.247 126.854 210.434C126.854 216.35 123.537 218.991 120.256 218.991Z" fill="#231815"/>
<path d="M153.456 197.858H153.449C152.397 197.391 150.718 197.161 148.474 197.161C140.455 197.161 134.853 202.638 134.853 210.476C134.853 217.005 138.845 223.596 147.771 223.596C149.29 223.596 151.519 223.513 153.373 222.774C153.951 222.635 153.951 222.147 153.951 221.945V218.83C153.951 218.531 153.819 218.357 153.714 218.273C153.449 218.057 153.108 218.141 152.976 218.175C151.854 218.621 150.384 218.844 148.481 218.844C144.628 218.844 140.12 216.615 140.12 210.337C140.12 205.278 143.479 201.878 148.481 201.878C150.363 201.878 151.659 202.087 152.99 202.617C153.108 202.645 153.435 202.728 153.693 202.519C153.812 202.429 153.951 202.254 153.951 201.934V198.764C153.951 198.485 153.951 198.102 153.463 197.865L153.456 197.858Z" fill="#231815"/>
<path d="M160.647 187.706C158.849 187.706 157.588 188.96 157.588 190.764C157.588 192.569 158.794 193.823 160.598 193.823C162.403 193.823 163.657 192.562 163.657 190.764C163.657 188.967 162.452 187.706 160.647 187.706Z" fill="#231815"/>
<path d="M162.403 197.663H158.828C158.306 197.663 157.985 197.99 157.985 198.506V222.196C157.985 222.739 158.334 223.094 158.884 223.094H162.354C162.737 223.094 163.197 222.948 163.197 222.251V198.464C163.197 197.969 162.898 197.67 162.403 197.67V197.663Z" fill="#231815"/>
<path d="M187.876 218.329V207.111C187.876 200.882 184.288 197.161 178.282 197.161C175.599 197.161 172.973 197.726 170.868 198.757C170.743 198.84 170.395 199.07 170.395 199.572V202.638C170.395 202.902 170.499 203.125 170.694 203.265C170.896 203.411 171.168 203.439 171.475 203.327C173.223 202.38 175.349 201.878 177.627 201.878C182.442 201.878 182.818 205.348 182.818 206.414V207.09C182.065 207.048 181.069 207.027 179.843 207.027C172.513 207.027 168.137 210.086 168.137 215.214C168.137 220.342 171.914 223.603 177.982 223.603C181.445 223.603 184.323 222.941 187.605 221.388C187.981 221.199 187.981 220.865 187.974 220.705V220.684C187.876 219.91 187.876 219.179 187.876 218.329ZM182.818 218.496C181.578 218.963 180.24 219.193 178.735 219.193C173.781 219.193 173.244 216.406 173.244 215.207C173.244 211.919 176.916 211.222 179.996 211.222C181.271 211.222 182.219 211.298 182.825 211.361V218.489L182.818 218.496Z" fill="#231815"/>
<path d="M201.101 218.949L201.003 218.97C200.627 219.053 200.474 219.088 200.202 219.088C199.192 219.088 198.683 218.789 198.683 217.165V186.173C198.683 185.672 198.384 185.379 197.889 185.379H194.37C193.834 185.379 193.527 185.672 193.527 186.173V217.514C193.527 220.12 194.078 223.589 198.85 223.589C199.882 223.589 200.801 223.443 201.387 223.185C201.707 223.025 201.909 222.823 201.909 222.342V219.729C201.909 219.228 201.63 218.942 201.108 218.949H201.101Z" fill="#231815"/>
<path d="M229.104 188.758C223.941 188.758 221.342 188.869 220.206 188.918C219.509 189.057 219.509 189.622 219.509 189.803V222.195C219.509 223.025 220.074 223.094 220.241 223.094C221.976 223.143 225.745 223.192 228.602 223.192C237.138 223.192 247.101 218.531 247.101 205.397C247.101 195.133 240.203 188.758 229.104 188.758ZM228.449 218.482C227.055 218.482 225.613 218.44 224.666 218.405V193.552C225.996 193.51 227.446 193.468 228.999 193.468C237.033 193.468 241.834 197.948 241.834 205.445C241.785 213.73 236.908 218.482 228.449 218.482Z" fill="#231815"/>
<path d="M268.924 207.111C268.924 200.882 265.336 197.161 259.329 197.161C256.647 197.161 254.02 197.726 251.916 198.757C251.79 198.84 251.442 199.07 251.442 199.572V202.638C251.442 202.902 251.547 203.118 251.742 203.265C251.944 203.411 252.216 203.439 252.522 203.327C254.264 202.38 256.396 201.878 258.675 201.878C263.489 201.878 263.865 205.348 263.865 206.414V207.09C263.127 207.048 262.13 207.027 260.89 207.027C253.56 207.027 249.185 210.086 249.185 215.214C249.185 220.342 252.961 223.603 259.03 223.603C262.486 223.603 265.363 222.941 268.659 221.388C269.035 221.199 269.028 220.865 269.028 220.684C268.931 219.91 268.931 219.179 268.931 218.329V207.111H268.924ZM263.865 218.489C262.625 218.956 261.287 219.186 259.782 219.186C254.828 219.186 254.292 216.399 254.292 215.2C254.292 211.912 257.964 211.215 261.044 211.215C262.319 211.215 263.266 211.291 263.872 211.354V218.482L263.865 218.489Z" fill="#231815"/>
<path d="M286.705 218.733C286.58 218.642 286.357 218.552 286.022 218.67C285.298 218.928 284.601 219.046 283.821 219.046C282.016 219.046 281.25 218.113 281.25 215.918V202.275H286.085C286.559 202.275 286.879 201.955 286.879 201.481V198.513C286.879 197.997 286.566 197.67 286.085 197.67H281.25V191.023C281.25 190.709 281.11 190.535 280.999 190.444C280.825 190.312 280.602 190.27 280.379 190.333L276.769 190.897C276.393 190.988 276.149 191.239 276.045 191.671V197.67H273.111C272.589 197.67 272.268 197.99 272.268 198.513V201.376C272.268 201.899 272.526 202.185 273.111 202.275H276.038V216.517C276.038 221.283 278.121 223.596 282.413 223.596C283.932 223.596 285.228 223.352 286.371 222.858C286.601 222.767 286.984 222.523 286.984 221.896V219.332C286.984 218.984 286.81 218.803 286.705 218.733Z" fill="#231815"/>
<path d="M310.521 207.111C310.521 200.882 306.932 197.161 300.926 197.161C298.244 197.161 295.617 197.726 293.513 198.757C293.387 198.84 293.039 199.07 293.039 199.572V202.638C293.039 202.902 293.143 203.118 293.338 203.265C293.541 203.411 293.812 203.439 294.119 203.327C295.861 202.38 297.993 201.878 300.271 201.878C305.086 201.878 305.462 205.348 305.462 206.414V207.09C304.724 207.048 303.727 207.027 302.487 207.027C295.157 207.027 290.781 210.086 290.781 215.214C290.781 220.342 294.558 223.603 300.627 223.603C304.09 223.603 306.967 222.941 310.256 221.388C310.632 221.199 310.625 220.865 310.625 220.684C310.528 219.91 310.528 219.179 310.528 218.329V207.111H310.521ZM305.462 218.489C304.222 218.956 302.884 219.186 301.379 219.186C296.425 219.186 295.889 216.399 295.889 215.2C295.889 211.912 299.561 211.215 302.64 211.215C303.915 211.215 304.863 211.291 305.469 211.354V218.482L305.462 218.489Z" fill="#231815"/>
<path d="M328.421 197.161C326.665 197.161 325.006 197.426 323.48 197.948V186.842C323.48 186.047 322.846 186.047 322.637 186.047H319.119C318.38 186.047 318.276 186.542 318.276 186.842V221.645C318.276 222.091 318.547 222.474 318.917 222.565C321.077 223.268 323.313 223.596 325.961 223.596C332.908 223.596 340.384 219.158 340.384 209.424C340.384 202.205 335.465 197.161 328.421 197.161ZM326.309 218.99C325.097 218.99 324.24 218.907 323.48 218.712V202.519C324.421 202.163 325.682 201.822 327.766 201.822C332.301 201.822 335.116 204.874 335.116 209.779C335.116 216.141 330.692 218.99 326.302 218.99H326.309Z" fill="#231815"/>
<path d="M362.959 207.111C362.959 200.882 359.371 197.161 353.365 197.161C350.682 197.161 348.055 197.726 345.951 198.757C345.826 198.84 345.477 199.07 345.477 199.572V202.638C345.477 202.902 345.582 203.118 345.777 203.265C345.979 203.411 346.244 203.439 346.557 203.327C348.299 202.38 350.431 201.878 352.71 201.878C357.524 201.878 357.901 205.348 357.901 206.414V207.09C357.162 207.048 356.166 207.027 354.925 207.027C347.595 207.027 343.22 210.086 343.22 215.214C343.22 220.342 346.996 223.603 353.065 223.603C356.528 223.603 359.406 222.941 362.694 221.388C363.071 221.199 363.064 220.865 363.064 220.684C362.966 219.91 362.966 219.179 362.966 218.329V207.111H362.959ZM357.901 218.489C356.66 218.956 355.323 219.186 353.818 219.186C348.864 219.186 348.327 216.399 348.327 215.2C348.327 211.912 351.999 211.215 355.079 211.215C356.354 211.215 357.301 211.291 357.908 211.354V218.482L357.901 218.489Z" fill="#231815"/>
<path d="M380.678 197.161C377.967 197.161 375.515 198.088 373.39 199.927C373.327 199.224 373.264 198.652 373.125 198.241C372.999 197.997 372.776 197.67 372.233 197.67H369.118C368.875 197.67 368.679 197.739 368.54 197.879C368.394 198.025 368.324 198.234 368.324 198.527C368.415 199.328 368.519 202.115 368.519 203.85V222.259C368.519 222.774 368.833 223.102 369.314 223.102H372.881C373.181 223.102 373.675 222.99 373.675 222.259V204.637C375.271 202.805 377.215 201.878 379.465 201.878C383.541 201.878 384.155 205.571 384.155 207.773V222.21C384.155 222.781 384.461 223.109 384.998 223.109H388.516C389.039 223.109 389.359 222.781 389.359 222.266V207.376C389.359 204.31 388.509 197.175 380.671 197.175L380.678 197.161Z" fill="#231815"/>
<path d="M416.784 221.896C413.335 218.447 408.102 213.033 404.605 209.375L405.371 208.63C408.172 205.906 414.004 200.248 415.223 198.903C415.46 198.666 415.537 198.36 415.425 198.088C415.314 197.823 415.049 197.656 414.722 197.656H410.701C410.318 197.656 410.102 197.795 409.837 198.067C408.736 199.251 402.974 205.23 400.083 208.17V186.173C400.083 185.699 399.762 185.379 399.288 185.379H395.77C395.233 185.379 394.927 185.672 394.927 186.173V222.245C394.927 222.941 395.386 223.088 395.77 223.088H399.288C399.588 223.088 400.083 222.976 400.083 222.245V211.682C403.044 214.845 408.388 220.433 410.611 222.698C410.785 222.872 411.008 223.095 411.461 223.095H416.241C416.568 223.095 416.847 222.927 416.958 222.656C417.063 222.398 417 222.112 416.791 221.903L416.784 221.896Z" fill="#231815"/>
</g>
<defs>
<clipPath id="clip0_1214_433">
<rect width="333.095" height="164.192" fill="white" transform="translate(83.9054 59.4038)"/>
</clipPath>
</defs>
</svg>
