<svg width="500" height="281" viewBox="0 0 500 281" fill="none" xmlns="http://www.w3.org/2000/svg">
<rect width="500" height="281" fill="white"/>
<path d="M450.727 138.043C449.309 138.225 448.182 139.19 447.745 140.463C444.255 140.172 441.309 137.552 440.691 134.004C441.473 136.915 444.309 138.88 447.382 138.516C448.036 138.444 448.655 138.243 449.236 137.989C450.182 137.661 451.018 137.115 451.691 136.424L451.727 136.387C452.818 135.241 453.436 133.64 453.218 131.929V131.856C452.364 127.162 448.945 123.504 444.6 122.176C444.782 121.666 444.855 121.102 444.782 120.538C444.564 118.755 443.073 117.426 441.327 117.372C439.673 124.742 433.927 130.346 426.055 131.511L425.564 131.602C416.291 132.748 409.618 140.846 410.073 150.035C409.091 139.972 416.309 130.892 426.382 129.655C430.618 128.799 433.564 124.814 433.036 120.465C432.473 115.898 428.327 112.659 423.764 113.223C423.491 113.259 423.218 113.314 422.945 113.369C408.491 115.734 398.364 129.109 400.164 143.793C402.018 158.842 415.691 169.542 430.727 167.686C432.636 167.449 434.491 167.012 436.236 166.43C436.236 166.43 436.273 166.43 436.309 166.412C436.527 166.339 436.727 166.266 436.927 166.194C437 166.157 437.073 166.139 437.164 166.103C437.364 166.03 437.582 165.939 437.782 165.866C437.855 165.83 437.909 165.812 437.982 165.775C438.2 165.684 438.4 165.593 438.618 165.502C438.673 165.484 438.709 165.466 438.764 165.429C440.982 164.41 443.036 163.118 444.891 161.59C445.836 160.807 446.727 159.952 447.564 159.042C446.109 157.787 444.164 157.132 442.109 157.368C440.073 157.623 438.364 158.715 437.255 160.262C437.182 160.334 437.109 160.407 437.036 160.48L437.073 160.407C438.309 158.442 438.909 156.04 438.618 153.547C437.909 147.815 432.709 143.739 426.982 144.449C426.382 144.521 425.818 144.612 425.255 144.776C426.291 144.248 427.455 143.903 428.673 143.757C430.891 143.484 433.036 143.939 434.873 144.903L434.964 144.958C437.182 146.195 439.8 146.76 442.527 146.432C444.764 146.159 446.782 145.304 448.455 144.048C449.218 144.922 450.382 145.413 451.618 145.267C453.6 145.031 455.018 143.211 454.764 141.228C454.527 139.244 452.709 137.825 450.727 138.08V138.043ZM446.164 128.818C446.891 128.727 447.545 129.236 447.636 129.964C447.727 130.692 447.218 131.347 446.491 131.438C445.764 131.529 445.109 131.019 445.018 130.292C444.927 129.564 445.436 128.909 446.164 128.818Z" fill="#4D4B4A"/>
<path d="M230.473 162.009V128.963H240.309V133.858C242 130.874 246.345 128.963 250.018 128.963C254.836 128.963 258.291 130.929 260 134.259C262.654 130.456 265.909 128.963 270.454 128.963C276.836 128.963 282.945 132.694 282.945 141.865V162.009H272.964V144.176C272.964 140.991 271.273 138.462 267.6 138.462C263.927 138.462 261.964 141.246 261.964 144.23V161.99H251.782V144.158C251.782 140.973 250.091 138.444 246.345 138.444C242.6 138.444 240.782 141.228 240.782 144.285V161.972H230.473V162.009Z" fill="#4D4B4A"/>
<path d="M326.8 162.009H337.109V128.963H326.8V162.009Z" fill="#4D4B4A"/>
<path d="M345.018 128.945C341.873 128.945 339.327 131.511 339.327 134.641C339.327 137.771 341.891 140.336 345.018 140.336C348.146 140.336 350.709 137.789 350.709 134.641C350.709 131.493 348.164 128.945 345.018 128.945Z" fill="#4D4B4A"/>
<path d="M72.1636 128.708C71.8181 126.47 69.9818 122.667 64.1454 122.667C60.1454 122.667 57.5636 125.178 57.5636 127.835C57.5636 130.146 58.9818 131.838 62.309 132.457L68.7636 133.676C77.9272 135.368 82.6727 141.282 82.6727 148.143C82.6727 155.676 76.3636 163.355 64.8909 163.355C51.5818 163.355 45.8909 154.73 45.2 147.942L55.0363 145.559C55.4363 149.98 58.4363 153.838 65.0181 153.838C69.2181 153.838 71.8 151.8 71.8 148.816C71.8 146.377 69.8363 144.612 66.6363 143.994L60.0545 142.775C51.909 141.21 46.9454 135.769 46.9454 128.654C46.9454 119.556 54.9636 113.168 64.1818 113.168C76.1999 113.168 80.7454 120.374 81.7636 126.015L72.1272 128.727L72.1636 128.708Z" fill="#4D4B4A"/>
<path d="M101.382 128.981H107.564V137.224H101.382V149.271C101.382 152.055 102.691 152.801 104.927 152.801C106.018 152.801 107.036 152.601 107.636 152.455V161.008C107.236 161.208 105.527 161.954 102.273 161.954C95.2728 161.954 91.0546 157.805 91.0546 151.09V137.206H86.9092V128.963H88.4546C91.9819 128.963 91.6365 126.579 91.6365 123.468V118.627H101.364V128.963L101.382 128.981Z" fill="#4D4B4A"/>
<path d="M303.836 128.981C294.655 128.981 290.382 134.75 289.836 139.299H298.927C299.764 137.807 301.382 136.66 303.782 136.66C306.873 136.66 308.491 138.28 308.491 140.136C308.491 141.228 307.909 142.065 306.164 142.338L298.618 143.502C293.327 144.285 289.146 147.506 289.146 153.183C289.146 158.278 293.2 162.918 300.236 162.918C304.491 162.918 307.745 161.117 309.418 158.406C309.418 160.607 309.345 161.754 309.418 162.008H319.691V141.373C319.691 134.804 314.218 129 303.855 129L303.836 128.981ZM309.127 149.999C309.127 154.966 306.164 156.386 303.273 156.386C300.564 156.386 299.473 154.766 299.473 153.092C299.473 150.836 301.018 149.871 303.073 149.544L309.127 148.579V149.999Z" fill="#4D4B4A"/>
<path d="M211.655 143.466L225.109 128.963H211.745L201.582 140.19V118.646H191.273V162.008H201.582V154.311L204.909 150.726L219.073 162.008H224.291V153.547L211.655 143.466Z" fill="#4D4B4A"/>
<path d="M374.745 143.466L388.218 128.963H374.836L364.691 140.19V118.646H354.364V162.008H364.691V154.311L368.018 150.726L382.182 162.008H387.382V153.547L374.745 143.466Z" fill="#4D4B4A"/>
<path d="M130.2 128.181C120.364 128.181 112.636 135.441 112.636 145.686C112.636 155.931 120.346 163.264 130.2 163.264C140.055 163.264 147.764 155.949 147.764 145.686C147.764 135.423 140.109 128.181 130.2 128.181ZM130.2 153.747C125.836 153.747 122.291 150.199 122.291 145.831C122.291 141.464 125.836 137.916 130.2 137.916C134.564 137.916 138.109 141.464 138.109 145.831C138.109 150.199 134.564 153.747 130.2 153.747Z" fill="#4D4B4A"/>
<path d="M176.873 149.034C175.636 151.818 172.873 153.747 169.636 153.747C165.273 153.747 161.727 150.199 161.727 145.832C161.727 141.464 165.273 137.916 169.636 137.916C172.727 137.916 175.382 139.681 176.691 142.265L185.4 139.681C183.945 133.749 178.618 128.163 169.509 128.163C159.8 128.163 152.073 135.423 152.073 145.741C152.073 156.058 159.982 163.246 169.836 163.246C178.691 163.246 184.145 157.514 185.6 151.727L176.855 149.016L176.873 149.034Z" fill="#4D4B4A"/>
</svg>
