<svg width="500" height="281" viewBox="0 0 500 281" fill="none" xmlns="http://www.w3.org/2000/svg">
<rect width="500" height="281" fill="white"/>
<path d="M119.989 108.593C115.605 102.281 107.506 98.3604 98.8515 98.3604C90.1972 98.3604 82.0983 102.281 77.7138 108.595L77.4885 108.931C77.3373 109.217 77.2573 109.54 77.2573 109.863C77.2573 110.968 78.1616 111.868 79.2722 111.868C79.7156 111.868 80.1372 111.727 80.5166 111.437L80.6795 111.297C85.3489 107.249 91.9723 104.928 98.8515 104.928C105.731 104.928 112.354 107.249 117.045 111.314L117.212 111.459C117.566 111.727 117.987 111.868 118.431 111.868C119.541 111.868 120.446 110.968 120.446 109.863C120.446 109.54 120.366 109.219 120.188 108.887L119.988 108.595L119.989 108.593Z" fill="#003764"/>
<path d="M118.432 173.133C117.989 173.133 117.567 173.275 117.188 173.564L117.025 173.704C112.355 177.752 105.732 180.074 98.8529 180.074C91.9737 180.074 85.3504 177.752 80.6591 173.687L80.4919 173.542C80.1387 173.275 79.7171 173.133 79.2737 173.133C78.163 173.133 77.2588 174.033 77.2588 175.139C77.2588 175.461 77.3387 175.784 77.5161 176.114L77.7167 176.406C82.1013 182.718 90.2002 186.639 98.8544 186.639C107.509 186.639 115.607 182.719 119.993 176.405L120.22 176.069C120.371 175.783 120.45 175.461 120.45 175.139C120.45 174.033 119.546 173.133 118.435 173.133H118.432Z" fill="#003764"/>
<path d="M132.911 121.457L132.574 121.233C132.286 121.083 131.962 121.003 131.638 121.003C130.527 121.003 129.623 121.903 129.623 123.009C129.623 123.45 129.766 123.87 130.056 124.248L130.197 124.41C134.263 129.058 136.595 135.651 136.595 142.5C136.595 149.348 134.263 155.941 130.18 160.611L130.034 160.778C129.766 161.129 129.623 161.549 129.623 161.99C129.623 163.096 130.527 163.996 131.638 163.996C131.962 163.996 132.286 163.917 132.618 163.74L132.911 163.54C139.251 159.176 143.191 151.113 143.191 142.498C143.191 133.883 139.253 125.821 132.911 121.456V121.457Z" fill="#003764"/>
<path d="M67.6682 124.222C67.9372 123.87 68.0797 123.45 68.0797 123.009C68.0797 121.579 66.5518 120.479 65.0849 121.258L64.7913 121.458C58.45 125.822 54.5117 133.885 54.5117 142.5C54.5117 151.115 58.45 159.177 64.7927 163.542L65.13 163.766C65.4178 163.917 65.742 163.997 66.0662 163.997C67.1769 163.997 68.0811 163.096 68.0811 161.991C68.0811 161.549 67.9386 161.13 67.6479 160.752L67.5069 160.59C63.4407 155.941 61.1089 149.348 61.1089 142.5C61.1089 135.652 63.4407 129.058 67.5054 124.41L67.6682 124.222Z" fill="#003764"/>
<path d="M273.898 165.786L274.702 160.089H274.464C272.699 162.464 270.603 164.177 268.171 165.231C265.749 166.284 263.346 166.813 260.96 166.813C257.938 166.813 255.518 166.417 253.7 165.626C251.877 164.837 250.51 163.714 249.603 162.263C248.695 160.815 248.161 159.051 248.004 156.967C247.85 154.883 247.946 152.571 248.303 150.042L251.854 124.892H263.142L259.881 147.983C259.404 151.359 259.577 153.88 260.406 155.542C261.232 157.2 262.988 158.037 265.695 158.037C268.762 158.037 271.119 157.125 272.753 155.302C274.388 153.482 275.495 150.495 276.083 146.325L279.109 124.892H290.397L284.624 165.786H273.895H273.898Z" fill="#231815"/>
<path d="M325.206 160.565C323.564 162.781 321.605 164.375 319.322 165.352C317.041 166.323 314.548 166.814 311.846 166.814C308.772 166.814 306.151 166.223 303.991 165.034C301.829 163.85 300.136 162.242 298.913 160.209C297.692 158.183 296.881 155.847 296.485 153.207C296.087 150.573 296.09 147.832 296.493 144.983C296.879 142.242 297.638 139.591 298.769 137.034C299.9 134.475 301.358 132.219 303.141 130.269C304.926 128.321 307.04 126.751 309.488 125.564C311.931 124.378 314.666 123.784 317.684 123.784C320.118 123.784 322.368 124.301 324.418 125.33C326.469 126.353 327.993 127.873 328.98 129.877H329.14L332.043 109.31H343.325L335.351 165.789H324.626L325.363 160.568H325.206V160.565ZM327.58 140.352C327.481 138.801 327.133 137.426 326.53 136.242C325.927 135.06 325.075 134.094 323.955 133.35C322.846 132.615 321.359 132.249 319.508 132.249C317.658 132.249 316.037 132.617 314.663 133.35C313.289 134.094 312.126 135.07 311.19 136.28C310.249 137.495 309.498 138.88 308.935 140.432C308.368 141.992 307.966 143.61 307.727 145.296C307.503 146.882 307.465 148.463 307.617 150.044C307.768 151.626 308.159 153.039 308.806 154.278C309.453 155.513 310.34 156.519 311.481 157.281C312.618 158.044 314.064 158.43 315.813 158.43C317.664 158.43 319.264 158.063 320.621 157.32C321.962 156.585 323.099 155.594 324.011 154.361C324.927 153.119 325.658 151.707 326.2 150.12C326.738 148.543 327.133 146.903 327.372 145.219C327.61 143.53 327.674 141.911 327.58 140.352Z" fill="#231815"/>
<path d="M354.015 118.557L355.321 109.305H366.606L365.301 118.557H354.015ZM364.405 124.891L358.632 165.786H347.347L353.12 124.891H364.405Z" fill="#231815"/>
<path d="M381.642 155.619C382.019 156.493 382.565 157.2 383.285 157.756C384.005 158.312 384.859 158.72 385.851 158.982C386.848 159.247 387.903 159.38 389.016 159.38C389.814 159.38 390.655 159.284 391.56 159.099C392.46 158.917 393.291 158.629 394.065 158.231C394.836 157.836 395.502 157.312 396.078 156.649C396.646 155.991 397.001 155.158 397.144 154.157C397.382 152.472 396.434 151.205 394.301 150.358C392.172 149.516 389.151 148.674 385.245 147.831C383.657 147.459 382.113 147.027 380.625 146.524C379.132 146.024 377.832 145.368 376.731 144.549C375.629 143.728 374.789 142.701 374.222 141.462C373.655 140.225 373.507 138.705 373.758 136.918C374.131 134.278 374.95 132.119 376.22 130.43C377.493 128.741 379.038 127.411 380.873 126.432C382.703 125.459 384.712 124.773 386.889 124.375C389.061 123.98 391.263 123.782 393.487 123.782C395.712 123.782 397.843 123.992 399.874 124.417C401.906 124.838 403.672 125.55 405.176 126.549C406.674 127.553 407.853 128.885 408.702 130.547C409.553 132.206 409.91 134.3 409.762 136.834H399.033C399.182 134.67 398.562 133.209 397.192 132.442C395.813 131.679 394.126 131.297 392.108 131.297C391.471 131.297 390.78 131.335 390.025 131.411C389.271 131.491 388.574 131.66 387.922 131.928C387.28 132.193 386.708 132.572 386.219 133.073C385.724 133.573 385.413 134.248 385.294 135.09C385.152 136.094 385.407 136.915 386.059 137.546C386.711 138.178 387.604 138.689 388.748 139.084C389.885 139.479 391.195 139.838 392.686 140.15C394.176 140.466 395.687 140.815 397.226 141.184C398.814 141.552 400.356 141.999 401.845 142.529C403.331 143.055 404.623 143.754 405.722 144.623C406.82 145.493 407.643 146.572 408.205 147.867C408.763 149.161 408.906 150.753 408.638 152.649C408.259 155.342 407.398 157.594 406.057 159.416C404.712 161.235 403.089 162.697 401.188 163.804C399.279 164.914 397.173 165.693 394.857 166.14C392.538 166.584 390.222 166.81 387.89 166.81C385.559 166.81 383.202 166.577 380.997 166.098C378.787 165.623 376.871 164.834 375.25 163.723C373.632 162.619 372.382 161.154 371.505 159.335C370.621 157.516 370.319 155.232 370.604 152.494H381.333C381.161 153.71 381.26 154.747 381.644 155.616L381.642 155.619Z" fill="#231815"/>
<path d="M444.487 124.891L443.426 132.404H435.166L432.307 152.65C432.039 154.555 432.178 155.818 432.726 156.45C433.277 157.086 434.498 157.398 436.404 157.398C437.041 157.398 437.653 157.372 438.248 157.319C438.832 157.27 439.402 157.189 439.941 157.086L438.713 165.786C437.736 165.946 436.664 166.047 435.496 166.102C434.317 166.155 433.177 166.181 432.068 166.181C430.316 166.181 428.675 166.063 427.148 165.824C425.622 165.587 424.306 165.124 423.21 164.442C422.115 163.753 421.314 162.779 420.805 161.513C420.292 160.245 420.183 158.587 420.474 156.532L423.88 132.405H417.046L418.107 124.893H424.941L426.673 112.626H437.958L436.227 124.893H444.487V124.891Z" fill="#231815"/>
<path d="M178.843 155.619C179.219 156.493 179.766 157.2 180.486 157.756C181.205 158.312 182.06 158.72 183.051 158.982C184.049 159.247 185.104 159.38 186.216 159.38C187.013 159.38 187.856 159.284 188.76 159.099C189.66 158.917 190.492 158.629 191.265 158.231C192.037 157.836 192.703 157.312 193.279 156.649C193.847 155.991 194.202 155.158 194.344 154.157C194.583 152.472 193.635 151.205 191.502 150.358C189.372 149.516 186.352 148.674 182.445 147.831C180.858 147.459 179.314 147.027 177.825 146.524C176.332 146.024 175.033 145.368 173.932 144.549C172.83 143.728 171.99 142.701 171.423 141.462C170.856 140.225 170.708 138.705 170.959 136.918C171.331 134.278 172.151 132.119 173.42 130.43C174.694 128.741 176.239 127.411 178.074 126.432C179.904 125.459 181.913 124.773 184.089 124.375C186.261 123.98 188.464 123.782 190.688 123.782C192.912 123.782 195.044 123.992 197.076 124.417C199.108 124.838 200.875 125.55 202.378 126.549C203.877 127.553 205.056 128.885 205.905 130.547C206.755 132.206 207.113 134.3 206.964 136.834H196.236C196.384 134.67 195.765 133.209 194.394 132.442C193.016 131.679 191.328 131.297 189.31 131.297C188.673 131.297 187.983 131.335 187.227 131.411C186.474 131.491 185.776 131.66 185.126 131.928C184.483 132.193 183.912 132.572 183.422 133.073C182.928 133.573 182.617 134.248 182.498 135.09C182.355 136.094 182.611 136.915 183.262 137.546C183.915 138.178 184.808 138.689 185.952 139.084C187.089 139.479 188.398 139.838 189.89 140.15C191.38 140.466 192.891 140.815 194.43 141.184C196.019 141.552 197.56 141.999 199.049 142.529C200.534 143.055 201.827 143.754 202.926 144.623C204.023 145.493 204.846 146.572 205.409 147.867C205.967 149.161 206.11 150.753 205.842 152.649C205.463 155.342 204.602 157.594 203.26 159.416C201.915 161.235 200.293 162.697 198.392 163.804C196.483 164.914 194.376 165.693 192.06 166.14C189.742 166.584 187.426 166.81 185.094 166.81C182.762 166.81 180.406 166.577 178.2 166.098C175.991 165.623 174.075 164.834 172.454 163.723C170.836 162.619 169.585 161.154 168.709 159.335C167.825 157.516 167.522 155.232 167.807 152.494H178.536C178.365 153.71 178.463 154.747 178.847 155.616L178.843 155.619Z" fill="#231815"/>
<path d="M241.689 124.891L240.627 132.404H232.367L229.509 152.65C229.24 154.555 229.38 155.818 229.928 156.45C230.479 157.086 231.7 157.398 233.606 157.398C234.243 157.398 234.855 157.372 235.449 157.319C236.032 157.27 236.603 157.189 237.143 157.086L235.914 165.786C234.937 165.946 233.866 166.047 232.697 166.102C231.518 166.155 230.377 166.181 229.269 166.181C227.517 166.181 225.876 166.063 224.35 165.824C222.823 165.587 221.508 165.124 220.412 164.442C219.317 163.753 218.516 162.779 218.007 161.513C217.494 160.245 217.385 158.587 217.676 156.532L221.082 132.405H214.248L215.309 124.893H222.143L223.874 112.626H235.16L233.428 124.893H241.689V124.891Z" fill="#231815"/>
</svg>
