<svg width="500" height="281" viewBox="0 0 500 281" fill="none" xmlns="http://www.w3.org/2000/svg">
<rect width="500" height="281" fill="white"/>
<path d="M183.375 141.327V171.914C183.375 175 180.866 177.51 177.76 177.51C174.663 177.51 172.145 175.01 172.145 171.914V141.327H165.546C162.787 141.327 160.558 139.096 160.558 136.356C160.558 133.606 162.796 131.385 165.546 131.385H172.145V120.077C172.145 116.991 174.653 114.481 177.76 114.481C180.857 114.481 183.375 116.981 183.375 120.077V131.385H188.768C191.527 131.385 193.756 133.616 193.756 136.356C193.756 139.106 191.517 141.327 188.768 141.327H183.375Z" fill="#178CFF"/>
<path d="M241.579 155.625H212.115C212.414 159.413 213.707 162.433 216.003 164.673C218.299 166.885 221.242 167.99 224.831 167.99C227.629 167.99 229.934 167.356 231.768 166.096C232.858 165.327 234.035 164.173 235.308 162.615C236.929 160.644 239.698 160.038 241.955 161.231C245.014 162.846 245.718 166.904 243.412 169.471C243.19 169.712 242.968 169.952 242.747 170.183C241.116 171.875 239.37 173.26 237.508 174.346C235.646 175.433 233.639 176.231 231.468 176.74C229.307 177.24 226.963 177.5 224.435 177.5C217.18 177.5 211.363 175.288 206.973 170.875C202.583 166.423 200.384 160.519 200.384 153.163C200.384 145.808 202.516 139.971 206.77 135.452C211.064 131 216.746 128.779 223.827 128.779C230.909 128.779 236.63 130.942 240.788 135.269C240.788 135.269 245.351 139.163 246.606 149.952C246.953 152.971 244.618 155.635 241.57 155.635L241.579 155.625ZM235.405 146.913C233.842 141.231 230.07 138.385 224.078 138.385C222.718 138.385 221.435 138.587 220.239 138.981C219.042 139.375 217.952 139.942 216.968 140.683C215.984 141.423 215.145 142.317 214.45 143.356C213.755 144.394 213.215 145.577 212.858 146.904H235.405V146.913Z" fill="#178CFF"/>
<path d="M269.654 101.798V135.414C274.14 130.991 279.234 128.789 284.917 128.789C291.467 128.789 296.918 131.106 301.279 135.75C305.64 140.356 307.811 146.106 307.811 152.991C307.811 159.875 305.611 165.962 301.221 170.606C296.861 175.212 291.361 177.519 284.704 177.519C279.08 177.519 274.063 175.471 269.644 171.366V171.76C269.644 174.923 266.933 177.356 264.029 177.356C260.933 177.356 258.414 174.856 258.414 171.76V101.798C258.414 98.7118 260.923 96.2021 264.029 96.2021C267.126 96.2021 269.644 98.7021 269.644 101.798H269.654ZM298.665 153.452C298.665 149.029 297.401 145.433 294.873 142.654C292.316 139.818 289.104 138.394 285.245 138.394C281.115 138.394 277.758 139.769 275.163 142.51C272.606 145.221 271.323 148.76 271.323 153.116C271.323 157.471 272.587 161.183 275.115 163.866C277.642 166.616 280.971 167.981 285.09 167.981C288.978 167.981 292.21 166.606 294.767 163.866C297.362 161.087 298.655 157.616 298.655 153.443L298.665 153.452Z" fill="#178CFF"/>
<path d="M329.981 136.981C329.981 133.89 327.469 131.385 324.371 131.385C321.273 131.385 318.761 133.89 318.761 136.981V171.914C318.761 175.004 321.273 177.51 324.371 177.51C327.469 177.51 329.981 175.004 329.981 171.914V136.981Z" fill="#178CFF"/>
<path d="M329.981 116.067C329.981 112.977 327.469 110.471 324.371 110.471C321.273 110.471 318.761 112.977 318.761 116.067V117.106C318.761 120.196 321.273 122.702 324.371 122.702C327.469 122.702 329.981 120.196 329.981 117.106V116.067Z" fill="#178CFF"/>
<path d="M356.252 103V145.712C356.252 145.933 356.522 146.048 356.676 145.894L370.588 132.769C371.534 131.875 372.788 131.385 374.09 131.385C378.721 131.385 380.95 137.058 377.535 140.183L366.199 150.587C366.102 150.683 366.092 150.827 366.179 150.933L380.959 168.394C384.008 172 381.442 177.51 376.715 177.51C375.065 177.51 373.502 176.769 372.45 175.5L358.22 158.25C358.123 158.135 357.959 158.125 357.853 158.231L356.329 159.673C356.281 159.721 356.252 159.788 356.252 159.856V171.971C356.252 175.029 353.763 177.5 350.704 177.5H350.579C347.511 177.5 345.031 175.029 345.031 171.971V103.24C345.031 100.086 347.598 97.5288 350.762 97.5288C353.792 97.5288 356.252 99.9807 356.252 103Z" fill="#178CFF"/>
<path d="M404.702 116.067C404.702 112.977 402.191 110.471 399.092 110.471C395.994 110.471 393.482 112.977 393.482 116.067V117.106C393.482 120.196 395.994 122.702 399.092 122.702C402.191 122.702 404.702 120.196 404.702 117.106V116.067Z" fill="#178CFF"/>
<path d="M404.702 136.981C404.702 133.89 402.191 131.385 399.092 131.385C395.994 131.385 393.482 133.89 393.482 136.981V171.914C393.482 175.004 395.994 177.51 399.092 177.51C402.191 177.51 404.702 175.004 404.702 171.914V136.981Z" fill="#178CFF"/>
<path d="M141.388 112.231L101.427 93.7596C100.327 93.25 99.0539 93.3269 98.0216 93.9808C96.9989 94.6346 96.3815 95.75 96.3815 96.9616V131.183L94.0178 132.24C92.6864 132.837 91.8181 134.163 91.8181 135.625V183.144C91.8181 184.413 92.4548 185.577 93.5257 186.26C94.1432 186.654 94.8378 186.856 95.5421 186.856C96.0631 186.856 96.5841 186.75 97.0761 186.529L141.34 166.654C142.671 166.058 143.539 164.721 143.539 163.269V115.49C143.539 114.067 142.69 112.788 141.378 112.231H141.388ZM128.508 115.481C128.508 116.279 128.064 116.962 127.331 117.288L106.396 126.692C105.759 126.971 105.074 126.923 104.486 126.548C103.907 126.173 103.569 125.567 103.569 124.875V105.779C103.569 105.087 103.907 104.471 104.495 104.096C104.823 103.885 105.19 103.779 105.566 103.779C105.855 103.779 106.135 103.846 106.415 103.971L127.351 113.663C128.084 114 128.508 114.683 128.508 115.481Z" fill="#178CFF"/>
</svg>
