<svg width="500" height="281" viewBox="0 0 500 281" fill="none" xmlns="http://www.w3.org/2000/svg">
<rect width="500" height="281" fill="white"/>
<g clip-path="url(#clip0_875_314)">
<path d="M240.769 106.128C241.897 108.387 242.739 110.366 243.719 113.052C241.986 113.38 240.016 113.709 236.314 114.186C237.67 110.187 238.888 105.8 240.106 100.438H250.322V95.6335H229.048V100.438H234.77C233.602 106.228 232.572 110.237 230.978 114.753C229.573 114.843 228.493 114.942 227.513 115.032L229.058 120.453C235.522 119.558 240.818 118.523 245.134 117.34C245.56 118.752 245.887 119.926 246.263 121.438L251.322 118.752C249.54 113.291 247.481 108.486 245.233 104.527L240.779 106.128H240.769Z" fill="black"/>
<path d="M248.035 82.6714H230.691V87.4762H248.035V82.6714Z" fill="black"/>
<path d="M228.909 109.898H220.802V107.073H227.553V90.2515H220.802V87.7049H228.484V83.4671H220.802V79.0503H216.297V83.4771H208.754V87.7148H216.297V90.2615H209.645V107.073H216.297V109.898H208.14V114.226H216.297V121.428H220.802V114.226H228.909V109.898ZM220.524 93.7432H223.712V96.9464H220.524V93.7432ZM216.584 103.582H213.486V100.15H216.584V103.582ZM216.584 96.9464H213.486V93.7432H216.584V96.9464ZM220.524 103.582V100.15H223.712V103.582H220.524Z" fill="black"/>
<path d="M304.333 89.0275C303.492 86.2521 302.314 83.3274 301.096 81.0195L297.255 82.5714C298.423 84.9688 299.413 87.7542 300.205 90.8579L304.333 89.0176V89.0275Z" fill="black"/>
<path d="M300.443 114.554C300.304 114.554 300.067 114.276 299.69 113.42C299.077 112.197 298.611 110.973 298.334 110.028C300.166 106.964 301.71 103.86 303.165 100.418L299.651 98.3492C298.71 100.796 297.968 102.497 297.077 104.189C296.839 102.308 296.651 99.0555 296.562 96.3198H304.482V92.1716H296.463V79.0505H292.058V89.9334C292.058 90.8287 292.058 91.6742 292.107 92.669H288.266C288.831 91.1171 289.157 89.8936 289.771 87.7249H291.365V83.7657H286.207V79.0007H281.713V83.7558H277.446V80.6919H261.795V85.1186H263.765V109.889C262.924 110.078 261.983 110.217 261.003 110.356L262.27 115.35C264.706 114.833 268.032 113.888 271.081 112.903V121.428H275.209V96.7973H292.266C292.593 102.776 293.018 106.407 293.771 109.7C292.692 111.162 291.573 112.575 290.444 113.699V99.0058H277.506V117.28H281.446V115.211H288.95C287.306 116.812 286.227 117.708 284.871 118.643L287.633 121.985C290.682 119.677 293.256 117.18 295.275 114.494C295.978 116.235 296.82 117.608 297.899 118.682C299.255 120.145 300.245 120.752 301.086 120.752C302.957 120.752 304.274 117.787 305.214 111.331L301.7 108.556C301.235 112.654 300.859 114.534 300.482 114.534L300.443 114.554ZM271.061 108.247C269.279 108.765 268.576 108.954 267.784 109.043V103.154H271.061V108.237V108.247ZM271.061 99.2047H267.784V94.2109H271.061V99.2047ZM271.061 90.2517H267.784V85.1186H271.061V90.2517ZM275.179 92.6591V85.1186H276.635V87.7051H278.278C278.793 89.4459 279.169 90.958 279.446 92.6491H275.179V92.6591ZM284.792 92.6591H282.921C282.683 90.9679 282.356 89.5056 281.842 87.715H286.059C285.821 89.0779 285.445 90.5899 284.792 92.6591ZM286.475 111.729H281.416V108.576H286.475V111.729ZM286.475 105.372H281.416V102.408H286.475V105.372Z" fill="black"/>
<path d="M412 142.427H364.849V154.275H382.529V201.646H394.32V154.275H412V142.427Z" fill="black"/>
<path d="M304.442 142.427V201.646H316.223V179.433H338.625V167.595H316.223V154.275H348.633V142.427H304.442Z" fill="black"/>
<path d="M250.144 142.427L226.573 201.646H239.828L246.312 185.362H267.23L273.714 201.646H286.97L263.399 142.427H250.144ZM251.025 173.514L256.766 159.08L262.508 173.514H251.015H251.025Z" fill="black"/>
<path d="M207.685 160.93C207.685 150.714 199.439 142.427 189.272 142.427H167.008V201.646H178.798V179.443L200.894 201.646H215.624L193.113 179.025C201.438 177.244 207.685 169.823 207.685 160.93ZM195.845 161.805C195.419 165.168 192.41 167.595 189.044 167.595H178.798V154.275H189.272C193.212 154.275 196.36 157.747 195.845 161.815V161.805Z" fill="black"/>
<path d="M116.382 142.427H89L96.3652 149.828V187.68H108.155V154.265H119.471C123.341 154.265 128.4 156.822 130.617 160.005C140.616 174.33 130.568 189.799 116.986 189.799H114.036L102.245 201.646H116.976C133.528 201.646 146.882 187.938 146.427 171.206C145.991 155.081 132.419 142.427 116.362 142.427H116.382Z" fill="black"/>
</g>
<defs>
<clipPath id="clip0_875_314">
<rect width="323" height="122.646" fill="white" transform="translate(89 79.0002)"/>
</clipPath>
</defs>
</svg>
