<svg width="500" height="281" viewBox="0 0 500 281" fill="none" xmlns="http://www.w3.org/2000/svg">
<rect width="500" height="281" fill="white"/>
<g clip-path="url(#clip0_824_11290)">
<path d="M83.9493 136.97L68.5759 154.314H89.6623L105.036 136.97H83.9493Z" fill="#B200FF"/>
<path d="M56.2727 168.189H77.3591L89.6623 154.314H68.5759L56.2727 168.189Z" fill="#F51400"/>
<path d="M126.561 112.689H105.474L83.9492 136.97H105.036L126.561 112.689Z" fill="#0052FF"/>
<path d="M173.626 139.09C172.754 141.86 171.905 144.646 171.067 147.46C170.229 150.274 169.42 153.148 168.627 156.09C168.61 156.162 168.593 156.229 168.571 156.301C168.554 156.245 168.542 156.195 168.526 156.14C167.71 153.215 166.895 150.418 166.08 147.743C165.264 145.068 164.353 142.182 163.352 139.09L154.395 112.689H140.613L160.552 168.189H176.426L195.696 112.689H182.347L173.62 139.096L173.626 139.09Z" fill="black"/>
<path d="M216.085 112.689H202.837V168.189H216.085V112.689Z" fill="black"/>
<path d="M265.647 137.925C262.83 136.493 259.158 135.405 254.631 134.65L248.648 133.635C246.478 133.246 244.763 132.769 243.514 132.214C242.26 131.653 241.366 130.976 240.827 130.177C240.287 129.378 240.017 128.379 240.017 127.186C240.017 125.992 240.343 125.01 240.995 124.166C241.648 123.323 242.648 122.673 244.004 122.218C245.359 121.763 247.051 121.536 249.076 121.536C251.578 121.536 253.585 121.835 255.109 122.44C256.627 123.045 257.746 123.917 258.466 125.06C259.18 126.203 259.63 127.641 259.799 129.367H272.259C272.034 125.532 271.039 122.285 269.268 119.621C267.497 116.957 264.899 114.926 261.48 113.533C258.056 112.134 253.793 111.44 248.688 111.44C243.582 111.44 239.41 112.184 236.131 113.671C232.853 115.159 230.469 117.146 228.984 119.632C227.5 122.118 226.752 124.927 226.752 128.062C226.752 131.376 227.472 134.19 228.906 136.51C230.34 138.829 232.33 140.672 234.866 142.032C237.408 143.397 240.388 144.357 243.812 144.918L250.093 145.972C252.674 146.427 254.71 146.949 256.206 147.543C257.701 148.131 258.775 148.847 259.433 149.685C260.091 150.523 260.423 151.556 260.423 152.777C260.423 154.22 260.046 155.424 259.287 156.39C258.528 157.355 257.398 158.082 255.879 158.565C254.361 159.048 252.483 159.287 250.234 159.287C247.839 159.287 245.786 159.004 244.082 158.438C242.379 157.871 241.023 156.906 240.017 155.535C239.01 154.164 238.459 152.288 238.369 149.913H225.223C225.341 154.081 226.375 157.627 228.321 160.552C230.267 163.477 233.078 165.691 236.744 167.207C240.411 168.722 244.847 169.477 250.06 169.477C255.272 169.477 259.439 168.738 263.004 167.268C266.563 165.791 269.262 163.688 271.09 160.946C272.917 158.204 273.834 154.985 273.834 151.278C273.834 148.187 273.176 145.545 271.86 143.358C270.544 141.172 268.475 139.362 265.658 137.93H265.647V137.925Z" fill="black"/>
<path d="M295.421 112.689L274.964 168.189H288.33L292.092 157.317H314.893L318.734 168.189H332.493L311.272 112.689H295.421ZM295.713 146.871L299.216 136.759C299.925 134.617 300.605 132.552 301.252 130.571C301.898 128.59 302.483 126.753 303.012 125.065C303.141 124.655 303.259 124.233 303.389 123.822C303.535 124.277 303.687 124.749 303.833 125.204C304.389 126.93 304.997 128.773 305.638 130.726C306.284 132.68 306.965 134.739 307.69 136.893L311.216 146.871H295.713Z" fill="black"/>
<path d="M373.244 137.925C370.426 136.493 366.755 135.405 362.228 134.65L356.245 133.635C354.075 133.246 352.36 132.769 351.111 132.214C349.863 131.653 348.963 130.976 348.424 130.177C347.884 129.378 347.614 128.379 347.614 127.186C347.614 125.992 347.94 125.01 348.592 124.166C349.244 123.323 350.245 122.673 351.601 122.218C352.956 121.763 354.648 121.536 356.673 121.536C359.175 121.536 361.182 121.835 362.706 122.44C364.224 123.045 365.343 123.917 366.063 125.06C366.777 126.203 367.227 127.641 367.396 129.367H379.856C379.631 125.532 378.636 122.285 376.865 119.621C375.094 116.957 372.496 114.926 369.077 113.533C365.653 112.134 361.39 111.44 356.285 111.44C351.179 111.44 347.006 112.184 343.728 113.671C340.45 115.159 338.066 117.146 336.581 119.632C335.091 122.118 334.349 124.927 334.349 128.062C334.349 131.376 335.069 134.19 336.503 136.51C337.937 138.829 339.927 140.672 342.463 142.032C345.005 143.397 347.985 144.357 351.409 144.918L357.69 145.972C360.271 146.427 362.307 146.949 363.803 147.543C365.298 148.131 366.372 148.847 367.03 149.685C367.688 150.523 368.02 151.556 368.02 152.777C368.02 154.22 367.643 155.424 366.884 156.39C366.125 157.355 364.989 158.082 363.476 158.565C361.964 159.048 360.08 159.287 357.831 159.287C355.435 159.287 353.383 159.004 351.679 158.438C349.975 157.871 348.62 156.906 347.614 155.535C346.607 154.164 346.056 152.288 345.966 149.913H332.82C332.938 154.081 333.972 157.627 335.918 160.552C337.863 163.477 340.675 165.691 344.341 167.207C348.007 168.722 352.444 169.477 357.657 169.477C362.869 169.477 367.036 168.738 370.601 167.268C374.16 165.791 376.859 163.688 378.687 160.946C380.514 158.204 381.431 154.985 381.431 151.278C381.431 148.187 380.773 145.545 379.457 143.358C378.141 141.172 376.072 139.362 373.255 137.93H373.244V137.925Z" fill="black"/>
<path d="M439.241 155.707C441.631 151.322 442.823 146.233 442.823 140.439C442.823 134.645 441.631 129.572 439.241 125.188C436.851 120.803 433.494 117.418 429.159 115.025C424.829 112.633 419.842 111.44 414.196 111.44C408.551 111.44 403.586 112.633 399.261 115.025C394.937 117.418 391.575 120.803 389.179 125.188C386.784 129.572 385.586 134.656 385.586 140.439C385.586 146.222 386.778 151.322 389.157 155.707C391.541 160.091 394.898 163.483 399.228 165.88C403.557 168.278 408.545 169.477 414.191 169.477C419.836 169.477 424.346 168.378 428.529 166.202L435.873 174L442.193 167.978L435.485 160.941C436.925 159.387 438.184 157.655 439.241 155.713V155.707ZM414.219 158.21C411.216 158.21 408.596 157.533 406.363 156.173C404.125 154.813 402.388 152.804 401.151 150.14C399.914 147.476 399.295 144.241 399.295 140.433C399.295 136.626 399.914 133.413 401.151 130.76C402.388 128.101 404.125 126.098 406.363 124.738C408.601 123.378 411.222 122.701 414.219 122.701C417.216 122.701 419.797 123.378 422.035 124.738C424.273 126.098 426.01 128.101 427.247 130.76C428.484 133.418 429.103 136.643 429.103 140.433C429.103 144.224 428.484 147.476 427.247 150.14C426.01 152.804 424.273 154.813 422.035 156.173C419.797 157.533 417.188 158.21 414.219 158.21Z" fill="black"/>
</g>
<defs>
<clipPath id="clip0_824_11290">
<rect width="443" height="111" fill="white" transform="translate(28 85)"/>
</clipPath>
</defs>
</svg>
