<svg width="500" height="281" viewBox="0 0 500 281" fill="none" xmlns="http://www.w3.org/2000/svg">
<g clip-path="url(#clip0_877_488)">
<rect width="500" height="281" fill="white"/>
<g clip-path="url(#clip1_877_488)">
<path d="M438 -50H58V330H438V-50Z" fill="white"/>
<path d="M248.502 109.031H263.907C264.355 109.031 264.716 109.392 264.716 109.84V170.161C264.716 170.61 264.355 170.971 263.907 170.971H248.502C248.053 170.971 247.692 170.61 247.692 170.161V109.84C247.692 109.392 248.053 109.031 248.502 109.031Z" fill="black"/>
<path d="M294.755 109.03H309.982C310.43 109.03 310.791 109.391 310.791 109.84V170.161C310.791 170.609 310.43 170.97 309.982 170.97H294.755C294.307 170.97 293.946 170.609 293.946 170.161V109.84C293.946 109.391 294.307 109.03 294.755 109.03ZM341.469 109.03H357.489C358.17 109.03 358.546 109.817 358.12 110.349L335.043 139.119C334.8 139.419 334.807 139.848 335.054 140.145L359.682 169.64C360.123 170.168 359.747 170.97 359.063 170.97H342.362C342.118 170.97 341.887 170.86 341.735 170.67L317.118 140.319C316.879 140.023 316.875 139.605 317.111 139.305L340.838 109.334C340.99 109.14 341.225 109.026 341.472 109.026L341.469 109.03Z" fill="black"/>
<path d="M383.405 109.03H398.81C399.259 109.03 399.62 109.391 399.62 109.839V170.161C399.62 170.609 399.259 170.97 398.81 170.97H383.405C382.957 170.97 382.596 170.609 382.596 170.161V109.839C382.596 109.391 382.957 109.03 383.405 109.03Z" fill="black"/>
<path d="M134.977 130.063L173.84 107.616C174.725 107.103 175.272 106.157 175.272 105.131V89.061C175.272 87.864 174.528 86.8 173.41 86.3744C167.061 83.95 160.171 82.6238 152.97 82.6238C145.769 82.6238 138.88 83.95 132.534 86.3744C131.417 86.8 130.672 87.864 130.672 89.061V127.582C130.672 129.789 133.062 131.169 134.973 130.067L134.977 130.063Z" fill="black"/>
<path d="M173.839 172.387L133.901 149.317C132.469 148.489 130.675 149.523 130.675 151.179V190.939C130.675 192.136 131.42 193.2 132.537 193.625C138.887 196.05 145.776 197.376 152.973 197.376C160.171 197.376 167.064 196.05 173.414 193.625C174.531 193.2 175.276 192.136 175.276 190.939V174.869C175.276 173.843 174.728 172.896 173.843 172.383L173.839 172.387Z" fill="black"/>
<path d="M95.6206 140C95.6206 156.709 102.761 171.749 114.153 182.237C115.536 183.51 117.767 182.541 117.767 180.66V99.34C117.767 97.459 115.533 96.49 114.153 97.763C102.761 108.251 95.6206 123.288 95.6206 140Z" fill="black"/>
<path d="M188.177 99.34V180.66C188.177 182.541 190.411 183.51 191.791 182.237C203.183 171.749 210.323 156.712 210.323 140C210.323 123.288 203.183 108.251 191.791 97.763C190.408 96.49 188.177 97.459 188.177 99.34Z" fill="black"/>
<path d="M172.046 123.557L148.828 138.138C147.396 138.966 147.396 141.037 148.828 141.866L172.046 156.446C173.479 157.275 175.272 156.241 175.272 154.584V125.427C175.272 123.77 173.479 122.736 172.046 123.565V123.557Z" fill="black"/>
</g>
</g>
<defs>
<clipPath id="clip0_877_488">
<rect width="500" height="281" fill="white"/>
</clipPath>
<clipPath id="clip1_877_488">
<rect width="380" height="380" fill="white" transform="translate(58 -50)"/>
</clipPath>
</defs>
</svg>
