<svg width="500" height="281" viewBox="0 0 500 281" fill="none" xmlns="http://www.w3.org/2000/svg">
<g clip-path="url(#clip0_1213_424)">
<rect width="500" height="281" fill="white"/>
<path d="M118.669 102.83C116.173 98.6911 110.799 97.3599 106.66 99.849C105.44 100.584 104.414 101.61 103.679 102.83L91.3515 123.949C110.522 133.517 123.175 152.528 124.611 173.904H115.951C114.516 155.579 103.499 139.39 86.9835 131.326L75.5712 151.059C84.848 155.219 91.3654 163.809 92.8699 173.862H72.9851C72.2016 173.807 71.6123 173.127 71.6678 172.344C71.6816 172.15 71.7371 171.956 71.8272 171.782L77.3392 162.415C75.4742 160.855 73.3387 159.649 71.0438 158.852L65.5942 168.219C63.2299 172.275 64.6027 177.488 68.6587 179.853C68.6934 179.874 68.728 179.894 68.7627 179.908C70.0592 180.636 71.5152 181.024 72.999 181.031H100.226C101.252 168.336 95.567 156.037 85.2363 148.597L89.5627 141.102C102.604 150.06 109.947 165.244 108.865 181.031H131.932C133.028 157.111 121.31 134.412 101.183 121.439L109.933 106.45C110.342 105.77 111.215 105.541 111.902 105.943C112.893 106.484 149.924 171.096 150.618 171.845C150.999 172.531 150.756 173.398 150.07 173.779C149.848 173.904 149.598 173.966 149.349 173.959H140.433C140.543 176.344 140.543 178.723 140.433 181.101H149.39C154.14 181.128 158.015 177.308 158.05 172.559C158.05 172.524 158.05 172.496 158.05 172.462C158.05 170.957 157.648 169.487 156.885 168.191L118.697 102.81L118.669 102.83ZM297.285 151.592L269.628 115.879H262.73V163.754H269.718V127.062L298.166 163.754H304.274V115.879H297.285V151.592ZM227.633 142.711H252.427V136.492H227.619V122.084H255.595V115.865H220.499V163.76H255.956V157.541H227.626L227.647 142.718L227.633 142.711ZM198.478 136.637C188.827 134.315 186.13 132.477 186.13 128.019C186.13 124.012 189.673 121.294 194.956 121.294C199.768 121.432 204.413 123.11 208.206 126.071L211.957 120.767C207.152 117.002 201.196 115.012 195.095 115.144C185.61 115.144 178.996 120.767 178.996 128.768C178.996 137.386 184.619 140.367 194.845 142.856C203.956 144.957 206.743 146.906 206.743 151.274C206.743 155.642 202.992 158.339 197.203 158.339C191.441 158.311 185.894 156.134 181.651 152.23L177.436 157.271C182.871 161.937 189.798 164.502 196.96 164.488C207.228 164.488 213.822 158.963 213.822 150.414C213.766 143.182 209.495 139.3 198.471 136.644L198.478 136.637ZM431.043 115.872L416.636 138.357L402.318 115.872H393.964L412.871 144.826V163.767H420.068V144.597L439.107 115.872H431.05H431.043ZM309.932 122.362H325.615V163.774H332.812V122.362H348.495V115.879H309.953L309.932 122.362ZM381.782 145.068C389.013 143.064 393.028 138.003 393.028 130.772C393.028 121.571 386.302 115.782 375.452 115.782H354.166V163.733H361.287V146.531H373.372L385.512 163.767H393.832L380.714 145.366L381.782 145.068ZM361.259 140.388V122.209H374.696C381.706 122.209 385.713 125.523 385.713 131.278C385.713 137.032 381.421 140.388 374.772 140.388H361.259Z" fill="#342D57"/>
</g>
<defs>
<clipPath id="clip0_1213_424">
<rect width="500" height="281" fill="white"/>
</clipPath>
</defs>
</svg>
